OpenSans-CondensedBold.ufo
<glyph name="exclam" format="2">
	<unicode hex="0021"/>
	<advance width="555"/>
	<outline>
		<contour>
			<point x="167.6" y="470.6" type="line"/>
			<point x="387.1" y="470.6" type="line"/>
			<point x="438.2" y="1462" type="line"/>
			<point x="118.6" y="1462" type="line"/>
		</contour>
		<contour>
			<point x="276.1" y="-27.2" type="curve" smooth="yes"/>
			<point x="380.7" y="-27.2"/>
			<point x="442.3" y="33.6"/>
			<point x="442.3" y="136.9" type="curve" smooth="yes"/>
			<point x="442.3" y="242.5"/>
			<point x="385.6" y="300.6"/>
			<point x="276.1" y="300.6" type="curve" smooth="yes"/>
			<point x="166.7" y="300.6"/>
			<point x="111.3" y="240.8"/>
			<point x="111.3" y="136.9" type="curve" smooth="yes"/>
			<point x="111.3" y="33.7"/>
			<point x="167.4" y="-27.2"/>
		</contour>
	</outline>
	<note>
		exclam
	</note>
</glyph>
<glyph name="quotedbl" format="2">
  <advance width="913.0"/>
  <unicode hex="0022"/>
  <note>
quotedbl
</note>
  <outline>
    <contour>
      <point x="571.5" y="934.0" type="line"/>
      <point x="752.2" y="934.0" type="line"/>
      <point x="793.1" y="1462.0" type="line"/>
      <point x="530.1" y="1462.0" type="line"/>
    </contour>
    <contour>
      <point x="161.1" y="934.0" type="line"/>
      <point x="341.8" y="934.0" type="line"/>
      <point x="383.4" y="1462.0" type="line"/>
      <point x="121.1" y="1462.0" type="line"/>
    </contour>
  </outline>
</glyph>
<glyph name="numbersign" format="2">
  <advance width="1114.0"/>
  <unicode hex="0023"/>
  <note>
numbersign
</note>
  <outline>
    <contour>
      <point x="170.0" y="0.0" type="line"/>
      <point x="361.0" y="0.0" type="line"/>
      <point x="419.0" y="410.0" type="line"/>
      <point x="600.0" y="410.0" type="line"/>
      <point x="540.0" y="0.0" type="line"/>
      <point x="732.0" y="0.0" type="line"/>
      <point x="792.0" y="410.0" type="line"/>
      <point x="1021.0" y="410.0" type="line"/>
      <point x="1021.0" y="604.0" type="line"/>
      <point x="818.0" y="604.0" type="line"/>
      <point x="854.0" y="856.0" type="line"/>
      <point x="1074.0" y="856.0" type="line"/>
      <point x="1074.0" y="1050.0" type="line"/>
      <point x="884.0" y="1050.0" type="line"/>
      <point x="943.0" y="1462.0" type="line"/>
      <point x="755.0" y="1462.0" type="line"/>
      <point x="694.0" y="1050.0" type="line"/>
      <point x="511.0" y="1050.0" type="line"/>
      <point x="570.0" y="1462.0" type="line"/>
      <point x="382.0" y="1462.0" type="line"/>
      <point x="323.0" y="1050.0" type="line"/>
      <point x="93.0" y="1050.0" type="line"/>
      <point x="93.0" y="856.0" type="line"/>
      <point x="294.0" y="856.0" type="line"/>
      <point x="257.0" y="604.0" type="line"/>
      <point x="41.0" y="604.0" type="line"/>
      <point x="41.0" y="410.0" type="line"/>
      <point x="228.0" y="410.0" type="line"/>
    </contour>
    <contour>
      <point x="448.0" y="604.0" type="line"/>
      <point x="482.0" y="856.0" type="line"/>
      <point x="665.0" y="856.0" type="line"/>
      <point x="628.0" y="604.0" type="line"/>
    </contour>
  </outline>
</glyph>
<glyph name="percent" format="2">
  <advance width="1554.0"/>
  <unicode hex="0025"/>
  <note>
percent
</note>
  <outline>
    <contour>
      <point x="373.0" y="0.0" type="line"/>
      <point x="579.0" y="0.0" type="line"/>
      <point x="1183.0" y="1462.0" type="line"/>
      <point x="974.0" y="1462.0" type="line"/>
    </contour>
    <contour>
      <point x="355.0" y="565.0" type="curve" smooth="yes"/>
      <point x="574.0" y="565.0"/>
      <point x="648.0" y="762.0"/>
      <point x="648.0" y="1025.0" type="curve" smooth="yes"/>
      <point x="648.0" y="1292.0"/>
      <point x="581.0" y="1483.0"/>
      <point x="350.0" y="1483.0" type="curve" smooth="yes"/>
      <point x="128.0" y="1483.0"/>
      <point x="63.0" y="1293.0"/>
      <point x="63.0" y="1025.0" type="curve" smooth="yes"/>
      <point x="63.0" y="759.0"/>
      <point x="127.0" y="565.0"/>
    </contour>
    <contour>
      <point x="355.0" y="758.0" type="curve" smooth="yes"/>
      <point x="330.0" y="758.0"/>
      <point x="307.0" y="776.0"/>
      <point x="294.0" y="822.0" type="curve" smooth="yes"/>
      <point x="282.0" y="864.0"/>
      <point x="277.0" y="930.0"/>
      <point x="277.0" y="1024.0" type="curve" smooth="yes"/>
      <point x="277.0" y="1105.0"/>
      <point x="281.0" y="1177.0"/>
      <point x="295.0" y="1227.0" type="curve" smooth="yes"/>
      <point x="307.0" y="1267.0"/>
      <point x="326.0" y="1290.0"/>
      <point x="354.0" y="1290.0" type="curve" smooth="yes"/>
      <point x="381.0" y="1290.0"/>
      <point x="404.0" y="1270.0"/>
      <point x="417.0" y="1227.0" type="curve" smooth="yes"/>
      <point x="429.0" y="1185.0"/>
      <point x="435.0" y="1114.0"/>
      <point x="435.0" y="1024.0" type="curve" smooth="yes"/>
      <point x="435.0" y="931.0"/>
      <point x="429.0" y="864.0"/>
      <point x="417.0" y="822.0" type="curve" smooth="yes"/>
      <point x="403.0" y="777.0"/>
      <point x="381.0" y="758.0"/>
    </contour>
    <contour>
      <point x="1195.0" y="-18.0" type="curve" smooth="yes"/>
      <point x="1422.0" y="-18.0"/>
      <point x="1492.0" y="175.0"/>
      <point x="1492.0" y="444.0" type="curve" smooth="yes"/>
      <point x="1492.0" y="702.0"/>
      <point x="1422.0" y="899.0"/>
      <point x="1199.0" y="899.0" type="curve" smooth="yes"/>
      <point x="974.0" y="899.0"/>
      <point x="908.0" y="702.0"/>
      <point x="908.0" y="432.0" type="curve" smooth="yes"/>
      <point x="908.0" y="174.0"/>
      <point x="974.0" y="-18.0"/>
    </contour>
    <contour>
      <point x="1199.0" y="174.0" type="curve" smooth="yes"/>
      <point x="1171.0" y="174.0"/>
      <point x="1151.0" y="195.0"/>
      <point x="1139.0" y="238.0" type="curve" smooth="yes"/>
      <point x="1126.0" y="280.0"/>
      <point x="1121.0" y="347.0"/>
      <point x="1121.0" y="439.0" type="curve" smooth="yes"/>
      <point x="1121.0" y="531.0"/>
      <point x="1127.0" y="601.0"/>
      <point x="1139.0" y="643.0" type="curve" smooth="yes"/>
      <point x="1151.0" y="684.0"/>
      <point x="1173.0" y="705.0"/>
      <point x="1199.0" y="705.0" type="curve" smooth="yes"/>
      <point x="1228.0" y="705.0"/>
      <point x="1249.0" y="680.0"/>
      <point x="1261.0" y="642.0" type="curve" smooth="yes"/>
      <point x="1273.0" y="601.0"/>
      <point x="1279.0" y="532.0"/>
      <point x="1279.0" y="444.0" type="curve" smooth="yes"/>
      <point x="1279.0" y="346.0"/>
      <point x="1273.0" y="281.0"/>
      <point x="1260.0" y="237.0" type="curve" smooth="yes"/>
      <point x="1247.0" y="195.0"/>
      <point x="1226.0" y="174.0"/>
    </contour>
  </outline>
</glyph>
<glyph name="ampersand" format="2">
  <advance width="1190.0"/>
  <unicode hex="0026"/>
  <note>
ampersand
</note>
  <outline>
    <contour>
      <point x="465.0" y="-20.0" type="curve" smooth="yes"/>
      <point x="599.0" y="-20.0"/>
      <point x="711.0" y="21.0"/>
      <point x="802.0" y="102.0" type="curve"/>
      <point x="873.0" y="0.0" type="line"/>
      <point x="1172.0" y="0.0" type="line"/>
      <point x="978.0" y="270.0" type="line"/>
      <point x="1063.0" y="414.0"/>
      <point x="1119.0" y="582.0"/>
      <point x="1144.0" y="768.0" type="curve"/>
      <point x="912.0" y="768.0" type="line"/>
      <point x="896.0" y="668.0"/>
      <point x="870.0" y="562.0"/>
      <point x="826.0" y="479.0" type="curve"/>
      <point x="622.0" y="766.0" type="line"/>
      <point x="800.0" y="901.0"/>
      <point x="861.0" y="1017.0"/>
      <point x="861.0" y="1164.0" type="curve" smooth="yes"/>
      <point x="861.0" y="1357.0"/>
      <point x="733.0" y="1483.0"/>
      <point x="529.0" y="1483.0" type="curve" smooth="yes"/>
      <point x="318.0" y="1483.0"/>
      <point x="177.0" y="1348.0"/>
      <point x="177.0" y="1141.0" type="curve" smooth="yes"/>
      <point x="177.0" y="1039.0"/>
      <point x="201.0" y="967.0"/>
      <point x="303.0" y="810.0" type="curve"/>
      <point x="304.0" y="808.0" type="line"/>
      <point x="151.0" y="700.0"/>
      <point x="59.0" y="570.0"/>
      <point x="59.0" y="384.0" type="curve" smooth="yes"/>
      <point x="59.0" y="137.0"/>
      <point x="208.0" y="-20.0"/>
    </contour>
    <contour>
      <point x="497.0" y="217.0" type="curve" smooth="yes"/>
      <point x="392.0" y="217.0"/>
      <point x="329.0" y="292.0"/>
      <point x="329.0" y="412.0" type="curve" smooth="yes"/>
      <point x="329.0" y="507.0"/>
      <point x="363.0" y="577.0"/>
      <point x="428.0" y="637.0" type="curve"/>
      <point x="669.0" y="291.0" type="line"/>
      <point x="617.0" y="242.0"/>
      <point x="556.0" y="217.0"/>
    </contour>
    <contour>
      <point x="506.0" y="933.0" type="curve"/>
      <point x="457.0" y="993.0"/>
      <point x="425.0" y="1056.0"/>
      <point x="425.0" y="1130.0" type="curve" smooth="yes"/>
      <point x="425.0" y="1213.0"/>
      <point x="466.0" y="1257.0"/>
      <point x="522.0" y="1257.0" type="curve" smooth="yes"/>
      <point x="576.0" y="1257.0"/>
      <point x="615.0" y="1220.0"/>
      <point x="615.0" y="1131.0" type="curve" smooth="yes"/>
      <point x="615.0" y="1048.0"/>
      <point x="588.0" y="997.0"/>
    </contour>
  </outline>
</glyph>
<glyph name="parenright" format="2">
	<unicode hex="0029"/>
	<advance width="666"/>
	<outline>
		<contour>
			<point x="56.6" y="-324" type="curve"/>
			<point x="291.4" y="-324" type="line"/>
			<point x="486.2" y="-100.2"/>
			<point x="591.9" y="209.3"/>
			<point x="591.9" y="561" type="curve" smooth="yes"/>
			<point x="591.9" y="912.4"/>
			<point x="487.3" y="1228.7"/>
			<point x="291.4" y="1462" type="curve"/>
			<point x="54.6" y="1462" type="line"/>
			<point x="242.7" y="1205.4"/>
			<point x="339.2" y="888.3"/>
			<point x="339.2" y="563" type="curve" smooth="yes"/>
			<point x="339.2" y="234.8"/>
			<point x="237" y="-78.1"/>
		</contour>
	</outline>
	<note>
		parenright
	</note>
</glyph>
<glyph name="asterisk" format="2">
	<unicode hex="002A"/>
	<advance width="952"/>
	<outline>
		<contour>
			<point x="356" y="736.3" type="line"/>
			<point x="473" y="996.3" type="line"/>
			<point x="602" y="736.9" type="line"/>
			<point x="801.2" y="846.3" type="line"/>
			<point x="615.8" y="1092.2" type="line"/>
			<point x="901.6" y="1110" type="line"/>
			<point x="868" y="1334.6" type="line"/>
			<point x="557.2" y="1248.9" type="line"/>
			<point x="593.6" y="1556" type="line"/>
			<point x="356.4" y="1556" type="line"/>
			<point x="393.2" y="1248.9" type="line"/>
			<point x="90" y="1335.4" type="line"/>
			<point x="52.7" y="1113.6" type="line"/>
			<point x="334.6" y="1092.2" type="line"/>
			<point x="152" y="846.3" type="line"/>
		</contour>
	</outline>
	<note>
		asterisk
	</note>
</glyph>
<glyph name="plus" format="2">
  <advance width="918.0"/>
  <unicode hex="002B"/>
  <note>
plus
</note>
  <outline>
    <contour>
      <point x="359.9" y="250.0" type="line"/>
      <point x="557.4" y="250.0" type="line"/>
      <point x="557.4" y="617.6" type="line"/>
      <point x="811.1" y="617.6" type="line"/>
      <point x="811.1" y="825.6" type="line"/>
      <point x="557.4" y="825.6" type="line"/>
      <point x="557.4" y="1198.0" type="line"/>
      <point x="359.9" y="1198.0" type="line"/>
      <point x="359.9" y="825.6" type="line"/>
      <point x="105.9" y="825.6" type="line"/>
      <point x="105.9" y="617.6" type="line"/>
      <point x="359.9" y="617.6" type="line"/>
    </contour>
  </outline>
</glyph>
<glyph name="hyphen" format="2">
  <advance width="647.0"/>
  <unicode hex="002D"/>
  <outline>
    <contour>
      <point x="72.0" y="432.0" type="line"/>
      <point x="574.0" y="432.0" type="line"/>
      <point x="574.0" y="666.0" type="line"/>
      <point x="72.0" y="666.0" type="line"/>
    </contour>
  </outline>
</glyph>
<glyph name="one" format="2">
  <advance width="948.0"/>
  <unicode hex="0031"/>
  <outline>
    <contour>
      <point x="460.8" y="0.0" type="line"/>
      <point x="729.7" y="0.0" type="line"/>
      <point x="729.7" y="1462.0" type="line"/>
      <point x="487.3" y="1462.0" type="line"/>
      <point x="97.5" y="1101.9" type="line"/>
      <point x="250.7" y="936.7" type="line"/>
      <point x="348.7" y="1036.3"/>
      <point x="391.1" y="1083.4"/>
      <point x="424.0" y="1119.3" type="curve" smooth="yes"/>
      <point x="447.0" y="1143.7"/>
      <point x="460.4" y="1159.1"/>
      <point x="475.1" y="1180.2" type="curve"/>
      <point x="465.9" y="1058.9"/>
      <point x="460.8" y="950.6"/>
      <point x="460.8" y="857.3" type="curve" smooth="yes"/>
    </contour>
  </outline>
</glyph>
<glyph name="three" format="2">
  <advance width="948.0"/>
  <unicode hex="0033"/>
  <outline>
    <contour>
      <point x="389.4" y="-20.0" type="curve" smooth="yes"/>
      <point x="679.7" y="-20.0"/>
      <point x="858.3" y="153.2"/>
      <point x="858.3" y="421.6" type="curve" smooth="yes"/>
      <point x="858.3" y="619.5"/>
      <point x="753.2" y="735.3"/>
      <point x="568.9" y="764.3" type="curve"/>
      <point x="568.9" y="772.3" type="line"/>
      <point x="733.5" y="820.2"/>
      <point x="829.0" y="948.4"/>
      <point x="829.0" y="1132.1" type="curve" smooth="yes"/>
      <point x="829.0" y="1350.6"/>
      <point x="682.9" y="1483.0"/>
      <point x="436.3" y="1483.0" type="curve" smooth="yes"/>
      <point x="286.3" y="1483.0"/>
      <point x="161.7" y="1434.1"/>
      <point x="62.7" y="1335.3" type="curve"/>
      <point x="186.7" y="1155.1" type="line"/>
      <point x="257.4" y="1218.8"/>
      <point x="331.6" y="1250.8"/>
      <point x="406.1" y="1250.8" type="curve" smooth="yes"/>
      <point x="505.0" y="1250.8"/>
      <point x="560.9" y="1191.4"/>
      <point x="560.9" y="1074.8" type="curve" smooth="yes"/>
      <point x="560.9" y="926.7"/>
      <point x="473.6" y="852.7"/>
      <point x="315.9" y="852.7" type="curve" smooth="yes"/>
      <point x="236.6" y="852.7" type="line"/>
      <point x="236.6" y="648.7" type="line"/>
      <point x="319.0" y="648.7" type="line" smooth="yes"/>
      <point x="374.2" y="648.7"/>
      <point x="420.6" y="642.4"/>
      <point x="458.9" y="628.4" type="curve" smooth="yes"/>
      <point x="544.7" y="598.3"/>
      <point x="587.9" y="532.0"/>
      <point x="587.9" y="430.5" type="curve" smooth="yes"/>
      <point x="587.9" y="274.5"/>
      <point x="509.0" y="207.3"/>
      <point x="353.7" y="207.3" type="curve" smooth="yes"/>
      <point x="258.6" y="207.3"/>
      <point x="150.5" y="239.7"/>
      <point x="63.0" y="292.9" type="curve"/>
      <point x="63.0" y="49.8" type="line"/>
      <point x="150.4" y="3.6"/>
      <point x="259.9" y="-20.0"/>
    </contour>
  </outline>
</glyph>
<glyph name="four" format="2">
  <advance width="948.0"/>
  <unicode hex="0034"/>
  <outline>
    <contour>
      <point x="514.4" y="0.0" type="line"/>
      <point x="770.0" y="0.0" type="line"/>
      <point x="770.0" y="306.8" type="line"/>
      <point x="917.6" y="306.8" type="line"/>
      <point x="917.6" y="531.9" type="line"/>
      <point x="770.0" y="531.9" type="line"/>
      <point x="770.0" y="1461.5" type="line"/>
      <point x="478.9" y="1461.5" type="line"/>
      <point x="37.0" y="528.0" type="line"/>
      <point x="37.0" y="306.8" type="line"/>
      <point x="514.4" y="306.8" type="line"/>
    </contour>
    <contour>
      <point x="266.5" y="531.9" type="line"/>
      <point x="442.4" y="909.2" type="line" smooth="yes"/>
      <point x="468.8" y="968.0"/>
      <point x="494.9" y="1033.5"/>
      <point x="517.8" y="1105.6" type="curve"/>
      <point x="525.9" y="1105.6" type="line"/>
      <point x="521.6" y="1037.7"/>
      <point x="514.4" y="906.6"/>
      <point x="514.4" y="840.3" type="curve" smooth="yes"/>
      <point x="514.4" y="531.9" type="line"/>
    </contour>
  </outline>
</glyph>
<glyph name="five" format="2">
	<unicode hex="0035"/>
	<advance width="948"/>
	<outline>
		<contour>
			<point x="400.8" y="-20" type="curve" smooth="yes"/>
			<point x="689.1" y="-20"/>
			<point x="860" y="165.1"/>
			<point x="860" y="485.3" type="curve" smooth="yes"/>
			<point x="860" y="752.2"/>
			<point x="720.2" y="915.3"/>
			<point x="500.5" y="915.3" type="curve" smooth="yes"/>
			<point x="450.8" y="915.3"/>
			<point x="408.2" y="911.1"/>
			<point x="371.3" y="903.7" type="curve"/>
			<point x="390.5" y="1219.6" type="line"/>
			<point x="782.1" y="1219.6" type="line"/>
			<point x="782.1" y="1462" type="line"/>
			<point x="158.3" y="1462" type="line"/>
			<point x="113.9" y="729.3" type="line"/>
			<point x="201.4" y="663.5" type="line"/>
			<point x="263" y="685.6"/>
			<point x="322.2" y="696.3"/>
			<point x="376.9" y="696.3" type="curve" smooth="yes"/>
			<point x="516.1" y="696.3"/>
			<point x="585.7" y="617.7"/>
			<point x="585.7" y="463.1" type="curve" smooth="yes"/>
			<point x="585.7" y="295.9"/>
			<point x="513.6" y="212.9"/>
			<point x="370.9" y="212.9" type="curve" smooth="yes"/>
			<point x="279.7" y="212.9"/>
			<point x="157.7" y="257.8"/>
			<point x="89.6" y="307.4" type="curve"/>
			<point x="89.6" y="53.2" type="line"/>
			<point x="168.9" y="4.3"/>
			<point x="273" y="-20"/>
		</contour>
	</outline>
</glyph>
<glyph name="six" format="2">
	<unicode hex="0036"/>
	<advance width="948"/>
	<outline>
		<contour>
			<point x="471.7" y="-20" type="curve" smooth="yes"/>
			<point x="719.9" y="-20"/>
			<point x="873.9" y="167.5"/>
			<point x="873.9" y="491.7" type="curve" smooth="yes"/>
			<point x="873.9" y="771.2"/>
			<point x="759.8" y="944.3"/>
			<point x="564.8" y="944.3" type="curve" smooth="yes"/>
			<point x="455.5" y="944.3"/>
			<point x="374.5" y="888.2"/>
			<point x="326" y="776" type="curve"/>
			<point x="314.5" y="776" type="line"/>
			<point x="320.1" y="896"/>
			<point x="335.4" y="990.5"/>
			<point x="361.7" y="1056" type="curve" smooth="yes"/>
			<point x="406.6" y="1183.5"/>
			<point x="505.4" y="1255.3"/>
			<point x="660.2" y="1255.3" type="curve" smooth="yes"/>
			<point x="703.5" y="1255.3"/>
			<point x="748.5" y="1250.1"/>
			<point x="795.2" y="1239.4" type="curve"/>
			<point x="795.2" y="1464.9" type="line"/>
			<point x="763.6" y="1472.2"/>
			<point x="699.6" y="1480.9"/>
			<point x="632.5" y="1480.9" type="curve" smooth="yes"/>
			<point x="486.2" y="1480.9"/>
			<point x="365.1" y="1438.3"/>
			<point x="278.2" y="1353.6" type="curve" smooth="yes"/>
			<point x="135.9" y="1216.2"/>
			<point x="74.1" y="959"/>
			<point x="74.1" y="637.7" type="curve" smooth="yes"/>
			<point x="74.1" y="203.9"/>
			<point x="202.5" y="-20"/>
		</contour>
		<contour>
			<point x="474.4" y="209.1" type="curve" smooth="yes"/>
			<point x="432.9" y="209.1"/>
			<point x="399.1" y="236.9"/>
			<point x="379.4" y="287.2" type="curve" smooth="yes"/>
			<point x="355.4" y="324.5"/>
			<point x="343.1" y="410.2"/>
			<point x="343.1" y="523.3" type="curve" smooth="yes"/>
			<point x="343.1" y="565"/>
			<point x="357.2" y="625.2"/>
			<point x="380.2" y="662.9" type="curve" smooth="yes"/>
			<point x="402.1" y="700.6"/>
			<point x="437.3" y="724.9"/>
			<point x="480.1" y="724.9" type="curve" smooth="yes"/>
			<point x="565.3" y="724.9"/>
			<point x="608" y="632.7"/>
			<point x="608" y="472" type="curve" smooth="yes"/>
			<point x="608" y="386.3"/>
			<point x="596.1" y="319.4"/>
			<point x="571.9" y="275.2" type="curve" smooth="yes"/>
			<point x="547.7" y="228.8"/>
			<point x="513" y="209.1"/>
		</contour>
	</outline>
</glyph>
<glyph name="seven" format="2">
  <advance width="948.0"/>
  <unicode hex="0037"/>
  <outline>
    <contour>
      <point x="180.3" y="0.0" type="line"/>
      <point x="460.8" y="0.0" type="line"/>
      <point x="863.5" y="1276.4" type="line"/>
      <point x="863.5" y="1459.9" type="line"/>
      <point x="80.1" y="1459.9" type="line"/>
      <point x="80.1" y="1219.6" type="line"/>
      <point x="590.2" y="1219.6" type="line"/>
    </contour>
  </outline>
</glyph>
<glyph name="eight" format="2">
  <advance width="948.0"/>
  <unicode hex="0038"/>
  <outline>
    <contour>
      <point x="468.9" y="-20.0" type="curve" smooth="yes"/>
      <point x="722.2" y="-20.0"/>
      <point x="877.4" y="140.4"/>
      <point x="877.4" y="382.3" type="curve" smooth="yes"/>
      <point x="877.4" y="548.0"/>
      <point x="791.7" y="666.6"/>
      <point x="641.4" y="773.9" type="curve"/>
      <point x="793.0" y="875.2"/>
      <point x="849.9" y="983.2"/>
      <point x="849.9" y="1119.0" type="curve" smooth="yes"/>
      <point x="849.9" y="1342.7"/>
      <point x="702.4" y="1480.9"/>
      <point x="476.4" y="1480.9" type="curve" smooth="yes"/>
      <point x="255.1" y="1480.9"/>
      <point x="97.6" y="1342.6"/>
      <point x="97.6" y="1115.0" type="curve" smooth="yes"/>
      <point x="97.6" y="981.6"/>
      <point x="152.9" y="871.4"/>
      <point x="291.1" y="762.0" type="curve"/>
      <point x="140.9" y="664.7"/>
      <point x="72.0" y="539.7"/>
      <point x="72.0" y="368.2" type="curve" smooth="yes"/>
      <point x="72.0" y="119.5"/>
      <point x="228.2" y="-20.0"/>
    </contour>
    <contour>
      <point x="474.2" y="193.2" type="curve" smooth="yes"/>
      <point x="377.1" y="193.2"/>
      <point x="330.1" y="269.6"/>
      <point x="330.1" y="380.9" type="curve" smooth="yes"/>
      <point x="330.1" y="505.0"/>
      <point x="372.8" y="579.9"/>
      <point x="462.4" y="646.8" type="curve"/>
      <point x="575.8" y="545.6"/>
      <point x="617.6" y="477.4"/>
      <point x="617.6" y="388.0" type="curve" smooth="yes"/>
      <point x="617.6" y="266.3"/>
      <point x="567.6" y="193.2"/>
    </contour>
    <contour>
      <point x="475.1" y="890.3" type="curve"/>
      <point x="382.9" y="963.7"/>
      <point x="358.2" y="1022.3"/>
      <point x="358.2" y="1108.2" type="curve" smooth="yes"/>
      <point x="358.2" y="1215.7"/>
      <point x="397.7" y="1269.8"/>
      <point x="473.7" y="1269.8" type="curve" smooth="yes"/>
      <point x="551.8" y="1269.8"/>
      <point x="589.3" y="1216.4"/>
      <point x="589.3" y="1106.8" type="curve" smooth="yes"/>
      <point x="589.3" y="1023.0"/>
      <point x="563.4" y="959.1"/>
    </contour>
  </outline>
</glyph>
<glyph name="nine" format="2">
  <advance width="948.0"/>
  <unicode hex="0039"/>
  <outline>
    <contour>
      <point x="290.8" y="-20.0" type="curve" smooth="yes"/>
      <point x="419.5" y="-20.0"/>
      <point x="527.8" y="12.5"/>
      <point x="614.0" y="77.5" type="curve" smooth="yes"/>
      <point x="782.1" y="200.1"/>
      <point x="867.8" y="441.3"/>
      <point x="867.8" y="806.9" type="curve" smooth="yes"/>
      <point x="867.8" y="923.0"/>
      <point x="857.7" y="1025.0"/>
      <point x="839.5" y="1111.6" type="curve" smooth="yes"/>
      <point x="785.9" y="1357.4"/>
      <point x="657.4" y="1480.9"/>
      <point x="466.8" y="1480.9" type="curve" smooth="yes"/>
      <point x="222.7" y="1480.9"/>
      <point x="68.0" y="1288.9"/>
      <point x="68.0" y="968.5" type="curve" smooth="yes"/>
      <point x="68.0" y="689.5"/>
      <point x="185.0" y="515.6"/>
      <point x="378.5" y="515.6" type="curve" smooth="yes"/>
      <point x="493.4" y="515.6"/>
      <point x="569.5" y="578.0"/>
      <point x="614.5" y="683.9" type="curve"/>
      <point x="623.2" y="683.9" type="line"/>
      <point x="612.3" y="356.4"/>
      <point x="494.6" y="203.5"/>
      <point x="281.3" y="203.5" type="curve" smooth="yes"/>
      <point x="231.4" y="203.5"/>
      <point x="196.0" y="209.4"/>
      <point x="147.1" y="225.4" type="curve"/>
      <point x="147.1" y="-4.3" type="line"/>
      <point x="183.5" y="-14.6"/>
      <point x="243.9" y="-20.0"/>
    </contour>
    <contour>
      <point x="455.5" y="734.3" type="curve" smooth="yes"/>
      <point x="375.2" y="734.3"/>
      <point x="333.9" y="825.1"/>
      <point x="333.9" y="987.2" type="curve" smooth="yes"/>
      <point x="333.9" y="1062.5"/>
      <point x="345.3" y="1142.3"/>
      <point x="369.5" y="1183.8" type="curve" smooth="yes"/>
      <point x="389.5" y="1225.4"/>
      <point x="426.9" y="1249.0"/>
      <point x="465.7" y="1249.0" type="curve" smooth="yes"/>
      <point x="496.4" y="1249.0"/>
      <point x="516.9" y="1233.4"/>
      <point x="535.6" y="1209.9" type="curve" smooth="yes"/>
      <point x="574.4" y="1159.8"/>
      <point x="599.5" y="1083.2"/>
      <point x="599.5" y="933.7" type="curve" smooth="yes"/>
      <point x="599.5" y="905.6"/>
      <point x="590.3" y="866.2"/>
      <point x="573.5" y="829.1" type="curve" smooth="yes"/>
      <point x="549.8" y="776.6"/>
      <point x="509.0" y="734.3"/>
    </contour>
  </outline>
</glyph>
<glyph name="colon" format="2">
	<unicode hex="003A"/>
	<advance width="553"/>
	<outline>
		<contour>
			<point x="276.1" y="808.9" type="curve" smooth="yes"/>
			<point x="381.4" y="808.9"/>
			<point x="442.3" y="869.3"/>
			<point x="442.3" y="972.6" type="curve" smooth="yes"/>
			<point x="442.3" y="1077.9"/>
			<point x="384.8" y="1137.4"/>
			<point x="276.1" y="1137.4" type="curve" smooth="yes"/>
			<point x="167.4" y="1137.4"/>
			<point x="110.6" y="1077.2"/>
			<point x="110.6" y="972.6" type="curve" smooth="yes"/>
			<point x="110.6" y="869.4"/>
			<point x="168.1" y="808.9"/>
		</contour>
		<contour>
			<point x="276.1" y="-27.2" type="curve" smooth="yes"/>
			<point x="381.4" y="-27.2"/>
			<point x="442.3" y="33.6"/>
			<point x="442.3" y="136.9" type="curve" smooth="yes"/>
			<point x="442.3" y="242.5"/>
			<point x="384.9" y="300.6"/>
			<point x="276.1" y="300.6" type="curve" smooth="yes"/>
			<point x="167.4" y="300.6"/>
			<point x="110.6" y="240.8"/>
			<point x="110.6" y="136.9" type="curve" smooth="yes"/>
			<point x="110.6" y="33.7"/>
			<point x="168.1" y="-27.2"/>
		</contour>
	</outline>
	<note>
		colon
	</note>
</glyph>
<glyph name="semicolon" format="2">
  <advance width="553.0"/>
  <unicode hex="003B"/>
  <note>
semicolon
</note>
  <outline>
    <contour>
      <point x="51.4" y="-264.0" type="curve"/>
      <point x="253.7" y="-264.0" type="line"/>
      <point x="337.5" y="-79.2"/>
      <point x="395.3" y="79.6"/>
      <point x="430.2" y="214.9" type="curve"/>
      <point x="416.2" y="237.9" type="line"/>
      <point x="152.1" y="237.9" type="line"/>
      <point x="128.1" y="81.6"/>
      <point x="93.7" y="-86.3"/>
    </contour>
    <contour>
      <point x="276.1" y="808.9" type="curve" smooth="yes"/>
      <point x="381.4" y="808.9"/>
      <point x="442.3" y="869.3"/>
      <point x="442.3" y="972.6" type="curve" smooth="yes"/>
      <point x="442.3" y="1077.9"/>
      <point x="384.8" y="1137.4"/>
      <point x="276.1" y="1137.4" type="curve" smooth="yes"/>
      <point x="167.4" y="1137.4"/>
      <point x="110.6" y="1077.2"/>
      <point x="110.6" y="972.6" type="curve" smooth="yes"/>
      <point x="110.6" y="869.4"/>
      <point x="168.1" y="808.9"/>
    </contour>
  </outline>
</glyph>
<glyph name="less" format="2">
	<unicode hex="003C"/>
	<advance width="918"/>
	<outline>
		<contour>
			<point x="811.7" y="209.3" type="line"/>
			<point x="811.7" y="433.8" type="line"/>
			<point x="324.4" y="723" type="line"/>
			<point x="811.7" y="1010.1" type="line"/>
			<point x="811.7" y="1234.7" type="line"/>
			<point x="105.9" y="801.4" type="line"/>
			<point x="105.9" y="645.2" type="line"/>
		</contour>
	</outline>
	<note>
		less
	</note>
</glyph>
<glyph name="equal" format="2">
  <advance width="918.0"/>
  <unicode hex="003D"/>
  <note>
equal
</note>
  <outline>
    <contour>
      <point x="105.9" y="550.6" type="line"/>
      <point x="811.1" y="550.6" type="line"/>
      <point x="811.1" y="757.9" type="line"/>
      <point x="105.9" y="757.9" type="line"/>
    </contour>
    <contour>
      <point x="105.9" y="686.2" type="line"/>
      <point x="811.1" y="686.2" type="line"/>
      <point x="811.1" y="891.4" type="line"/>
      <point x="105.9" y="891.4" type="line"/>
    </contour>
  </outline>
</glyph>
<glyph name="greater" format="2">
  <advance width="918.0"/>
  <unicode hex="003E"/>
  <note>
greater
</note>
  <outline>
    <contour>
      <point x="106.0" y="209.0" type="line"/>
      <point x="810.0" y="645.0" type="line"/>
      <point x="810.0" y="801.0" type="line"/>
      <point x="106.0" y="1235.0" type="line"/>
      <point x="106.0" y="1010.0" type="line"/>
      <point x="594.0" y="723.0" type="line"/>
      <point x="106.0" y="434.0" type="line"/>
    </contour>
  </outline>
</glyph>
<glyph name="at" format="2">
  <advance width="1485.0"/>
  <unicode hex="0040"/>
  <note>
at
</note>
  <outline>
    <contour>
      <point x="738.0" y="-168.1" type="curve" smooth="yes"/>
      <point x="872.1" y="-168.1"/>
      <point x="993.7" y="-139.0"/>
      <point x="1104.1" y="-80.5" type="curve"/>
      <point x="1104.1" y="102.4" type="line"/>
      <point x="981.6" y="43.1"/>
      <point x="856.3" y="12.4"/>
      <point x="742.6" y="12.4" type="curve" smooth="yes"/>
      <point x="448.5" y="12.4"/>
      <point x="279.3" y="232.4"/>
      <point x="279.3" y="606.5" type="curve" smooth="yes"/>
      <point x="279.3" y="972.7"/>
      <point x="454.2" y="1297.9"/>
      <point x="790.9" y="1297.9" type="curve" smooth="yes"/>
      <point x="1084.8" y="1297.9"/>
      <point x="1207.7" y="1070.1"/>
      <point x="1207.7" y="749.4" type="curve" smooth="yes"/>
      <point x="1207.7" y="602.2"/>
      <point x="1185.2" y="403.0"/>
      <point x="1098.9" y="403.0" type="curve" smooth="yes"/>
      <point x="1076.7" y="403.0"/>
      <point x="1058.4" y="412.9"/>
      <point x="1046.3" y="434.0" type="curve" smooth="yes"/>
      <point x="1033.9" y="455.4"/>
      <point x="1027.7" y="491.8"/>
      <point x="1027.7" y="547.2" type="curve" smooth="yes"/>
      <point x="1027.7" y="559.5"/>
      <point x="1027.7" y="572.8"/>
      <point x="1027.7" y="585.1" type="curve" smooth="yes"/>
      <point x="1049.8" y="1051.6" type="line"/>
      <point x="958.2" y="1079.7"/>
      <point x="866.4" y="1093.9"/>
      <point x="798.3" y="1093.9" type="curve" smooth="yes"/>
      <point x="561.0" y="1093.9"/>
      <point x="429.9" y="893.9"/>
      <point x="429.9" y="598.5" type="curve" smooth="yes"/>
      <point x="429.9" y="353.3"/>
      <point x="532.2" y="231.0"/>
      <point x="685.6" y="231.0" type="curve" smooth="yes"/>
      <point x="789.7" y="231.0"/>
      <point x="849.0" y="286.3"/>
      <point x="901.4" y="370.8" type="curve"/>
      <point x="908.3" y="370.8" type="line"/>
      <point x="929.5" y="291.3"/>
      <point x="996.3" y="231.0"/>
      <point x="1104.5" y="231.0" type="curve" smooth="yes"/>
      <point x="1293.0" y="231.0"/>
      <point x="1410.7" y="422.1"/>
      <point x="1410.7" y="753.2" type="curve" smooth="yes"/>
      <point x="1410.7" y="1187.1"/>
      <point x="1203.8" y="1477.9"/>
      <point x="792.9" y="1477.9" type="curve" smooth="yes"/>
      <point x="337.2" y="1477.9"/>
      <point x="73.9" y="1085.4"/>
      <point x="73.9" y="596.8" type="curve" smooth="yes"/>
      <point x="73.9" y="143.6"/>
      <point x="308.4" y="-168.1"/>
    </contour>
    <contour>
      <point x="726.7" y="403.0" type="curve" smooth="yes"/>
      <point x="697.7" y="403.0"/>
      <point x="676.1" y="418.7"/>
      <point x="660.5" y="455.3" type="curve" smooth="yes"/>
      <point x="644.5" y="491.0"/>
      <point x="637.4" y="541.0"/>
      <point x="637.4" y="604.3" type="curve" smooth="yes"/>
      <point x="637.4" y="711.9"/>
      <point x="656.0" y="795.2"/>
      <point x="686.5" y="850.3" type="curve" smooth="yes"/>
      <point x="710.4" y="895.6"/>
      <point x="742.8" y="922.3"/>
      <point x="782.7" y="922.3" type="curve" smooth="yes"/>
      <point x="803.6" y="922.3"/>
      <point x="829.0" y="917.9"/>
      <point x="844.2" y="911.5" type="curve"/>
      <point x="831.7" y="682.8" type="line" smooth="yes"/>
      <point x="826.4" y="584.3"/>
      <point x="814.0" y="513.7"/>
      <point x="799.1" y="472.0" type="curve" smooth="yes"/>
      <point x="784.2" y="430.3"/>
      <point x="761.6" y="403.0"/>
    </contour>
  </outline>
</glyph>
<glyph name="A" format="2">
  <advance width="1094.0"/>
  <unicode hex="0041"/>
  <anchor x="547.0" y="0.0" name="bottom"/>
  <anchor x="1015.5" y="10.0" name="ogonek"/>
  <anchor x="547.0" y="1462.0" name="top"/>
  <outline>
    <contour>
      <point x="1093.7" y="0.0" type="line"/>
      <point x="730.9" y="1468.3" type="line"/>
      <point x="362.5" y="1468.3" type="line"/>
      <point x="0.0" y="0.0" type="line"/>
      <point x="271.4" y="0.0" type="line"/>
      <point x="356.4" y="369.7" type="line"/>
      <point x="737.3" y="369.7" type="line"/>
      <point x="821.5" y="0.0" type="line"/>
    </contour>
    <contour>
      <point x="410.4" y="609.4" type="line"/>
      <point x="462.2" y="838.3"/>
      <point x="493.4" y="980.1"/>
      <point x="514.4" y="1083.0" type="curve" smooth="yes"/>
      <point x="520.4" y="1110.9"/>
      <point x="528.7" y="1158.4"/>
      <point x="546.6" y="1271.7" type="curve"/>
      <point x="550.8" y="1235.6"/>
      <point x="598.9" y="991.4"/>
      <point x="607.7" y="950.0" type="curve" smooth="yes"/>
      <point x="685.6" y="609.4" type="line"/>
    </contour>
  </outline>
</glyph>
<glyph name="C" format="2">
  <advance width="948.0"/>
  <unicode hex="0043"/>
  <anchor x="558.0" y="0.0" name="bottom"/>
  <anchor x="557.0" y="1453.0" name="top"/>
  <outline>
    <contour>
      <point x="616.4" y="1245.4" type="curve" smooth="yes"/>
      <point x="697.2" y="1245.4"/>
      <point x="777.3" y="1193.8"/>
      <point x="820.7" y="1162.7" type="curve"/>
      <point x="910.5" y="1384.5" type="line"/>
      <point x="798.0" y="1457.0"/>
      <point x="704.6" y="1482.9"/>
      <point x="601.6" y="1482.9" type="curve" smooth="yes"/>
      <point x="274.7" y="1482.9"/>
      <point x="84.4" y="1203.4"/>
      <point x="84.4" y="728.0" type="curve" smooth="yes"/>
      <point x="84.4" y="579.7"/>
      <point x="102.7" y="447.5"/>
      <point x="138.6" y="338.7" type="curve" smooth="yes"/>
      <point x="217.4" y="99.5"/>
      <point x="379.6" y="-20.0"/>
      <point x="598.2" y="-20.0" type="curve" smooth="yes"/>
      <point x="700.7" y="-20.0"/>
      <point x="798.8" y="2.7"/>
      <point x="869.7" y="50.9" type="curve"/>
      <point x="869.7" y="292.8" type="line"/>
      <point x="793.7" y="249.0"/>
      <point x="710.5" y="218.9"/>
      <point x="628.2" y="218.9" type="curve" smooth="yes"/>
      <point x="556.3" y="218.9"/>
      <point x="501.8" y="245.2"/>
      <point x="461.2" y="296.1" type="curve" smooth="yes"/>
      <point x="394.0" y="377.9"/>
      <point x="361.4" y="527.3"/>
      <point x="361.4" y="717.6" type="curve" smooth="yes"/>
      <point x="361.4" y="1058.2"/>
      <point x="458.0" y="1245.4"/>
    </contour>
  </outline>
</glyph>
<glyph name="D" format="2">
  <advance width="1143.0"/>
  <unicode hex="0044"/>
  <anchor x="572.2" y="0.0" name="bottom"/>
  <anchor x="572.2" y="731.0" name="center"/>
  <anchor x="572.2" y="1462.0" name="top"/>
  <outline>
    <contour>
      <point x="1059.3" y="745.0" type="curve" smooth="yes"/>
      <point x="1059.3" y="1197.2"/>
      <point x="860.0" y="1462.0"/>
      <point x="520.5" y="1462.0" type="curve" smooth="yes"/>
      <point x="128.5" y="1462.0" type="line"/>
      <point x="128.5" y="0.0" type="line"/>
      <point x="487.2" y="0.0" type="line" smooth="yes"/>
      <point x="856.7" y="0.0"/>
      <point x="1059.3" y="262.0"/>
    </contour>
    <contour>
      <point x="779.9" y="736.9" type="curve" smooth="yes"/>
      <point x="779.9" y="404.2"/>
      <point x="688.0" y="237.7"/>
      <point x="488.9" y="237.7" type="curve" smooth="yes"/>
      <point x="400.8" y="237.7" type="line"/>
      <point x="400.8" y="1227.1" type="line"/>
      <point x="510.2" y="1227.1" type="line" smooth="yes"/>
      <point x="690.5" y="1227.1"/>
      <point x="779.9" y="1064.2"/>
    </contour>
  </outline>
</glyph>
<glyph name="F" format="2">
  <advance width="838.0"/>
  <unicode hex="0046"/>
  <anchor x="418.9" y="0.0" name="bottom"/>
  <anchor x="418.9" y="1462.0" name="top"/>
  <outline>
    <contour>
      <point x="399.4" y="585.8" type="line"/>
      <point x="757.6" y="585.8" type="line"/>
      <point x="757.6" y="821.5" type="line"/>
      <point x="399.4" y="821.5" type="line"/>
      <point x="399.4" y="1226.6" type="line"/>
      <point x="783.7" y="1226.6" type="line"/>
      <point x="783.7" y="1462.0" type="line"/>
      <point x="128.5" y="1462.0" type="line"/>
      <point x="128.5" y="0.0" type="line"/>
      <point x="399.4" y="0.0" type="line"/>
    </contour>
  </outline>
</glyph>
<glyph name="G" format="2">
  <advance width="1112.0"/>
  <unicode hex="0047"/>
  <anchor x="579.2" y="0.0" name="bottom"/>
  <anchor x="683.5" y="1462.0" name="top"/>
  <outline>
    <contour>
      <point x="625.9" y="-20.0" type="curve" smooth="yes"/>
      <point x="745.2" y="-20.0"/>
      <point x="889.9" y="6.2"/>
      <point x="1017.7" y="61.8" type="curve"/>
      <point x="1017.7" y="811.2" type="line"/>
      <point x="571.0" y="811.2" type="line"/>
      <point x="571.0" y="571.6" type="line"/>
      <point x="752.1" y="571.6" type="line"/>
      <point x="752.1" y="235.6" type="line"/>
      <point x="707.1" y="224.6"/>
      <point x="661.4" y="218.9"/>
      <point x="619.5" y="218.9" type="curve" smooth="yes"/>
      <point x="451.2" y="218.9"/>
      <point x="362.0" y="410.6"/>
      <point x="362.0" y="701.5" type="curve" smooth="yes"/>
      <point x="362.0" y="1059.5"/>
      <point x="491.0" y="1243.3"/>
      <point x="698.2" y="1243.3" type="curve" smooth="yes"/>
      <point x="769.9" y="1243.3"/>
      <point x="847.0" y="1219.2"/>
      <point x="929.9" y="1170.7" type="curve"/>
      <point x="1015.4" y="1393.9" type="line"/>
      <point x="909.7" y="1453.4"/>
      <point x="801.5" y="1483.0"/>
      <point x="678.6" y="1483.0" type="curve" smooth="yes"/>
      <point x="565.1" y="1483.0"/>
      <point x="465.2" y="1457.6"/>
      <point x="382.6" y="1408.0" type="curve" smooth="yes"/>
      <point x="190.8" y="1295.2"/>
      <point x="84.4" y="1058.0"/>
      <point x="84.4" y="712.6" type="curve" smooth="yes"/>
      <point x="84.4" y="248.0"/>
      <point x="274.0" y="-20.0"/>
    </contour>
  </outline>
</glyph>
<glyph name="H" format="2">
	<unicode hex="0048"/>
	<advance width="1161"/>
	<outline>
		<contour>
			<point x="1031.9" y="1462" type="line"/>
			<point x="759.6" y="1462" type="line"/>
			<point x="759.6" y="880.9" type="line"/>
			<point x="400.8" y="880.9" type="line"/>
			<point x="400.8" y="1462" type="line"/>
			<point x="128.5" y="1462" type="line"/>
			<point x="128.5" y="0" type="line"/>
			<point x="400.8" y="0" type="line"/>
			<point x="400.8" y="641.3" type="line"/>
			<point x="759.6" y="641.3" type="line"/>
			<point x="759.6" y="0" type="line"/>
			<point x="1031.9" y="0" type="line"/>
		</contour>
	</outline>
	<anchor name="bottom" x="580.9" y="0"/>
	<anchor name="center" x="580.9" y="731"/>
	<anchor name="top" x="580.9" y="1462"/>
	<anchor name="topleft" x="20" y="1462"/>
</glyph>
<glyph name="K" format="2">
	<unicode hex="004B"/>
	<advance width="1040"/>
	<outline>
		<contour>
			<point x="698.1" y="829.5" type="line"/>
			<point x="1036.4" y="1462" type="line"/>
			<point x="745.3" y="1462" type="line"/>
			<point x="495.9" y="956" type="line"/>
			<point x="465.5" y="882.8"/>
			<point x="433.1" y="809.8"/>
			<point x="400.8" y="737.7" type="curve"/>
			<point x="400.8" y="1462" type="line"/>
			<point x="128.5" y="1462" type="line"/>
			<point x="128.5" y="0" type="line"/>
			<point x="400.8" y="0" type="line"/>
			<point x="400.8" y="515.6" type="line"/>
			<point x="510.3" y="625.4" type="line"/>
			<point x="750" y="0" type="line"/>
			<point x="1040.6" y="0" type="line"/>
		</contour>
	</outline>
	<anchor name="bottom" x="520.1" y="0"/>
	<anchor name="top" x="520.1" y="1462"/>
</glyph>
<glyph name="L" format="2">
	<unicode hex="004C"/>
	<advance width="823"/>
	<outline>
		<contour>
			<point x="778.5" y="0" type="line"/>
			<point x="778.5" y="238.2" type="line"/>
			<point x="400.8" y="238.2" type="line"/>
			<point x="400.8" y="1462" type="line"/>
			<point x="128.5" y="1462" type="line"/>
			<point x="128.5" y="0" type="line"/>
		</contour>
	</outline>
	<anchor name="bottom" x="412" y="0"/>
	<anchor name="center" x="412" y="731"/>
	<anchor name="top" x="272" y="1462"/>
	<anchor name="topright" x="833" y="1462"/>
</glyph>
<glyph name="M" format="2">
  <advance width="1606.0"/>
  <unicode hex="004D"/>
  <anchor x="802.3" y="0.0" name="bottom"/>
  <anchor x="802.3" y="1462.0" name="top"/>
  <outline>
    <contour>
      <point x="128.5" y="0.0" type="line"/>
      <point x="381.4" y="0.0" type="line"/>
      <point x="381.4" y="981.7" type="line" smooth="yes"/>
      <point x="381.4" y="1060.7"/>
      <point x="374.9" y="1149.0"/>
      <point x="362.3" y="1244.9" type="curve"/>
      <point x="373.1" y="1244.9" type="line"/>
      <point x="651.5" y="0.0" type="line"/>
      <point x="952.2" y="0.0" type="line"/>
      <point x="1230.0" y="1244.3" type="line"/>
      <point x="1240.8" y="1244.3" type="line"/>
      <point x="1228.2" y="1148.4"/>
      <point x="1221.7" y="1059.5"/>
      <point x="1221.7" y="979.3" type="curve" smooth="yes"/>
      <point x="1221.7" y="0.0" type="line"/>
      <point x="1475.8" y="0.0" type="line"/>
      <point x="1475.8" y="1462.0" type="line"/>
      <point x="1055.6" y="1462.0" type="line"/>
      <point x="861.5" y="566.7" type="line" smooth="yes"/>
      <point x="841.2" y="475.6"/>
      <point x="822.6" y="391.6"/>
      <point x="805.1" y="313.2" type="curve"/>
      <point x="797.1" y="313.2" type="line"/>
      <point x="779.0" y="397.6"/>
      <point x="760.7" y="481.6"/>
      <point x="742.2" y="567.3" type="curve" smooth="yes"/>
      <point x="547.2" y="1462.0" type="line"/>
      <point x="128.5" y="1462.0" type="line"/>
    </contour>
  </outline>
</glyph>
<glyph name="N" format="2">
  <advance width="1282.0"/>
  <unicode hex="004E"/>
  <anchor x="640.9" y="0.0" name="bottom"/>
  <anchor x="640.9" y="1462.0" name="top"/>
  <outline>
    <contour>
      <point x="128.5" y="0.0" type="line"/>
      <point x="380.6" y="0.0" type="line"/>
      <point x="380.6" y="798.4" type="line" smooth="yes"/>
      <point x="380.6" y="891.5"/>
      <point x="373.1" y="977.8"/>
      <point x="356.0" y="1059.0" type="curve"/>
      <point x="369.6" y="1059.0" type="line"/>
      <point x="821.8" y="0.0" type="line"/>
      <point x="1153.3" y="0.0" type="line"/>
      <point x="1153.3" y="1462.0" type="line"/>
      <point x="902.6" y="1462.0" type="line"/>
      <point x="902.6" y="664.0" type="line" smooth="yes"/>
      <point x="902.6" y="566.5"/>
      <point x="908.4" y="483.6"/>
      <point x="921.8" y="413.8" type="curve"/>
      <point x="910.9" y="413.8" type="line"/>
      <point x="462.7" y="1462.0" type="line"/>
      <point x="128.5" y="1462.0" type="line"/>
    </contour>
  </outline>
</glyph>
<glyph name="P" format="2">
  <advance width="981.0"/>
  <unicode hex="0050"/>
  <anchor x="490.7" y="0.0" name="bottom"/>
  <anchor x="490.7" y="1462.0" name="top"/>
  <outline>
    <contour>
      <point x="128.5" y="0.0" type="line"/>
      <point x="400.8" y="0.0" type="line"/>
      <point x="400.8" y="529.8" type="line"/>
      <point x="469.1" y="529.8" type="line" smooth="yes"/>
      <point x="765.3" y="529.8"/>
      <point x="926.0" y="700.4"/>
      <point x="926.0" y="1011.9" type="curve" smooth="yes"/>
      <point x="926.0" y="1312.0"/>
      <point x="784.3" y="1462.0"/>
      <point x="500.0" y="1462.0" type="curve" smooth="yes"/>
      <point x="128.5" y="1462.0" type="line"/>
    </contour>
    <contour>
      <point x="400.8" y="765.4" type="line"/>
      <point x="400.8" y="1227.1" type="line"/>
      <point x="467.1" y="1227.1" type="line" smooth="yes"/>
      <point x="592.5" y="1227.1"/>
      <point x="651.0" y="1154.1"/>
      <point x="651.0" y="1000.7" type="curve" smooth="yes"/>
      <point x="651.0" y="834.6"/>
      <point x="586.4" y="765.4"/>
      <point x="453.3" y="765.4" type="curve" smooth="yes"/>
    </contour>
  </outline>
</glyph>
<glyph name="Q" format="2">
	<unicode hex="0051"/>
	<advance width="1219"/>
	<outline>
		<contour>
			<point x="826.8" y="-348" type="line"/>
			<point x="1140.8" y="-348" type="line"/>
			<point x="871.8" y="51.3" type="line"/>
			<point x="1044.6" y="163.7"/>
			<point x="1134.6" y="397.5"/>
			<point x="1134.6" y="734.4" type="curve" smooth="yes"/>
			<point x="1134.6" y="1216.1"/>
			<point x="948.4" y="1485.1"/>
			<point x="612" y="1485.1" type="curve" smooth="yes"/>
			<point x="269.5" y="1485.1"/>
			<point x="84.4" y="1218.7"/>
			<point x="84.4" y="730.1" type="curve" smooth="yes"/>
			<point x="84.4" y="248.5"/>
			<point x="270" y="-19.3"/>
			<point x="615.3" y="-20" type="curve" smooth="yes"/>
			<point x="621.1" y="-20"/>
			<point x="626.6" y="-19.7"/>
			<point x="632.4" y="-18.8" type="curve"/>
		</contour>
		<contour>
			<point x="611.8" y="221" type="curve" smooth="yes"/>
			<point x="447.2" y="221"/>
			<point x="361.4" y="398.8"/>
			<point x="361.4" y="733.7" type="curve" smooth="yes"/>
			<point x="361.4" y="1069.3"/>
			<point x="447.4" y="1244.8"/>
			<point x="612.7" y="1244.8" type="curve" smooth="yes"/>
			<point x="774.8" y="1244.8"/>
			<point x="856.9" y="1073.6"/>
			<point x="856.9" y="734.4" type="curve" smooth="yes"/>
			<point x="856.9" y="392.7"/>
			<point x="773.9" y="221"/>
		</contour>
	</outline>
	<anchor name="bottom" x="610" y="0"/>
	<anchor name="top" x="610" y="1462"/>
</glyph>
<glyph name="R" format="2">
  <advance width="1024.0"/>
  <unicode hex="0052"/>
  <anchor x="512.0" y="0.0" name="bottom"/>
  <anchor x="512.0" y="1462.0" name="top"/>
  <outline>
    <contour>
      <point x="128.5" y="0.0" type="line"/>
      <point x="400.8" y="0.0" type="line"/>
      <point x="400.8" y="569.0" type="line"/>
      <point x="497.9" y="569.0" type="line"/>
      <point x="728.9" y="0.0" type="line"/>
      <point x="1019.5" y="0.0" type="line"/>
      <point x="738.6" y="641.0" type="line"/>
      <point x="863.5" y="713.7"/>
      <point x="926.0" y="842.7"/>
      <point x="926.0" y="1027.5" type="curve" smooth="yes"/>
      <point x="926.0" y="1320.7"/>
      <point x="786.4" y="1462.0"/>
      <point x="484.6" y="1462.0" type="curve" smooth="yes"/>
      <point x="128.5" y="1462.0" type="line"/>
    </contour>
    <contour>
      <point x="400.8" y="803.2" type="line"/>
      <point x="400.8" y="1226.7" type="line"/>
      <point x="468.5" y="1226.7" type="line" smooth="yes"/>
      <point x="592.7" y="1226.7"/>
      <point x="651.0" y="1168.6"/>
      <point x="651.0" y="1020.0" type="curve" smooth="yes"/>
      <point x="651.0" y="876.1"/>
      <point x="598.6" y="803.2"/>
      <point x="471.3" y="803.2" type="curve" smooth="yes"/>
    </contour>
  </outline>
</glyph>
<glyph name="S" format="2">
  <advance width="846.0"/>
  <unicode hex="0053"/>
  <anchor x="423.2" y="0.0" name="bottom"/>
  <anchor x="423.2" y="1462.0" name="top"/>
  <outline>
    <contour>
      <point x="384.5" y="-20.0" type="curve" smooth="yes"/>
      <point x="657.9" y="-20.0"/>
      <point x="795.2" y="134.2"/>
      <point x="795.2" y="395.6" type="curve" smooth="yes"/>
      <point x="795.2" y="631.0"/>
      <point x="683.5" y="730.3"/>
      <point x="538.9" y="826.9" type="curve" smooth="yes"/>
      <point x="477.6" y="865.9"/>
      <point x="420.6" y="904.9"/>
      <point x="384.4" y="960.6" type="curve" smooth="yes"/>
      <point x="361.7" y="994.7"/>
      <point x="348.3" y="1035.0"/>
      <point x="348.3" y="1084.6" type="curve" smooth="yes"/>
      <point x="348.3" y="1180.5"/>
      <point x="394.8" y="1243.2"/>
      <point x="491.2" y="1243.2" type="curve" smooth="yes"/>
      <point x="568.7" y="1243.2"/>
      <point x="657.2" y="1195.5"/>
      <point x="698.3" y="1171.5" type="curve"/>
      <point x="788.1" y="1388.7" type="line"/>
      <point x="688.4" y="1450.3"/>
      <point x="577.4" y="1483.0"/>
      <point x="468.5" y="1483.0" type="curve" smooth="yes"/>
      <point x="223.1" y="1483.0"/>
      <point x="79.8" y="1329.6"/>
      <point x="79.8" y="1071.3" type="curve" smooth="yes"/>
      <point x="79.8" y="1008.8"/>
      <point x="88.8" y="955.2"/>
      <point x="106.8" y="902.7" type="curve" smooth="yes"/>
      <point x="156.0" y="760.0"/>
      <point x="241.3" y="699.5"/>
      <point x="323.8" y="645.3" type="curve" smooth="yes"/>
      <point x="436.3" y="570.7"/>
      <point x="525.7" y="495.9"/>
      <point x="525.7" y="373.8" type="curve" smooth="yes"/>
      <point x="525.7" y="276.3"/>
      <point x="472.4" y="216.8"/>
      <point x="365.6" y="216.8" type="curve" smooth="yes"/>
      <point x="277.6" y="216.8"/>
      <point x="173.2" y="255.2"/>
      <point x="67.8" y="323.9" type="curve"/>
      <point x="67.8" y="54.8" type="line"/>
      <point x="154.4" y="4.5"/>
      <point x="274.6" y="-20.0"/>
    </contour>
  </outline>
</glyph>
<glyph name="T" format="2">
	<unicode hex="0054"/>
	<advance width="885"/>
	<outline>
		<contour>
			<point x="578" y="1223.1" type="line"/>
			<point x="857.8" y="1223.1" type="line"/>
			<point x="857.8" y="1462" type="line"/>
			<point x="27.3" y="1462" type="line"/>
			<point x="27.3" y="1223.1" type="line"/>
			<point x="307.1" y="1223.1" type="line"/>
			<point x="307.1" y="0" type="line"/>
			<point x="578" y="0" type="line"/>
		</contour>
	</outline>
	<anchor name="bottom" x="438.6" y="0"/>
	<anchor name="center" x="442.8" y="731"/>
	<anchor name="top" x="442.8" y="1462"/>
</glyph>
<glyph name="U" format="2">
  <advance width="1151.0"/>
  <unicode hex="0055"/>
  <anchor x="576.0" y="0.0" name="bottom"/>
  <anchor x="779.0" y="10.0" name="ogonek"/>
  <anchor x="576.0" y="1462.0" name="top"/>
  <anchor x="1131.3" y="1462.0" name="topright"/>
  <outline>
    <contour>
      <point x="568.8" y="-20.0" type="curve" smooth="yes"/>
      <point x="866.4" y="-20.0"/>
      <point x="1027.8" y="168.1"/>
      <point x="1027.8" y="516.3" type="curve" smooth="yes"/>
      <point x="1027.8" y="1462.0" type="line"/>
      <point x="757.6" y="1462.0" type="line"/>
      <point x="757.6" y="493.6" type="line" smooth="yes"/>
      <point x="757.6" y="319.3"/>
      <point x="692.7" y="221.0"/>
      <point x="577.9" y="221.0" type="curve" smooth="yes"/>
      <point x="455.1" y="221.0"/>
      <point x="393.0" y="313.6"/>
      <point x="393.0" y="500.1" type="curve" smooth="yes"/>
      <point x="393.0" y="1462.0" type="line"/>
      <point x="123.2" y="1462.0" type="line"/>
      <point x="123.2" y="519.8" type="line" smooth="yes"/>
      <point x="123.2" y="164.4"/>
      <point x="278.9" y="-20.0"/>
    </contour>
  </outline>
</glyph>
<glyph name="V" format="2">
  <advance width="1032.0"/>
  <unicode hex="0056"/>
  <anchor x="515.5" y="0.0" name="bottom"/>
  <anchor x="515.5" y="1462.0" name="top"/>
  <outline>
    <contour>
      <point x="341.9" y="0.0" type="line"/>
      <point x="688.2" y="0.0" type="line"/>
      <point x="1032.1" y="1462.0" type="line"/>
      <point x="757.5" y="1462.0" type="line"/>
      <point x="569.3" y="569.4" type="line" smooth="yes"/>
      <point x="548.2" y="464.9"/>
      <point x="529.2" y="354.1"/>
      <point x="516.1" y="242.1" type="curve"/>
      <point x="502.0" y="364.6"/>
      <point x="478.9" y="508.7"/>
      <point x="465.3" y="569.1" type="curve" smooth="yes"/>
      <point x="274.2" y="1462.0" type="line"/>
      <point x="0.0" y="1462.0" type="line"/>
    </contour>
  </outline>
</glyph>
<glyph name="X" format="2">
	<unicode hex="0058"/>
	<advance width="969"/>
	<outline>
		<contour>
			<point x="634.8" y="747.7" type="line"/>
			<point x="944.6" y="1462" type="line"/>
			<point x="659.1" y="1462" type="line"/>
			<point x="492.2" y="981.4" type="line"/>
			<point x="299" y="1462" type="line"/>
			<point x="25.2" y="1462" type="line"/>
			<point x="334.4" y="759.2" type="line"/>
			<point x="-0.3" y="0" type="line"/>
			<point x="282.8" y="0" type="line"/>
			<point x="476.6" y="524.3" type="line"/>
			<point x="686.5" y="0" type="line"/>
			<point x="969.1" y="0" type="line"/>
		</contour>
	</outline>
	<anchor name="bottom" x="485.4" y="0"/>
	<anchor name="cyrillicbighook" x="840" y="0"/>
	<anchor name="top" x="485.4" y="1462"/>
</glyph>
<glyph name="Y" format="2">
  <advance width="961.0"/>
  <unicode hex="0059"/>
  <anchor x="481.6" y="0.0" name="bottom"/>
  <anchor x="481.6" y="1462.0" name="top"/>
  <anchor x="20.0" y="1462.0" name="topleft"/>
  <outline>
    <contour>
      <point x="287.4" y="1462.0" type="line"/>
      <point x="0.0" y="1462.0" type="line"/>
      <point x="346.2" y="575.9" type="line"/>
      <point x="346.2" y="0.0" type="line"/>
      <point x="614.3" y="0.0" type="line"/>
      <point x="614.3" y="585.7" type="line"/>
      <point x="961.1" y="1462.0" type="line"/>
      <point x="676.5" y="1462.0" type="line"/>
      <point x="480.5" y="884.8" type="line"/>
    </contour>
  </outline>
</glyph>
<glyph name="Z" format="2">
  <advance width="877.0"/>
  <unicode hex="005A"/>
  <anchor x="439.6" y="0.0" name="bottom"/>
  <anchor x="439.6" y="1462.0" name="top"/>
  <outline>
    <contour>
      <point x="834.4" y="238.2" type="line"/>
      <point x="351.8" y="238.2" type="line"/>
      <point x="819.6" y="1271.9" type="line"/>
      <point x="819.6" y="1462.0" type="line"/>
      <point x="56.7" y="1462.0" type="line"/>
      <point x="56.7" y="1224.6" type="line"/>
      <point x="510.4" y="1224.6" type="line"/>
      <point x="43.0" y="189.5" type="line"/>
      <point x="43.0" y="0.0" type="line"/>
      <point x="834.4" y="0.0" type="line"/>
    </contour>
  </outline>
</glyph>
<glyph name="bracketleft" format="2">
  <advance width="649.0"/>
  <unicode hex="005B"/>
  <note>
bracketleft
</note>
  <outline>
    <contour>
      <point x="132.7" y="-324.0" type="line"/>
      <point x="602.5" y="-324.0" type="line"/>
      <point x="602.5" y="-124.5" type="line"/>
      <point x="379.3" y="-124.5" type="line"/>
      <point x="379.3" y="1263.5" type="line"/>
      <point x="602.5" y="1263.5" type="line"/>
      <point x="602.5" y="1462.0" type="line"/>
      <point x="132.7" y="1462.0" type="line"/>
    </contour>
  </outline>
</glyph>
<glyph name="asciicircum" format="2">
  <advance width="1090.0"/>
  <unicode hex="005E"/>
  <note>
asciicircum
</note>
  <outline>
    <contour>
      <point x="13.9" y="525.6" type="line"/>
      <point x="235.7" y="525.6" type="line"/>
      <point x="524.1" y="1185.6" type="line"/>
      <point x="854.3" y="525.6" type="line"/>
      <point x="1078.8" y="525.6" type="line"/>
      <point x="586.2" y="1470.5" type="line"/>
      <point x="451.3" y="1470.5" type="line"/>
    </contour>
  </outline>
</glyph>
<glyph name="d" format="2">
  <advance width="1016.0"/>
  <unicode hex="0064"/>
  <anchor x="508.6" y="0.0" name="bottom"/>
  <anchor x="508.6" y="557.0" name="center"/>
  <anchor x="508.6" y="1114.4" name="top"/>
  <anchor x="996.2" y="1114.4" name="topright"/>
  <outline>
    <contour>
      <point x="409.3" y="-20.0" type="curve" smooth="yes"/>
      <point x="503.0" y="-20.0"/>
      <point x="592.6" y="25.6"/>
      <point x="653.0" y="144.3" type="curve"/>
      <point x="662.0" y="144.3" type="line"/>
      <point x="707.1" y="0.0" type="line"/>
      <point x="904.8" y="0.0" type="line"/>
      <point x="904.8" y="1556.0" type="line"/>
      <point x="639.0" y="1556.0" type="line"/>
      <point x="639.0" y="1183.8" type="line" smooth="yes"/>
      <point x="639.3" y="1132.6"/>
      <point x="642.7" y="1071.3"/>
      <point x="650.7" y="971.1" type="curve"/>
      <point x="635.0" y="971.1" type="line"/>
      <point x="576.0" y="1082.7"/>
      <point x="504.4" y="1135.4"/>
      <point x="405.3" y="1135.4" type="curve" smooth="yes"/>
      <point x="194.7" y="1135.4"/>
      <point x="73.7" y="916.7"/>
      <point x="73.7" y="558.5" type="curve" smooth="yes"/>
      <point x="73.7" y="191.5"/>
      <point x="199.0" y="-20.0"/>
    </contour>
    <contour>
      <point x="493.0" y="205.1" type="curve" smooth="yes"/>
      <point x="371.2" y="205.1"/>
      <point x="347.7" y="375.1"/>
      <point x="347.7" y="548.8" type="curve" smooth="yes"/>
      <point x="347.7" y="729.0"/>
      <point x="370.7" y="904.7"/>
      <point x="489.7" y="904.7" type="curve" smooth="yes"/>
      <point x="623.0" y="904.7"/>
      <point x="636.2" y="736.4"/>
      <point x="636.2" y="552.9" type="curve" smooth="yes"/>
      <point x="636.2" y="517.5" type="line" smooth="yes"/>
      <point x="636.2" y="356.6"/>
      <point x="613.9" y="205.1"/>
    </contour>
  </outline>
</glyph>
<glyph name="e" format="2">
  <advance width="942.0"/>
  <unicode hex="0065"/>
  <anchor x="507.7" y="0.0" name="bottom"/>
  <anchor x="760.3" y="25.8" name="ogonek"/>
  <anchor x="470.6" y="1114.4" name="top"/>
  <outline>
    <contour>
      <point x="523.7" y="-20.0" type="curve" smooth="yes"/>
      <point x="642.7" y="-20.0"/>
      <point x="745.8" y="6.9"/>
      <point x="830.9" y="56.9" type="curve"/>
      <point x="830.9" y="276.3" type="line"/>
      <point x="739.8" y="222.2"/>
      <point x="652.4" y="194.6"/>
      <point x="565.5" y="194.6" type="curve" smooth="yes"/>
      <point x="428.7" y="194.6"/>
      <point x="347.9" y="290.0"/>
      <point x="344.2" y="489.1" type="curve"/>
      <point x="879.2" y="489.1" type="line"/>
      <point x="879.2" y="631.0" type="line" smooth="yes"/>
      <point x="879.2" y="950.7"/>
      <point x="729.7" y="1135.4"/>
      <point x="486.7" y="1135.4" type="curve" smooth="yes"/>
      <point x="227.2" y="1135.4"/>
      <point x="73.6" y="917.2"/>
      <point x="73.6" y="549.0" type="curve" smooth="yes"/>
      <point x="73.6" y="186.0"/>
      <point x="245.0" y="-20.0"/>
    </contour>
    <contour>
      <point x="348.3" y="682.2" type="line"/>
      <point x="355.7" y="851.5"/>
      <point x="409.2" y="930.4"/>
      <point x="484.9" y="930.4" type="curve" smooth="yes"/>
      <point x="566.2" y="930.4"/>
      <point x="614.8" y="844.9"/>
      <point x="618.3" y="682.2" type="curve"/>
    </contour>
  </outline>
</glyph>
<glyph name="f" format="2">
  <advance width="612.0"/>
  <unicode hex="0066"/>
  <anchor x="306.1" y="0.0" name="bottom"/>
  <anchor x="306.1" y="1114.4" name="top"/>
  <outline>
    <contour>
      <point x="158.0" y="0.0" type="line"/>
      <point x="424.2" y="0.0" type="line"/>
      <point x="424.2" y="903.0" type="line"/>
      <point x="608.2" y="903.0" type="line"/>
      <point x="608.2" y="1114.4" type="line"/>
      <point x="424.2" y="1114.4" type="line"/>
      <point x="424.2" y="1196.3" type="line" smooth="yes"/>
      <point x="424.2" y="1241.8"/>
      <point x="431.0" y="1285.0"/>
      <point x="444.6" y="1304.9" type="curve" smooth="yes"/>
      <point x="452.9" y="1333.1"/>
      <point x="465.4" y="1343.9"/>
      <point x="490.5" y="1343.9" type="curve" smooth="yes"/>
      <point x="541.2" y="1343.9"/>
      <point x="573.2" y="1338.7"/>
      <point x="613.8" y="1318.9" type="curve"/>
      <point x="683.9" y="1521.7" type="line"/>
      <point x="619.3" y="1552.0"/>
      <point x="557.7" y="1567.0"/>
      <point x="477.8" y="1567.0" type="curve" smooth="yes"/>
      <point x="254.5" y="1567.0"/>
      <point x="158.0" y="1444.9"/>
      <point x="158.0" y="1200.4" type="curve" smooth="yes"/>
      <point x="158.0" y="1116.3" type="line"/>
      <point x="29.1" y="1035.4" type="line"/>
      <point x="29.1" y="903.0" type="line"/>
      <point x="158.0" y="903.0" type="line"/>
    </contour>
  </outline>
</glyph>
<glyph name="h" format="2">
	<unicode hex="0068"/>
	<advance width="1038"/>
	<outline>
		<contour>
			<point x="112.8" y="0" type="line"/>
			<point x="379.3" y="0" type="line"/>
			<point x="379.3" y="535.2" type="line" smooth="yes"/>
			<point x="379.3" y="658.1"/>
			<point x="391.6" y="748"/>
			<point x="416.4" y="812.9" type="curve" smooth="yes"/>
			<point x="441.1" y="876.9"/>
			<point x="483.6" y="908.8"/>
			<point x="545.5" y="908.8" type="curve" smooth="yes"/>
			<point x="627.6" y="908.8"/>
			<point x="667.9" y="826.1"/>
			<point x="667.9" y="664.7" type="curve" smooth="yes"/>
			<point x="667.9" y="0" type="line"/>
			<point x="936.2" y="0" type="line"/>
			<point x="936.2" y="727" type="line" smooth="yes"/>
			<point x="936.2" y="991.5"/>
			<point x="833.3" y="1135.4"/>
			<point x="625.9" y="1135.4" type="curve" smooth="yes"/>
			<point x="517.5" y="1135.4"/>
			<point x="434" y="1081"/>
			<point x="380.5" y="971" type="curve"/>
			<point x="366.9" y="971" type="line"/>
			<point x="374.8" y="1086"/>
			<point x="379.3" y="1164.6"/>
			<point x="379.3" y="1209.9" type="curve" smooth="yes"/>
			<point x="379.3" y="1556" type="line"/>
			<point x="112.8" y="1556" type="line"/>
		</contour>
	</outline>
	<anchor name="bottom" x="518.3" y="0"/>
	<anchor name="center" x="518.3" y="557"/>
	<anchor name="top" x="518.3" y="1514.4"/>
</glyph>
<glyph name="p" format="2">
	<unicode hex="0070"/>
	<advance width="1016"/>
	<outline>
		<contour>
			<point x="112.8" y="-492" type="line"/>
			<point x="381.4" y="-492" type="line"/>
			<point x="381.4" y="-36.9" type="line" smooth="yes"/>
			<point x="380.8" y="-11.6"/>
			<point x="376.4" y="35.8"/>
			<point x="365.3" y="126.9" type="curve"/>
			<point x="378.5" y="126.9" type="line"/>
			<point x="439.5" y="22.6"/>
			<point x="513.8" y="-20"/>
			<point x="605.3" y="-20" type="curve" smooth="yes"/>
			<point x="818.3" y="-20"/>
			<point x="941.8" y="198"/>
			<point x="941.8" y="562.5" type="curve" smooth="yes"/>
			<point x="941.8" y="924.6"/>
			<point x="822.5" y="1135.4"/>
			<point x="615.4" y="1135.4" type="curve" smooth="yes"/>
			<point x="515.7" y="1135.4"/>
			<point x="431.5" y="1080.7"/>
			<point x="377.1" y="968.9" type="curve"/>
			<point x="365.3" y="968.9" type="line"/>
			<point x="318.9" y="1114.4" type="line"/>
			<point x="112.8" y="1114.4" type="line"/>
		</contour>
		<contour>
			<point x="526.6" y="208.8" type="curve" smooth="yes"/>
			<point x="404" y="208.8"/>
			<point x="379.3" y="374.6"/>
			<point x="379.3" y="561.5" type="curve" smooth="yes"/>
			<point x="379.3" y="596" type="line" smooth="yes"/>
			<point x="379.3" y="760.2"/>
			<point x="405" y="908.9"/>
			<point x="525.4" y="908.9" type="curve" smooth="yes"/>
			<point x="651.1" y="908.9"/>
			<point x="669.9" y="740.2"/>
			<point x="669.9" y="564.6" type="curve" smooth="yes"/>
			<point x="669.9" y="387.5"/>
			<point x="647.6" y="208.8"/>
		</contour>
	</outline>
	<anchor name="bottom" x="508.6" y="0"/>
	<anchor name="top" x="508.6" y="1114.4"/>
</glyph>
<glyph name="q" format="2">
  <advance width="1016.0"/>
  <unicode hex="0071"/>
  <anchor x="508.6" y="0.0" name="bottom"/>
  <anchor x="508.6" y="1114.4" name="top"/>
  <outline>
    <contour>
      <point x="639.0" y="-492.0" type="line"/>
      <point x="904.8" y="-492.0" type="line"/>
      <point x="904.8" y="1114.4" type="line"/>
      <point x="680.4" y="1114.4" type="line"/>
      <point x="650.7" y="971.5" type="line"/>
      <point x="637.1" y="971.5" type="line"/>
      <point x="579.3" y="1082.5"/>
      <point x="504.9" y="1135.4"/>
      <point x="403.0" y="1135.4" type="curve" smooth="yes"/>
      <point x="194.1" y="1135.4"/>
      <point x="73.7" y="918.4"/>
      <point x="73.7" y="558.5" type="curve" smooth="yes"/>
      <point x="73.7" y="192.1"/>
      <point x="197.3" y="-20.0"/>
      <point x="407.4" y="-20.0" type="curve" smooth="yes"/>
      <point x="514.4" y="-20.0"/>
      <point x="588.3" y="36.9"/>
      <point x="641.1" y="144.7" type="curve"/>
      <point x="650.8" y="144.7" type="line"/>
      <point x="642.7" y="56.8"/>
      <point x="639.0" y="1.0"/>
      <point x="639.0" y="-23.0" type="curve" smooth="yes"/>
    </contour>
    <contour>
      <point x="491.4" y="202.5" type="curve" smooth="yes"/>
      <point x="372.4" y="202.5"/>
      <point x="347.7" y="363.2"/>
      <point x="347.7" y="548.8" type="curve" smooth="yes"/>
      <point x="347.7" y="785.0"/>
      <point x="391.8" y="904.7"/>
      <point x="490.4" y="904.7" type="curve" smooth="yes"/>
      <point x="539.5" y="904.7"/>
      <point x="579.2" y="877.5"/>
      <point x="602.4" y="821.2" type="curve" smooth="yes"/>
      <point x="624.2" y="769.1"/>
      <point x="636.2" y="677.0"/>
      <point x="636.2" y="552.9" type="curve" smooth="yes"/>
      <point x="636.2" y="515.8" type="line" smooth="yes"/>
      <point x="636.2" y="406.1"/>
      <point x="623.7" y="324.5"/>
      <point x="600.4" y="276.2" type="curve" smooth="yes"/>
      <point x="577.9" y="228.9"/>
      <point x="542.2" y="202.5"/>
    </contour>
  </outline>
</glyph>
<glyph name="u" format="2">
  <advance width="1038.0"/>
  <unicode hex="0075"/>
  <anchor x="491.0" y="0.0" name="bottom"/>
  <anchor x="962.0" y="10.0" name="ogonek"/>
  <anchor x="491.0" y="1114.0" name="top"/>
  <anchor x="964.0" y="1114.0" name="topright"/>
  <outline>
    <contour>
      <point x="401.0" y="-20.0" type="curve" smooth="yes"/>
      <point x="530.0" y="-20.0"/>
      <point x="620.0" y="47.0"/>
      <point x="667.0" y="143.0" type="curve"/>
      <point x="682.0" y="143.0" type="line"/>
      <point x="714.0" y="0.0" type="line"/>
      <point x="926.0" y="0.0" type="line"/>
      <point x="926.0" y="1114.0" type="line"/>
      <point x="659.0" y="1114.0" type="line"/>
      <point x="659.0" y="580.0" type="line" smooth="yes"/>
      <point x="659.0" y="444.0"/>
      <point x="645.0" y="346.0"/>
      <point x="619.0" y="290.0" type="curve" smooth="yes"/>
      <point x="592.0" y="230.0"/>
      <point x="545.0" y="204.0"/>
      <point x="492.0" y="204.0" type="curve" smooth="yes"/>
      <point x="406.0" y="204.0"/>
      <point x="370.0" y="288.0"/>
      <point x="370.0" y="451.0" type="curve" smooth="yes"/>
      <point x="370.0" y="1114.0" type="line"/>
      <point x="102.0" y="1114.0" type="line"/>
      <point x="102.0" y="387.0" type="line" smooth="yes"/>
      <point x="102.0" y="113.0"/>
      <point x="208.0" y="-20.0"/>
    </contour>
  </outline>
</glyph>
<glyph name="v" format="2">
	<unicode hex="0076"/>
	<advance width="913"/>
	<outline>
		<contour>
			<point x="291.2" y="0" type="line"/>
			<point x="620.5" y="0" type="line"/>
			<point x="914.6" y="1114.4" type="line"/>
			<point x="638.7" y="1114.4" type="line"/>
			<point x="485.1" y="424.5" type="line" smooth="yes"/>
			<point x="474.4" y="375.9"/>
			<point x="460" y="246.2"/>
			<point x="458.8" y="212.6" type="curve"/>
			<point x="455" y="212.6" type="line"/>
			<point x="449.9" y="264.2"/>
			<point x="431.9" y="408.9"/>
			<point x="418.5" y="468.9" type="curve" smooth="yes"/>
			<point x="275.4" y="1114.4" type="line"/>
			<point x="-0.5" y="1114.4" type="line"/>
		</contour>
	</outline>
	<anchor name="bottom" x="457.2" y="0"/>
	<anchor name="top" x="457.2" y="1114.4"/>
</glyph>
<glyph name="w" format="2">
  <advance width="1479.0"/>
  <unicode hex="0077"/>
  <anchor x="739.5" y="0.0" name="bottom"/>
  <anchor x="739.5" y="1114.7" name="top"/>
  <outline>
    <contour>
      <point x="241.7" y="0.0" type="line"/>
      <point x="584.9" y="0.0" type="line"/>
      <point x="700.1" y="651.7" type="line" smooth="yes"/>
      <point x="713.3" y="727.7"/>
      <point x="718.2" y="761.9"/>
      <point x="735.3" y="920.2" type="curve"/>
      <point x="738.7" y="920.2" type="line"/>
      <point x="751.0" y="828.7"/>
      <point x="764.0" y="737.3"/>
      <point x="777.9" y="646.8" type="curve" smooth="yes"/>
      <point x="889.4" y="0.0" type="line"/>
      <point x="1235.2" y="0.0" type="line"/>
      <point x="1458.2" y="1114.7" type="line"/>
      <point x="1197.6" y="1114.7" type="line"/>
      <point x="1092.3" y="500.4" type="line" smooth="yes"/>
      <point x="1079.2" y="420.7"/>
      <point x="1066.9" y="320.0"/>
      <point x="1056.7" y="200.7" type="curve"/>
      <point x="1053.1" y="200.7" type="line"/>
      <point x="1044.5" y="334.7"/>
      <point x="1029.6" y="447.3"/>
      <point x="1020.6" y="500.2" type="curve" smooth="yes"/>
      <point x="911.2" y="1114.7" type="line"/>
      <point x="568.7" y="1114.7" type="line"/>
      <point x="458.9" y="502.2" type="line" smooth="yes"/>
      <point x="448.0" y="446.6"/>
      <point x="431.8" y="279.9"/>
      <point x="427.9" y="200.7" type="curve"/>
      <point x="421.9" y="200.7" type="line"/>
      <point x="413.1" y="332.0"/>
      <point x="399.3" y="431.5"/>
      <point x="389.3" y="500.2" type="curve" smooth="yes"/>
      <point x="286.9" y="1114.7" type="line"/>
      <point x="20.0" y="1114.7" type="line"/>
    </contour>
  </outline>
</glyph>
<glyph name="x" format="2">
	<unicode hex="0078"/>
	<advance width="889"/>
	<outline>
		<contour>
			<point x="14" y="0" type="line"/>
			<point x="290.5" y="0" type="line"/>
			<point x="438.1" y="356.3" type="line"/>
			<point x="596.3" y="0" type="line"/>
			<point x="874.1" y="0" type="line"/>
			<point x="582.3" y="569.2" type="line"/>
			<point x="862.1" y="1114.4" type="line"/>
			<point x="588.1" y="1114.4" type="line"/>
			<point x="451.3" y="774.5" type="line"/>
			<point x="302.9" y="1114.4" type="line"/>
			<point x="26.3" y="1114.4" type="line"/>
			<point x="304.9" y="569.3" type="line"/>
		</contour>
	</outline>
	<anchor name="bottom" x="445.1" y="0"/>
	<anchor name="cyrillicbighook" x="743" y="0"/>
	<anchor name="top" x="445.1" y="1114.4"/>
</glyph>
<glyph name="y" format="2">
  <advance width="913.0"/>
  <unicode hex="0079"/>
  <anchor x="746.6" y="0.0" name="bottom"/>
  <anchor x="457.2" y="1114.4" name="top"/>
  <outline>
    <contour>
      <point x="179.7" y="-492.0" type="curve" smooth="yes"/>
      <point x="399.6" y="-492.0"/>
      <point x="518.3" y="-367.0"/>
      <point x="595.5" y="-80.4" type="curve" smooth="yes"/>
      <point x="912.5" y="1114.4" type="line"/>
      <point x="633.1" y="1114.4" type="line"/>
      <point x="499.0" y="432.4" type="line" smooth="yes"/>
      <point x="487.5" y="377.6"/>
      <point x="479.5" y="307.8"/>
      <point x="473.3" y="250.6" type="curve"/>
      <point x="467.4" y="250.6" type="line"/>
      <point x="458.1" y="344.8"/>
      <point x="440.7" y="446.0"/>
      <point x="431.0" y="485.0" type="curve" smooth="yes"/>
      <point x="275.4" y="1114.4" type="line"/>
      <point x="-0.5" y="1114.4" type="line"/>
      <point x="330.7" y="-18.3" type="line"/>
      <point x="322.7" y="-50.5"/>
      <point x="318.6" y="-64.9"/>
      <point x="312.1" y="-88.0" type="curve" smooth="yes"/>
      <point x="277.0" y="-201.0"/>
      <point x="232.2" y="-263.7"/>
      <point x="132.1" y="-263.7" type="curve" smooth="yes"/>
      <point x="108.7" y="-263.7"/>
      <point x="71.9" y="-260.1"/>
      <point x="42.8" y="-252.5" type="curve"/>
      <point x="42.8" y="-475.0" type="line"/>
      <point x="83.9" y="-486.0"/>
      <point x="132.2" y="-492.0"/>
    </contour>
  </outline>
</glyph>
<glyph name="z" format="2">
  <advance width="731.0"/>
  <unicode hex="007A"/>
  <anchor x="366.2" y="0.0" name="bottom"/>
  <anchor x="366.2" y="1114.4" name="top"/>
  <outline>
    <contour>
      <point x="690.0" y="214.9" type="line"/>
      <point x="344.1" y="214.9" type="line"/>
      <point x="675.7" y="926.1" type="line"/>
      <point x="675.7" y="1114.4" type="line"/>
      <point x="62.5" y="1114.4" type="line"/>
      <point x="62.5" y="899.5" type="line"/>
      <point x="383.9" y="899.5" type="line"/>
      <point x="40.8" y="170.5" type="line"/>
      <point x="40.8" y="0.0" type="line"/>
      <point x="690.0" y="0.0" type="line"/>
    </contour>
  </outline>
</glyph>
<glyph name="braceleft" format="2">
  <advance width="737.0"/>
  <unicode hex="007B"/>
  <note>
braceleft
</note>
  <outline>
    <contour>
      <point x="703.0" y="-324.0" type="curve"/>
      <point x="703.0" y="-113.0" type="line"/>
      <point x="648.0" y="-111.0"/>
      <point x="610.0" y="-103.0"/>
      <point x="586.0" y="-89.0" type="curve" smooth="yes"/>
      <point x="545.0" y="-67.0"/>
      <point x="528.0" y="-27.0"/>
      <point x="528.0" y="33.0" type="curve" smooth="yes"/>
      <point x="528.0" y="348.0" type="line" smooth="yes"/>
      <point x="528.0" y="469.0"/>
      <point x="451.0" y="540.0"/>
      <point x="298.0" y="563.0" type="curve"/>
      <point x="298.0" y="575.0" type="line"/>
      <point x="447.0" y="597.0"/>
      <point x="528.0" y="673.0"/>
      <point x="528.0" y="802.0" type="curve" smooth="yes"/>
      <point x="528.0" y="1106.0" type="line" smooth="yes"/>
      <point x="528.0" y="1173.0"/>
      <point x="548.0" y="1214.0"/>
      <point x="601.0" y="1235.0" type="curve" smooth="yes"/>
      <point x="625.0" y="1244.0"/>
      <point x="659.0" y="1249.0"/>
      <point x="703.0" y="1251.0" type="curve"/>
      <point x="703.0" y="1462.0" type="line"/>
      <point x="600.0" y="1461.0"/>
      <point x="517.0" y="1453.0"/>
      <point x="457.0" y="1436.0" type="curve" smooth="yes"/>
      <point x="334.0" y="1399.0"/>
      <point x="282.0" y="1320.0"/>
      <point x="282.0" y="1180.0" type="curve" smooth="yes"/>
      <point x="282.0" y="852.0" type="line" smooth="yes"/>
      <point x="282.0" y="809.0"/>
      <point x="270.0" y="774.0"/>
      <point x="248.0" y="749.0" type="curve" smooth="yes"/>
      <point x="204.0" y="698.0"/>
      <point x="125.0" y="680.0"/>
      <point x="25.0" y="680.0" type="curve"/>
      <point x="25.0" y="457.0" type="line"/>
      <point x="111.0" y="457.0"/>
      <point x="180.0" y="443.0"/>
      <point x="220.0" y="412.0" type="curve" smooth="yes"/>
      <point x="261.0" y="384.0"/>
      <point x="282.0" y="339.0"/>
      <point x="282.0" y="276.0" type="curve" smooth="yes"/>
      <point x="282.0" y="-41.0" type="line" smooth="yes"/>
      <point x="282.0" y="-115.0"/>
      <point x="296.0" y="-169.0"/>
      <point x="324.0" y="-209.0" type="curve" smooth="yes"/>
      <point x="380.0" y="-291.0"/>
      <point x="499.0" y="-323.0"/>
    </contour>
  </outline>
</glyph>
<glyph name="bar" format="2">
	<unicode hex="007C"/>
	<advance width="1038"/>
	<outline>
		<contour>
			<point x="415.9" y="-471" type="line"/>
			<point x="622.9" y="-471" type="line"/>
			<point x="622.9" y="1551.1" type="line"/>
			<point x="415.9" y="1551.1" type="line"/>
		</contour>
	</outline>
	<note>
		bar
	</note>
</glyph>
<glyph name="braceright" format="2">
	<unicode hex="007D"/>
	<advance width="737"/>
	<outline>
		<contour>
			<point x="33.3" y="-324" type="line"/>
			<point x="195.7" y="-323.4"/>
			<point x="303.8" y="-303.9"/>
			<point x="369.7" y="-256.1" type="curve" smooth="yes"/>
			<point x="430.2" y="-210.9"/>
			<point x="457" y="-141.4"/>
			<point x="457" y="-41.1" type="curve" smooth="yes"/>
			<point x="457" y="275.6" type="line" smooth="yes"/>
			<point x="457" y="324.7"/>
			<point x="470.3" y="361.7"/>
			<point x="494.5" y="390.4" type="curve" smooth="yes"/>
			<point x="533.4" y="437.3"/>
			<point x="605.5" y="457.3"/>
			<point x="712.3" y="457.3" type="curve"/>
			<point x="712.3" y="680.3" type="line"/>
			<point x="606.2" y="680.3"/>
			<point x="510.9" y="701.1"/>
			<point x="472.8" y="768.6" type="curve" smooth="yes"/>
			<point x="458.2" y="793.8"/>
			<point x="457" y="829.8"/>
			<point x="457" y="851.9" type="curve" smooth="yes"/>
			<point x="457" y="1180.1" type="line" smooth="yes"/>
			<point x="457" y="1292"/>
			<point x="424" y="1365.7"/>
			<point x="345.7" y="1409.2" type="curve" smooth="yes"/>
			<point x="279" y="1446.4"/>
			<point x="178.2" y="1461.4"/>
			<point x="33.3" y="1462" type="curve"/>
			<point x="33.3" y="1251.1" type="line"/>
			<point x="81.9" y="1249.4"/>
			<point x="118.7" y="1243.2"/>
			<point x="144.4" y="1231.8" type="curve" smooth="yes"/>
			<point x="192.6" y="1210.4"/>
			<point x="209.2" y="1170.4"/>
			<point x="209.2" y="1105.7" type="curve" smooth="yes"/>
			<point x="209.2" y="802.3" type="line" smooth="yes"/>
			<point x="209.2" y="678.4"/>
			<point x="280.2" y="600.7"/>
			<point x="441.7" y="575.1" type="curve"/>
			<point x="441.7" y="562.9" type="line"/>
			<point x="289.8" y="540.1"/>
			<point x="209.2" y="465.9"/>
			<point x="209.2" y="344.8" type="curve" smooth="yes"/>
			<point x="209.2" y="33.3" type="line" smooth="yes"/>
			<point x="209.2" y="-14.2"/>
			<point x="199.4" y="-49.3"/>
			<point x="176.3" y="-71.9" type="curve" smooth="yes"/>
			<point x="150.8" y="-97.9"/>
			<point x="107.2" y="-110.7"/>
			<point x="33.3" y="-113.1" type="curve"/>
		</contour>
	</outline>
	<note>
		braceright
	</note>
</glyph>
<glyph name="asciitilde" format="2">
	<unicode hex="007E"/>
	<advance width="918"/>
	<outline>
		<contour>
			<point x="73.7" y="556.4" type="line"/>
			<point x="146.1" y="635.6"/>
			<point x="203.8" y="669.7"/>
			<point x="268.6" y="669.7" type="curve" smooth="yes"/>
			<point x="322.1" y="669.7"/>
			<point x="359.5" y="653.1"/>
			<point x="430.1" y="618.2" type="curve" smooth="yes"/>
			<point x="515.1" y="576.3"/>
			<point x="571.7" y="559.2"/>
			<point x="638.8" y="559.2" type="curve" smooth="yes"/>
			<point x="724.5" y="559.2"/>
			<point x="794.3" y="597"/>
			<point x="843.3" y="660.4" type="curve"/>
			<point x="843.3" y="862" type="line"/>
			<point x="781.7" y="791.9"/>
			<point x="714.3" y="749.5"/>
			<point x="664" y="749.5" type="curve" smooth="yes"/>
			<point x="596.7" y="749.5"/>
			<point x="584.7" y="754.3"/>
			<point x="484.7" y="800.4" type="curve" smooth="yes"/>
			<point x="368.1" y="854.1"/>
			<point x="339.4" y="860.8"/>
			<point x="287.4" y="860.8" type="curve" smooth="yes"/>
			<point x="202.5" y="860.8"/>
			<point x="140.5" y="831.4"/>
			<point x="73.7" y="758.3" type="curve"/>
		</contour>
	</outline>
	<note>
		asciitilde
	</note>
</glyph>
<glyph name="exclamdown" format="2">
	<unicode hex="00A1"/>
	<advance width="555"/>
	<outline>
		<contour>
			<point x="112.3" y="-368.6" type="line"/>
			<point x="435.4" y="-368.6" type="line"/>
			<point x="385" y="621.7" type="line"/>
			<point x="164.1" y="621.7" type="line"/>
		</contour>
		<contour>
			<point x="274.7" y="791.4" type="curve" smooth="yes"/>
			<point x="382.8" y="791.4"/>
			<point x="442.3" y="848.8"/>
			<point x="442.3" y="954.4" type="curve" smooth="yes"/>
			<point x="442.3" y="1057"/>
			<point x="382.8" y="1118.5"/>
			<point x="274.7" y="1118.5" type="curve" smooth="yes"/>
			<point x="173" y="1118.5"/>
			<point x="111.3" y="1058.3"/>
			<point x="111.3" y="954.4" type="curve" smooth="yes"/>
			<point x="111.3" y="848.4"/>
			<point x="170.2" y="791.4"/>
		</contour>
	</outline>
	<note>
		exclamdown
	</note>
</glyph>
<glyph name="sterling" format="2">
  <advance width="948.0"/>
  <unicode hex="00A3"/>
  <note>
sterling
</note>
  <outline>
    <contour>
      <point x="76.0" y="0.0" type="line"/>
      <point x="904.0" y="0.0" type="line"/>
      <point x="904.0" y="242.0" type="line"/>
      <point x="370.0" y="242.0" type="line"/>
      <point x="463.0" y="309.0"/>
      <point x="501.0" y="397.0"/>
      <point x="501.0" y="518.0" type="curve" smooth="yes"/>
      <point x="501.0" y="651.0" type="line"/>
      <point x="742.0" y="651.0" type="line"/>
      <point x="742.0" y="854.0" type="line"/>
      <point x="501.0" y="854.0" type="line"/>
      <point x="501.0" y="1067.0" type="line" smooth="yes"/>
      <point x="501.0" y="1191.0"/>
      <point x="539.0" y="1253.0"/>
      <point x="615.0" y="1253.0" type="curve" smooth="yes"/>
      <point x="676.0" y="1253.0"/>
      <point x="737.0" y="1235.0"/>
      <point x="798.0" y="1200.0" type="curve"/>
      <point x="882.0" y="1412.0" type="line"/>
      <point x="798.0" y="1460.0"/>
      <point x="704.0" y="1483.0"/>
      <point x="599.0" y="1483.0" type="curve" smooth="yes"/>
      <point x="363.0" y="1483.0"/>
      <point x="233.0" y="1337.0"/>
      <point x="233.0" y="1072.0" type="curve" smooth="yes"/>
      <point x="233.0" y="854.0" type="line"/>
      <point x="79.0" y="854.0" type="line"/>
      <point x="79.0" y="651.0" type="line"/>
      <point x="233.0" y="651.0" type="line"/>
      <point x="233.0" y="494.0" type="line" smooth="yes"/>
      <point x="233.0" y="445.0"/>
      <point x="228.0" y="405.0"/>
      <point x="216.0" y="370.0" type="curve" smooth="yes"/>
      <point x="195.0" y="312.0"/>
      <point x="153.0" y="269.0"/>
      <point x="76.0" y="229.0" type="curve"/>
    </contour>
  </outline>
</glyph>
<glyph name="yen" format="2">
	<unicode hex="00A5"/>
	<advance width="948"/>
	<outline>
		<contour>
			<point x="342" y="0" type="line"/>
			<point x="607.4" y="0" type="line"/>
			<point x="607.4" y="228.7" type="line"/>
			<point x="852.2" y="228.7" type="line"/>
			<point x="852.2" y="398.9" type="line"/>
			<point x="607.4" y="398.9" type="line"/>
			<point x="607.4" y="540.8" type="line"/>
			<point x="852.2" y="540.8" type="line"/>
			<point x="852.2" y="711" type="line"/>
			<point x="666.4" y="711" type="line"/>
			<point x="942" y="1462" type="line"/>
			<point x="658.9" y="1462" type="line"/>
			<point x="475.1" y="843.7" type="line"/>
			<point x="289.1" y="1462" type="line"/>
			<point x="5.9" y="1462" type="line"/>
			<point x="282.3" y="711" type="line"/>
			<point x="96.2" y="711" type="line"/>
			<point x="96.2" y="540.8" type="line"/>
			<point x="342" y="540.8" type="line"/>
			<point x="342" y="398.9" type="line"/>
			<point x="96.2" y="398.9" type="line"/>
			<point x="96.2" y="228.7" type="line"/>
			<point x="342" y="228.7" type="line"/>
		</contour>
	</outline>
	<note>
		yen
	</note>
</glyph>
<glyph name="brokenbar" format="2">
  <advance width="1038.0"/>
  <unicode hex="00A6"/>
  <note>
brokenbar
</note>
  <outline>
    <contour>
      <point x="415.9" y="-471.0" type="line"/>
      <point x="622.9" y="-471.0" type="line"/>
      <point x="622.9" y="338.5" type="line"/>
      <point x="415.9" y="338.5" type="line"/>
    </contour>
    <contour>
      <point x="415.9" y="743.3" type="line"/>
      <point x="622.9" y="743.3" type="line"/>
      <point x="622.9" y="1551.1" type="line"/>
      <point x="415.9" y="1551.1" type="line"/>
    </contour>
  </outline>
</glyph>
<glyph name="copyright" format="2">
  <advance width="1688.0"/>
  <unicode hex="00A9"/>
  <note>
copyright
</note>
  <outline>
    <contour>
      <point x="882.5" y="264.3" type="curve" smooth="yes"/>
      <point x="967.5" y="264.3"/>
      <point x="1049.1" y="282.1"/>
      <point x="1125.5" y="318.4" type="curve"/>
      <point x="1125.5" y="500.2" type="line"/>
      <point x="1063.5" y="466.3"/>
      <point x="960.4" y="442.5"/>
      <point x="891.1" y="442.5" type="curve" smooth="yes"/>
      <point x="738.8" y="442.5"/>
      <point x="673.8" y="538.9"/>
      <point x="673.8" y="725.3" type="curve" smooth="yes"/>
      <point x="673.8" y="918.7"/>
      <point x="751.4" y="1017.8"/>
      <point x="892.1" y="1017.8" type="curve" smooth="yes"/>
      <point x="951.7" y="1017.8"/>
      <point x="1026.2" y="998.6"/>
      <point x="1098.2" y="960.9" type="curve"/>
      <point x="1168.8" y="1121.6" type="line"/>
      <point x="1060.4" y="1174.1"/>
      <point x="965.5" y="1196.0"/>
      <point x="871.8" y="1196.0" type="curve" smooth="yes"/>
      <point x="611.9" y="1196.0"/>
      <point x="456.8" y="1024.4"/>
      <point x="456.8" y="734.8" type="curve" smooth="yes"/>
      <point x="456.8" y="436.3"/>
      <point x="612.5" y="264.3"/>
    </contour>
    <contour>
      <point x="846.4" y="-20.0" type="curve" smooth="yes"/>
      <point x="978.4" y="-20.0"/>
      <point x="1104.0" y="12.2"/>
      <point x="1221.7" y="81.2" type="curve" smooth="yes"/>
      <point x="1456.1" y="218.8"/>
      <point x="1594.9" y="462.4"/>
      <point x="1594.9" y="731.7" type="curve" smooth="yes"/>
      <point x="1594.9" y="864.6"/>
      <point x="1561.6" y="994.5"/>
      <point x="1491.1" y="1114.3" type="curve" smooth="yes"/>
      <point x="1351.9" y="1349.4"/>
      <point x="1101.5" y="1483.0"/>
      <point x="841.5" y="1483.0" type="curve" smooth="yes"/>
      <point x="712.1" y="1483.0"/>
      <point x="585.0" y="1450.4"/>
      <point x="466.6" y="1382.0" type="curve" smooth="yes"/>
      <point x="233.6" y="1247.0"/>
      <point x="91.6" y="998.0"/>
      <point x="91.6" y="729.6" type="curve" smooth="yes"/>
      <point x="91.6" y="595.5"/>
      <point x="126.7" y="470.8"/>
      <point x="189.6" y="360.0" type="curve" smooth="yes"/>
      <point x="322.4" y="126.2"/>
      <point x="568.3" y="-20.0"/>
    </contour>
    <contour>
      <point x="843.6" y="115.4" type="curve" smooth="yes"/>
      <point x="730.9" y="115.4"/>
      <point x="626.5" y="144.7"/>
      <point x="536.0" y="196.7" type="curve" smooth="yes"/>
      <point x="344.2" y="306.6"/>
      <point x="227.3" y="512.9"/>
      <point x="227.3" y="733.1" type="curve" smooth="yes"/>
      <point x="227.3" y="839.6"/>
      <point x="254.5" y="943.0"/>
      <point x="310.7" y="1039.7" type="curve" smooth="yes"/>
      <point x="423.4" y="1233.5"/>
      <point x="626.1" y="1347.6"/>
      <point x="845.0" y="1347.6" type="curve" smooth="yes"/>
      <point x="952.0" y="1347.6"/>
      <point x="1056.0" y="1320.8"/>
      <point x="1152.7" y="1264.7" type="curve" smooth="yes"/>
      <point x="1342.7" y="1153.6"/>
      <point x="1459.9" y="953.9"/>
      <point x="1459.9" y="730.3" type="curve" smooth="yes"/>
      <point x="1459.9" y="623.2"/>
      <point x="1433.4" y="517.4"/>
      <point x="1378.6" y="422.0" type="curve" smooth="yes"/>
      <point x="1270.1" y="233.7"/>
      <point x="1068.0" y="115.4"/>
    </contour>
  </outline>
</glyph>
<glyph name="guillemetleft" format="2">
	<unicode hex="00AB"/>
	<advance width="1141"/>
	<outline>
		<contour>
			<point x="382" y="97" type="line"/>
			<point x="581" y="209" type="line"/>
			<point x="360" y="557" type="line"/>
			<point x="581" y="905" type="line"/>
			<point x="382" y="1016" type="line"/>
			<point x="74" y="570" type="line"/>
			<point x="74" y="543" type="line"/>
		</contour>
		<contour>
			<point x="661" y="97" type="line"/>
			<point x="860" y="209" type="line"/>
			<point x="641" y="557" type="line"/>
			<point x="860" y="905" type="line"/>
			<point x="661" y="1016" type="line"/>
			<point x="355" y="570" type="line"/>
			<point x="355" y="543" type="line"/>
		</contour>
	</outline>
	<note>
		guillemotleft
	</note>
</glyph>
<glyph name="logicalnot" format="2">
  <advance width="918.0"/>
  <unicode hex="00AC"/>
  <note>
logicalnot
</note>
  <outline>
    <contour>
      <point x="615.7" y="250.0" type="line"/>
      <point x="810.4" y="250.0" type="line"/>
      <point x="810.4" y="825.6" type="line"/>
      <point x="105.9" y="825.6" type="line"/>
      <point x="105.9" y="617.6" type="line"/>
      <point x="615.7" y="617.6" type="line"/>
    </contour>
  </outline>
</glyph>
<glyph name="registered" format="2">
  <advance width="1688.0"/>
  <unicode hex="00AE"/>
  <note>
registered
</note>
  <outline>
    <contour>
      <point x="846.4" y="-20.0" type="curve" smooth="yes"/>
      <point x="978.4" y="-20.0"/>
      <point x="1104.0" y="12.2"/>
      <point x="1221.7" y="81.2" type="curve" smooth="yes"/>
      <point x="1456.1" y="218.8"/>
      <point x="1594.9" y="462.4"/>
      <point x="1594.9" y="731.7" type="curve" smooth="yes"/>
      <point x="1594.9" y="864.6"/>
      <point x="1561.6" y="994.5"/>
      <point x="1491.1" y="1114.3" type="curve" smooth="yes"/>
      <point x="1351.9" y="1349.4"/>
      <point x="1101.5" y="1483.0"/>
      <point x="841.5" y="1483.0" type="curve" smooth="yes"/>
      <point x="712.1" y="1483.0"/>
      <point x="585.0" y="1450.4"/>
      <point x="466.6" y="1382.0" type="curve" smooth="yes"/>
      <point x="233.6" y="1247.0"/>
      <point x="91.6" y="998.0"/>
      <point x="91.6" y="729.6" type="curve" smooth="yes"/>
      <point x="91.6" y="595.5"/>
      <point x="126.7" y="470.8"/>
      <point x="189.6" y="360.0" type="curve" smooth="yes"/>
      <point x="322.4" y="126.2"/>
      <point x="568.3" y="-20.0"/>
    </contour>
    <contour>
      <point x="843.6" y="115.4" type="curve" smooth="yes"/>
      <point x="730.9" y="115.4"/>
      <point x="626.5" y="144.7"/>
      <point x="536.0" y="196.7" type="curve" smooth="yes"/>
      <point x="344.2" y="306.6"/>
      <point x="227.3" y="512.9"/>
      <point x="227.3" y="733.1" type="curve" smooth="yes"/>
      <point x="227.3" y="839.6"/>
      <point x="254.5" y="943.0"/>
      <point x="310.7" y="1039.7" type="curve" smooth="yes"/>
      <point x="423.4" y="1233.5"/>
      <point x="626.1" y="1347.6"/>
      <point x="845.0" y="1347.6" type="curve" smooth="yes"/>
      <point x="952.0" y="1347.6"/>
      <point x="1056.0" y="1320.8"/>
      <point x="1152.7" y="1264.7" type="curve" smooth="yes"/>
      <point x="1342.7" y="1153.6"/>
      <point x="1459.9" y="953.9"/>
      <point x="1459.9" y="730.3" type="curve" smooth="yes"/>
      <point x="1459.9" y="623.2"/>
      <point x="1433.4" y="517.4"/>
      <point x="1378.6" y="422.0" type="curve" smooth="yes"/>
      <point x="1270.1" y="233.7"/>
      <point x="1068.0" y="115.4"/>
    </contour>
    <contour>
      <point x="542.9" y="273.5" type="line"/>
      <point x="758.7" y="273.5" type="line"/>
      <point x="758.7" y="616.0" type="line"/>
      <point x="815.1" y="616.0" type="line"/>
      <point x="998.9" y="273.5" type="line"/>
      <point x="1236.8" y="273.5" type="line"/>
      <point x="998.9" y="673.1" type="line"/>
      <point x="1099.0" y="717.5"/>
      <point x="1146.6" y="789.1"/>
      <point x="1146.6" y="912.4" type="curve" smooth="yes"/>
      <point x="1146.6" y="1098.4"/>
      <point x="1037.3" y="1185.7"/>
      <point x="800.8" y="1185.7" type="curve" smooth="yes"/>
      <point x="542.9" y="1185.7" type="line"/>
    </contour>
    <contour>
      <point x="758.7" y="775.8" type="line"/>
      <point x="758.7" y="1023.4" type="line"/>
      <point x="795.2" y="1023.4" type="line" smooth="yes"/>
      <point x="888.4" y="1023.4"/>
      <point x="929.9" y="995.8"/>
      <point x="929.9" y="901.1" type="curve" smooth="yes"/>
      <point x="929.9" y="812.2"/>
      <point x="890.9" y="775.8"/>
      <point x="797.2" y="775.8" type="curve" smooth="yes"/>
    </contour>
  </outline>
</glyph>
<glyph name="degree" format="2">
  <advance width="831.0"/>
  <unicode hex="00B0"/>
  <note>
degree
</note>
  <outline>
    <contour>
      <point x="415.6" y="805.2" type="curve" smooth="yes"/>
      <point x="604.6" y="805.2"/>
      <point x="756.6" y="954.8"/>
      <point x="756.6" y="1142.7" type="curve" smooth="yes"/>
      <point x="756.6" y="1329.9"/>
      <point x="600.4" y="1483.0"/>
      <point x="415.6" y="1483.0" type="curve" smooth="yes"/>
      <point x="226.6" y="1483.0"/>
      <point x="76.0" y="1327.8"/>
      <point x="76.0" y="1142.7" type="curve" smooth="yes"/>
      <point x="76.0" y="954.5"/>
      <point x="224.4" y="805.2"/>
    </contour>
    <contour>
      <point x="415.6" y="981.0" type="curve" smooth="yes"/>
      <point x="328.3" y="981.0"/>
      <point x="252.1" y="1053.9"/>
      <point x="252.1" y="1142.7" type="curve" smooth="yes"/>
      <point x="252.1" y="1231.6"/>
      <point x="327.1" y="1306.5"/>
      <point x="415.6" y="1306.5" type="curve" smooth="yes"/>
      <point x="504.5" y="1306.5"/>
      <point x="578.4" y="1233.5"/>
      <point x="578.4" y="1142.7" type="curve" smooth="yes"/>
      <point x="578.4" y="1053.7"/>
      <point x="503.3" y="981.0"/>
    </contour>
  </outline>
</glyph>
<glyph name="paragraph" format="2">
  <advance width="1083.0"/>
  <unicode hex="00B6"/>
  <note>
paragraph
</note>
  <outline>
    <contour>
      <point x="478.8" y="-260.0" type="line"/>
      <point x="632.3" y="-260.0" type="line"/>
      <point x="632.3" y="1364.1" type="line"/>
      <point x="795.1" y="1364.1" type="line"/>
      <point x="795.1" y="-260.0" type="line"/>
      <point x="947.9" y="-260.0" type="line"/>
      <point x="947.9" y="1556.0" type="line"/>
      <point x="399.3" y="1556.0" type="line" smooth="yes"/>
      <point x="165.6" y="1556.0"/>
      <point x="63.2" y="1384.8"/>
      <point x="63.2" y="1042.0" type="curve" smooth="yes"/>
      <point x="63.2" y="758.9"/>
      <point x="135.7" y="541.0"/>
      <point x="373.4" y="541.0" type="curve" smooth="yes"/>
      <point x="414.1" y="541.0"/>
      <point x="449.0" y="547.0"/>
      <point x="478.8" y="559.0" type="curve"/>
    </contour>
  </outline>
</glyph>
<glyph name="periodcentered" format="2">
  <advance width="553.0"/>
  <unicode hex="00B7"/>
  <note>
periodcentered
</note>
  <outline>
    <contour>
      <point x="276.1" y="558.7" type="curve" smooth="yes"/>
      <point x="381.4" y="558.7"/>
      <point x="442.3" y="619.1"/>
      <point x="442.3" y="723.1" type="curve" smooth="yes"/>
      <point x="442.3" y="827.7"/>
      <point x="384.8" y="886.5"/>
      <point x="276.1" y="886.5" type="curve" smooth="yes"/>
      <point x="167.4" y="886.5"/>
      <point x="110.6" y="827.0"/>
      <point x="110.6" y="723.1" type="curve" smooth="yes"/>
      <point x="110.6" y="619.9"/>
      <point x="168.1" y="558.7"/>
    </contour>
  </outline>
</glyph>
<glyph name="onesuperior" format="2">
  <advance width="688.0"/>
  <unicode hex="00B9"/>
  <note>
onesuperior
</note>
  <outline>
    <contour>
      <point x="304.0" y="586.0" type="line"/>
      <point x="501.0" y="586.0" type="line"/>
      <point x="501.0" y="1462.0" type="line"/>
      <point x="340.0" y="1462.0" type="line"/>
      <point x="66.0" y="1235.0" type="line"/>
      <point x="159.0" y="1118.0" type="line"/>
      <point x="211.0" y="1162.0"/>
      <point x="242.0" y="1189.0"/>
      <point x="264.0" y="1210.0" type="curve" smooth="yes"/>
      <point x="279.0" y="1223.0"/>
      <point x="294.0" y="1238.0"/>
      <point x="312.0" y="1255.0" type="curve"/>
      <point x="308.0" y="1210.0"/>
      <point x="304.0" y="1117.0"/>
      <point x="304.0" y="1047.0" type="curve" smooth="yes"/>
    </contour>
  </outline>
</glyph>
<glyph name="ordmasculine" format="2">
	<unicode hex="00BA"/>
	<advance width="686"/>
	<outline>
		<contour>
			<point x="625.3" y="1119.9" type="curve" smooth="yes"/>
			<point x="625.3" y="1340.9"/>
			<point x="515.2" y="1479"/>
			<point x="343.9" y="1479" type="curve" smooth="yes"/>
			<point x="167.4" y="1479"/>
			<point x="60.9" y="1346.9"/>
			<point x="60.9" y="1119.9" type="curve" smooth="yes"/>
			<point x="60.9" y="899.9"/>
			<point x="169.5" y="758.1"/>
			<point x="342.5" y="758.1" type="curve" smooth="yes"/>
			<point x="517.1" y="758.1"/>
			<point x="625.3" y="891.5"/>
		</contour>
		<contour>
			<point x="233.5" y="1119.9" type="curve" smooth="yes"/>
			<point x="233.5" y="1260.9"/>
			<point x="268.1" y="1325.2"/>
			<point x="344" y="1325.2" type="curve" smooth="yes"/>
			<point x="420.3" y="1325.2"/>
			<point x="452.7" y="1260.8"/>
			<point x="452.7" y="1119.9" type="curve" smooth="yes"/>
			<point x="452.7" y="979"/>
			<point x="420.1" y="911.2"/>
			<point x="344" y="911.2" type="curve" smooth="yes"/>
			<point x="268.3" y="911.2"/>
			<point x="233.5" y="979"/>
		</contour>
	</outline>
	<note>
		ordmasculine
	</note>
</glyph>
<glyph name="guillemetright" format="2">
	<unicode hex="00BB"/>
	<advance width="1141"/>
	<outline>
		<contour>
			<point x="273" y="97" type="line"/>
			<point x="581" y="543" type="line"/>
			<point x="581" y="570" type="line"/>
			<point x="273" y="1016" type="line"/>
			<point x="74" y="905" type="line"/>
			<point x="294" y="557" type="line"/>
			<point x="74" y="209" type="line"/>
		</contour>
		<contour>
			<point x="553" y="97" type="line"/>
			<point x="860" y="543" type="line"/>
			<point x="860" y="570" type="line"/>
			<point x="553" y="1016" type="line"/>
			<point x="355" y="905" type="line"/>
			<point x="573" y="557" type="line"/>
			<point x="355" y="209" type="line"/>
		</contour>
	</outline>
	<note>
		guillemotright
	</note>
</glyph>
<glyph name="AE" format="2">
  <advance width="1425.0"/>
  <unicode hex="00C6"/>
  <note>
AE
</note>
  <anchor x="712.8" y="0.0" name="bottom"/>
  <anchor x="888.2" y="1462.0" name="top"/>
  <outline>
    <contour>
      <point x="1339.2" y="238.2" type="line"/>
      <point x="956.2" y="238.2" type="line"/>
      <point x="956.2" y="642.7" type="line"/>
      <point x="1310.7" y="642.7" type="line"/>
      <point x="1310.7" y="878.8" type="line"/>
      <point x="956.2" y="878.8" type="line"/>
      <point x="956.2" y="1226.7" type="line"/>
      <point x="1339.2" y="1226.7" type="line"/>
      <point x="1339.2" y="1462.0" type="line"/>
      <point x="472.5" y="1462.0" type="line"/>
      <point x="0.0" y="0.0" type="line"/>
      <point x="272.0" y="0.0" type="line"/>
      <point x="385.5" y="369.7" type="line"/>
      <point x="683.6" y="369.7" type="line"/>
      <point x="683.6" y="0.0" type="line"/>
      <point x="1339.2" y="0.0" type="line"/>
    </contour>
    <contour>
      <point x="683.6" y="1227.5" type="line"/>
      <point x="683.6" y="609.4" type="line"/>
      <point x="460.8" y="609.4" type="line"/>
      <point x="644.4" y="1227.5" type="line"/>
    </contour>
  </outline>
</glyph>
<glyph name="Eth" format="2">
  <advance width="1143.0"/>
  <unicode hex="00D0"/>
  <note>
Eth
</note>
  <outline>
    <contour>
      <point x="130.0" y="0.0" type="line"/>
      <point x="488.0" y="0.0" type="line" smooth="yes"/>
      <point x="858.0" y="0.0"/>
      <point x="1060.0" y="262.0"/>
      <point x="1060.0" y="745.0" type="curve" smooth="yes"/>
      <point x="1060.0" y="1197.0"/>
      <point x="861.0" y="1462.0"/>
      <point x="522.0" y="1462.0" type="curve" smooth="yes"/>
      <point x="130.0" y="1462.0" type="line"/>
      <point x="130.0" y="842.0" type="line"/>
      <point x="0.0" y="842.0" type="line"/>
      <point x="0.0" y="604.0" type="line"/>
      <point x="130.0" y="604.0" type="line"/>
    </contour>
    <contour>
      <point x="402.0" y="238.0" type="line"/>
      <point x="402.0" y="604.0" type="line"/>
      <point x="585.0" y="604.0" type="line"/>
      <point x="585.0" y="842.0" type="line"/>
      <point x="402.0" y="842.0" type="line"/>
      <point x="402.0" y="1227.0" type="line"/>
      <point x="511.0" y="1227.0" type="line" smooth="yes"/>
      <point x="691.0" y="1227.0"/>
      <point x="781.0" y="1064.0"/>
      <point x="781.0" y="737.0" type="curve" smooth="yes"/>
      <point x="781.0" y="404.0"/>
      <point x="689.0" y="238.0"/>
      <point x="490.0" y="238.0" type="curve" smooth="yes"/>
    </contour>
  </outline>
</glyph>
<glyph name="multiply" format="2">
  <advance width="918.0"/>
  <unicode hex="00D7"/>
  <note>
multiply
</note>
  <outline>
    <contour>
      <point x="497.0" y="275.0" type="line"/>
      <point x="718.0" y="459.0" type="line"/>
      <point x="646.0" y="619.0" type="line"/>
      <point x="820.0" y="878.0" type="line"/>
      <point x="600.0" y="1060.0" type="line"/>
      <point x="562.0" y="954.0" type="line"/>
      <point x="417.0" y="1166.0" type="line"/>
      <point x="196.0" y="984.0" type="line"/>
      <point x="268.0" y="827.0" type="line"/>
      <point x="92.0" y="563.0" type="line"/>
      <point x="313.0" y="381.0" type="line"/>
      <point x="352.0" y="495.0" type="line"/>
    </contour>
  </outline>
</glyph>
<glyph name="Oslash" format="2">
  <advance width="1219.0"/>
  <unicode hex="00D8"/>
  <note>
Oslash
</note>
  <anchor x="610.0" y="0.0" name="bottom"/>
  <anchor x="610.0" y="1462.0" name="top"/>
  <outline>
    <contour>
      <point x="299.1" y="-102.4" type="line"/>
      <point x="369.3" y="37.3" type="line"/>
      <point x="440.1" y="-1.6"/>
      <point x="519.4" y="-20.0"/>
      <point x="609.7" y="-20.0" type="curve" smooth="yes"/>
      <point x="947.1" y="-20.0"/>
      <point x="1134.6" y="249.0"/>
      <point x="1134.6" y="733.0" type="curve" smooth="yes"/>
      <point x="1134.6" y="973.7"/>
      <point x="1089.6" y="1158.1"/>
      <point x="1001.4" y="1285.8" type="curve"/>
      <point x="1102.0" y="1482.8" type="line"/>
      <point x="936.0" y="1559.5" type="line"/>
      <point x="863.8" y="1417.1" type="line"/>
      <point x="787.2" y="1462.1"/>
      <point x="702.8" y="1485.1"/>
      <point x="612.0" y="1485.1" type="curve" smooth="yes"/>
      <point x="271.6" y="1485.1"/>
      <point x="84.4" y="1218.7"/>
      <point x="84.4" y="735.0" type="curve" smooth="yes"/>
      <point x="84.4" y="482.1"/>
      <point x="132.0" y="290.8"/>
      <point x="229.0" y="161.8" type="curve"/>
      <point x="133.1" y="-24.8" type="line"/>
    </contour>
    <contour>
      <point x="383.3" y="467.3" type="line"/>
      <point x="368.8" y="539.4"/>
      <point x="361.4" y="627.6"/>
      <point x="361.4" y="733.0" type="curve" smooth="yes"/>
      <point x="361.4" y="1068.6"/>
      <point x="447.4" y="1244.8"/>
      <point x="612.0" y="1244.8" type="curve" smooth="yes"/>
      <point x="671.3" y="1244.8"/>
      <point x="719.8" y="1228.9"/>
      <point x="753.9" y="1195.7" type="curve"/>
    </contour>
    <contour>
      <point x="609.7" y="221.0" type="curve" smooth="yes"/>
      <point x="555.7" y="221.0"/>
      <point x="513.0" y="234.1"/>
      <point x="480.9" y="260.0" type="curve"/>
      <point x="844.3" y="969.3" type="line"/>
      <point x="852.8" y="913.4"/>
      <point x="856.9" y="834.2"/>
      <point x="856.9" y="733.0" type="curve" smooth="yes"/>
      <point x="856.9" y="392.0"/>
      <point x="773.9" y="221.0"/>
    </contour>
  </outline>
</glyph>
<glyph name="Thorn" format="2">
	<unicode hex="00DE"/>
	<advance width="981"/>
	<outline>
		<contour>
			<point x="128.5" y="0" type="line"/>
			<point x="400.8" y="0" type="line"/>
			<point x="400.8" y="295.5" type="line"/>
			<point x="468.6" y="295.5" type="line" smooth="yes"/>
			<point x="766.2" y="295.5"/>
			<point x="926" y="466.5"/>
			<point x="926" y="777.7" type="curve" smooth="yes"/>
			<point x="926" y="1078.7"/>
			<point x="783.6" y="1229.1"/>
			<point x="498.6" y="1229.1" type="curve" smooth="yes"/>
			<point x="400.8" y="1229.1" type="line"/>
			<point x="400.8" y="1462" type="line"/>
			<point x="128.5" y="1462" type="line"/>
		</contour>
		<contour>
			<point x="400.8" y="529.5" type="line"/>
			<point x="400.8" y="995.2" type="line"/>
			<point x="468.5" y="995.2" type="line" smooth="yes"/>
			<point x="590.7" y="995.2"/>
			<point x="651" y="919.7"/>
			<point x="651" y="767.1" type="curve" smooth="yes"/>
			<point x="651" y="599.8"/>
			<point x="585.8" y="529.5"/>
			<point x="453.3" y="529.5" type="curve" smooth="yes"/>
		</contour>
	</outline>
	<anchor name="bottom" x="490.7" y="0"/>
	<anchor name="top" x="490.7" y="1462"/>
	<note>
		Thorn
	</note>
</glyph>
<glyph name="germandbls" format="2">
  <advance width="1108.0"/>
  <unicode hex="00DF"/>
  <note>
germandbls
</note>
  <anchor x="554.1" y="0.0" name="bottom"/>
  <anchor x="554.1" y="1114.4" name="top"/>
  <outline>
    <contour>
      <point x="681.8" y="-20.0" type="curve" smooth="yes"/>
      <point x="926.1" y="-20.0"/>
      <point x="1064.9" y="116.5"/>
      <point x="1064.9" y="332.2" type="curve" smooth="yes"/>
      <point x="1064.9" y="390.1"/>
      <point x="1060.4" y="441.1"/>
      <point x="1044.0" y="488.4" type="curve" smooth="yes"/>
      <point x="1022.1" y="550.5"/>
      <point x="981.5" y="605.1"/>
      <point x="903.2" y="652.6" type="curve" smooth="yes"/>
      <point x="874.9" y="671.6"/>
      <point x="847.8" y="692.1"/>
      <point x="832.3" y="701.6" type="curve" smooth="yes"/>
      <point x="762.5" y="758.1"/>
      <point x="743.0" y="784.3"/>
      <point x="743.0" y="822.1" type="curve" smooth="yes"/>
      <point x="743.0" y="866.4"/>
      <point x="763.9" y="894.8"/>
      <point x="836.1" y="958.2" type="curve" smooth="yes"/>
      <point x="865.7" y="985.8"/>
      <point x="888.6" y="1007.6"/>
      <point x="908.3" y="1039.4" type="curve" smooth="yes"/>
      <point x="945.0" y="1088.5"/>
      <point x="963.5" y="1147.0"/>
      <point x="963.5" y="1246.9" type="curve" smooth="yes"/>
      <point x="963.5" y="1447.5"/>
      <point x="806.2" y="1567.0"/>
      <point x="541.3" y="1567.0" type="curve" smooth="yes"/>
      <point x="269.8" y="1567.0"/>
      <point x="112.8" y="1419.7"/>
      <point x="112.8" y="1150.8" type="curve" smooth="yes"/>
      <point x="112.8" y="0.0" type="line"/>
      <point x="379.3" y="0.0" type="line"/>
      <point x="379.3" y="1143.3" type="line" smooth="yes"/>
      <point x="379.3" y="1277.2"/>
      <point x="433.6" y="1346.1"/>
      <point x="540.5" y="1346.1" type="curve" smooth="yes"/>
      <point x="640.4" y="1346.1"/>
      <point x="692.5" y="1291.4"/>
      <point x="692.5" y="1202.2" type="curve" smooth="yes"/>
      <point x="692.5" y="1143.8"/>
      <point x="668.9" y="1092.1"/>
      <point x="588.8" y="1017.1" type="curve" smooth="yes"/>
      <point x="513.1" y="943.9"/>
      <point x="485.1" y="873.4"/>
      <point x="485.1" y="801.3" type="curve" smooth="yes"/>
      <point x="485.1" y="693.4"/>
      <point x="530.0" y="617.1"/>
      <point x="652.0" y="523.1" type="curve" smooth="yes"/>
      <point x="773.8" y="425.7"/>
      <point x="793.6" y="379.4"/>
      <point x="793.6" y="312.9" type="curve" smooth="yes"/>
      <point x="793.6" y="231.1"/>
      <point x="747.1" y="188.3"/>
      <point x="659.9" y="188.3" type="curve" smooth="yes"/>
      <point x="589.4" y="188.3"/>
      <point x="521.5" y="210.6"/>
      <point x="450.7" y="257.6" type="curve"/>
      <point x="450.7" y="33.0" type="line"/>
      <point x="512.0" y="-2.0"/>
      <point x="588.3" y="-20.0"/>
    </contour>
  </outline>
</glyph>
<glyph name="oslash" format="2">
  <advance width="1012.0"/>
  <unicode hex="00F8"/>
  <note>
oslash
</note>
  <anchor x="505.5" y="1114.4" name="top"/>
  <outline>
    <contour>
      <point x="281.6" y="-96.1" type="line"/>
      <point x="338.1" y="16.1" type="line"/>
      <point x="386.5" y="-8.2"/>
      <point x="443.6" y="-20.0"/>
      <point x="503.2" y="-20.0" type="curve" smooth="yes"/>
      <point x="772.8" y="-20.0"/>
      <point x="937.3" y="191.9"/>
      <point x="937.3" y="561.1" type="curve" smooth="yes"/>
      <point x="937.3" y="736.6"/>
      <point x="899.7" y="876.0"/>
      <point x="822.8" y="975.0" type="curve"/>
      <point x="894.7" y="1116.1" type="line"/>
      <point x="735.7" y="1190.0" type="line"/>
      <point x="684.6" y="1094.2" type="line"/>
      <point x="633.7" y="1119.0"/>
      <point x="574.7" y="1135.4"/>
      <point x="506.5" y="1135.4" type="curve" smooth="yes"/>
      <point x="237.2" y="1135.4"/>
      <point x="73.7" y="921.1"/>
      <point x="73.7" y="560.4" type="curve" smooth="yes"/>
      <point x="73.7" y="365.5"/>
      <point x="123.7" y="224.1"/>
      <point x="197.5" y="131.3" type="curve"/>
      <point x="119.1" y="-20.1" type="line"/>
    </contour>
    <contour>
      <point x="505.9" y="206.5" type="curve" smooth="yes"/>
      <point x="480.9" y="206.5"/>
      <point x="459.1" y="213.1"/>
      <point x="441.9" y="226.6" type="curve"/>
      <point x="667.0" y="666.6" type="line"/>
      <point x="673.3" y="638.9"/>
      <point x="676.6" y="604.1"/>
      <point x="676.6" y="561.1" type="curve"/>
      <point x="676.6" y="315.5"/>
      <point x="617.5" y="206.5"/>
    </contour>
    <contour>
      <point x="349.3" y="433.3" type="line"/>
      <point x="341.8" y="467.0"/>
      <point x="337.9" y="508.7"/>
      <point x="337.9" y="560.4" type="curve"/>
      <point x="337.9" y="760.0"/>
      <point x="368.8" y="906.8"/>
      <point x="505.9" y="906.8" type="curve" smooth="yes"/>
      <point x="534.5" y="906.8"/>
      <point x="558.5" y="898.1"/>
      <point x="578.7" y="881.0" type="curve"/>
    </contour>
  </outline>
</glyph>
<glyph name="thorn" format="2">
	<unicode hex="00FE"/>
	<advance width="1016"/>
	<outline>
		<contour>
			<point x="112.8" y="-492" type="line"/>
			<point x="380.5" y="-492" type="line"/>
			<point x="380.5" y="-36.9" type="line" smooth="yes"/>
			<point x="380.5" y="-6.7"/>
			<point x="378.3" y="19"/>
			<point x="365.3" y="126.9" type="curve"/>
			<point x="379.3" y="126.9" type="line"/>
			<point x="441.8" y="18.3"/>
			<point x="515" y="-20"/>
			<point x="608.1" y="-20" type="curve" smooth="yes"/>
			<point x="816.2" y="-20"/>
			<point x="941.8" y="200.1"/>
			<point x="941.8" y="554.8" type="curve" smooth="yes"/>
			<point x="941.8" y="926"/>
			<point x="822.5" y="1135.4"/>
			<point x="617.5" y="1135.4" type="curve" smooth="yes"/>
			<point x="512.2" y="1135.4"/>
			<point x="441.1" y="1088.1"/>
			<point x="379.3" y="968.9" type="curve"/>
			<point x="365.5" y="968.9" type="line"/>
			<point x="373.1" y="1060.8"/>
			<point x="379.3" y="1144.6"/>
			<point x="379.3" y="1192.4" type="curve" smooth="yes"/>
			<point x="379.3" y="1556" type="line"/>
			<point x="112.8" y="1556" type="line"/>
		</contour>
		<contour>
			<point x="521" y="183.6" type="curve" smooth="yes"/>
			<point x="403.4" y="183.6"/>
			<point x="379.3" y="326.5"/>
			<point x="379.3" y="540.5" type="curve" smooth="yes"/>
			<point x="379.3" y="596" type="line" smooth="yes"/>
			<point x="379.3" y="772.1"/>
			<point x="399.4" y="908.9"/>
			<point x="529.6" y="908.9" type="curve" smooth="yes"/>
			<point x="647.6" y="908.9"/>
			<point x="669.3" y="731.3"/>
			<point x="669.3" y="561.8" type="curve" smooth="yes"/>
			<point x="669.3" y="279.8"/>
			<point x="607.7" y="183.6"/>
		</contour>
	</outline>
	<anchor name="bottom" x="508.6" y="0"/>
	<anchor name="top" x="508.6" y="1114.4"/>
	<note>
		thorn
	</note>
</glyph>
<glyph name="dcroat" format="2">
  <advance width="1016.0"/>
  <unicode hex="0111"/>
  <note>
dcroat
</note>
  <outline>
    <contour>
      <point x="407.9" y="-20.0" type="curve" smooth="yes"/>
      <point x="511.8" y="-20.0"/>
      <point x="595.3" y="33.1"/>
      <point x="653.1" y="144.9" type="curve"/>
      <point x="664.6" y="144.9" type="line"/>
      <point x="707.1" y="0.0" type="line"/>
      <point x="904.8" y="0.0" type="line"/>
      <point x="904.8" y="1203.8" type="line"/>
      <point x="1028.4" y="1203.8" type="line"/>
      <point x="1028.4" y="1391.5" type="line"/>
      <point x="904.8" y="1391.5" type="line"/>
      <point x="904.8" y="1556.0" type="line"/>
      <point x="639.0" y="1556.0" type="line"/>
      <point x="639.0" y="1391.5" type="line"/>
      <point x="399.4" y="1391.5" type="line"/>
      <point x="399.4" y="1203.8" type="line"/>
      <point x="639.0" y="1203.8" type="line"/>
      <point x="639.0" y="1137.6" type="line" smooth="yes"/>
      <point x="639.3" y="1091.7"/>
      <point x="644.1" y="1005.2"/>
      <point x="650.7" y="922.2" type="curve"/>
      <point x="635.0" y="922.2" type="line"/>
      <point x="576.0" y="1035.9"/>
      <point x="503.0" y="1085.0"/>
      <point x="406.0" y="1085.0" type="curve" smooth="yes"/>
      <point x="194.7" y="1085.0"/>
      <point x="73.7" y="875.4"/>
      <point x="73.7" y="532.6" type="curve" smooth="yes"/>
      <point x="73.7" y="178.9"/>
      <point x="201.1" y="-20.0"/>
    </contour>
    <contour>
      <point x="494.4" y="205.1" type="curve" smooth="yes"/>
      <point x="369.5" y="205.1"/>
      <point x="346.3" y="356.2"/>
      <point x="346.3" y="527.8" type="curve" smooth="yes"/>
      <point x="346.3" y="743.0"/>
      <point x="392.5" y="856.4"/>
      <point x="491.8" y="856.4" type="curve" smooth="yes"/>
      <point x="620.6" y="856.4"/>
      <point x="636.2" y="715.4"/>
      <point x="636.2" y="549.4" type="curve" smooth="yes"/>
      <point x="636.2" y="519.9" type="line" smooth="yes"/>
      <point x="636.2" y="314.1"/>
      <point x="601.3" y="205.1"/>
    </contour>
  </outline>
</glyph>
<glyph name="Hbar" format="2">
  <advance width="1161.0"/>
  <unicode hex="0126"/>
  <note>
Hbar
</note>
  <outline>
    <contour>
      <point x="1031.9" y="1462.0" type="line"/>
      <point x="759.6" y="1462.0" type="line"/>
      <point x="759.6" y="1257.5" type="line"/>
      <point x="400.8" y="1257.5" type="line"/>
      <point x="400.8" y="1462.0" type="line"/>
      <point x="128.5" y="1462.0" type="line"/>
      <point x="128.5" y="1257.5" type="line"/>
      <point x="-11.9" y="1257.5" type="line"/>
      <point x="-11.9" y="1068.8" type="line"/>
      <point x="128.5" y="1068.8" type="line"/>
      <point x="128.5" y="0.0" type="line"/>
      <point x="400.8" y="0.0" type="line"/>
      <point x="400.8" y="640.7" type="line"/>
      <point x="759.6" y="640.7" type="line"/>
      <point x="759.6" y="0.0" type="line"/>
      <point x="1031.9" y="0.0" type="line"/>
      <point x="1031.9" y="1068.8" type="line"/>
      <point x="1173.7" y="1068.8" type="line"/>
      <point x="1173.7" y="1257.5" type="line"/>
      <point x="1031.9" y="1257.5" type="line"/>
    </contour>
    <contour>
      <point x="400.8" y="880.8" type="line"/>
      <point x="400.8" y="1068.8" type="line"/>
      <point x="759.6" y="1068.8" type="line"/>
      <point x="759.6" y="880.8" type="line"/>
    </contour>
  </outline>
</glyph>
<glyph name="hbar" format="2">
  <advance width="1038.0"/>
  <unicode hex="0127"/>
  <note>
hbar
</note>
  <outline>
    <contour>
      <point x="112.0" y="0.0" type="line"/>
      <point x="378.0" y="0.0" type="line"/>
      <point x="378.0" y="506.0" type="line" smooth="yes"/>
      <point x="378.0" y="623.0"/>
      <point x="389.0" y="712.0"/>
      <point x="418.0" y="774.0" type="curve" smooth="yes"/>
      <point x="445.0" y="830.0"/>
      <point x="486.0" y="858.0"/>
      <point x="540.0" y="858.0" type="curve" smooth="yes"/>
      <point x="629.0" y="858.0"/>
      <point x="667.0" y="781.0"/>
      <point x="667.0" y="627.0" type="curve" smooth="yes"/>
      <point x="667.0" y="0.0" type="line"/>
      <point x="935.0" y="0.0" type="line"/>
      <point x="935.0" y="696.0" type="line" smooth="yes"/>
      <point x="935.0" y="947.0"/>
      <point x="827.0" y="1085.0"/>
      <point x="635.0" y="1085.0" type="curve" smooth="yes"/>
      <point x="518.0" y="1085.0"/>
      <point x="434.0" y="1033.0"/>
      <point x="380.0" y="919.0" type="curve"/>
      <point x="366.0" y="919.0" type="line"/>
      <point x="373.0" y="949.0"/>
      <point x="378.0" y="980.0"/>
      <point x="378.0" y="1010.0" type="curve" smooth="yes"/>
      <point x="378.0" y="1204.0" type="line"/>
      <point x="624.0" y="1204.0" type="line"/>
      <point x="624.0" y="1391.0" type="line"/>
      <point x="378.0" y="1391.0" type="line"/>
      <point x="378.0" y="1556.0" type="line"/>
      <point x="112.0" y="1556.0" type="line"/>
      <point x="112.0" y="1391.0" type="line"/>
      <point x="-12.0" y="1391.0" type="line"/>
      <point x="-12.0" y="1204.0" type="line"/>
      <point x="112.0" y="1204.0" type="line"/>
    </contour>
  </outline>
</glyph>
<glyph name="kgreenlandic" format="2">
	<unicode hex="0138"/>
	<advance width="965"/>
	<outline>
		<contour>
			<point x="112.8" y="0" type="line"/>
			<point x="379.3" y="0" type="line"/>
			<point x="379.3" y="377" type="line"/>
			<point x="483.2" y="470.6" type="line"/>
			<point x="684.2" y="0" type="line"/>
			<point x="962.7" y="0" type="line"/>
			<point x="662.7" y="659.4" type="line"/>
			<point x="943.5" y="1114.4" type="line"/>
			<point x="662" y="1114.4" type="line"/>
			<point x="454.4" y="757.7" type="line" smooth="yes"/>
			<point x="422.6" y="701.9"/>
			<point x="403.7" y="667.5"/>
			<point x="366.6" y="590.2" type="curve"/>
			<point x="366.7" y="590.9" type="line"/>
			<point x="373.8" y="669.6"/>
			<point x="379.3" y="748.1"/>
			<point x="379.3" y="827.5" type="curve" smooth="yes"/>
			<point x="379.3" y="1114.4" type="line"/>
			<point x="112.8" y="1114.4" type="line"/>
		</contour>
	</outline>
	<anchor name="bottom" x="483.4" y="0"/>
	<anchor name="top" x="483.4" y="1114.4"/>
	<note>
		kgreenlandic
	</note>
</glyph>
<glyph name="Ldot" format="2">
	<unicode hex="013F"/>
	<advance width="823"/>
	<outline>
		<contour>
			<point x="778.5" y="0" type="line"/>
			<point x="778.5" y="238.2" type="line"/>
			<point x="400.8" y="238.2" type="line"/>
			<point x="400.8" y="1462" type="line"/>
			<point x="128.5" y="1462" type="line"/>
			<point x="128.5" y="0" type="line"/>
		</contour>
		<contour>
			<point x="516.8" y="747.6" type="curve" smooth="yes"/>
			<point x="516.8" y="652.1"/>
			<point x="570.4" y="603.9"/>
			<point x="669.6" y="603.9" type="curve" smooth="yes"/>
			<point x="767.2" y="603.9"/>
			<point x="823.1" y="652.1"/>
			<point x="823.1" y="747.6" type="curve" smooth="yes"/>
			<point x="823.1" y="841.9"/>
			<point x="771.4" y="890.2"/>
			<point x="669.6" y="890.2" type="curve" smooth="yes"/>
			<point x="567.6" y="890.2"/>
			<point x="516.8" y="841.9"/>
		</contour>
	</outline>
	<note>
		Ldot
	</note>
</glyph>
<glyph name="ldot" format="2">
  <advance width="793.0"/>
  <unicode hex="0140"/>
  <note>
ldot
</note>
  <outline>
    <contour>
      <point x="379.3" y="1556.0" type="line"/>
      <point x="112.8" y="1556.0" type="line"/>
      <point x="112.8" y="0.0" type="line"/>
      <point x="379.3" y="0.0" type="line"/>
    </contour>
    <contour>
      <point x="486.6" y="693.6" type="curve" smooth="yes"/>
      <point x="486.6" y="597.4"/>
      <point x="540.9" y="549.9"/>
      <point x="640.8" y="549.9" type="curve" smooth="yes"/>
      <point x="738.4" y="549.9"/>
      <point x="794.3" y="597.4"/>
      <point x="794.3" y="693.6" type="curve" smooth="yes"/>
      <point x="794.3" y="787.9"/>
      <point x="742.6" y="836.2"/>
      <point x="640.8" y="836.2" type="curve" smooth="yes"/>
      <point x="537.4" y="836.2"/>
      <point x="486.6" y="787.9"/>
    </contour>
  </outline>
</glyph>
<glyph name="Lslash" format="2">
  <advance width="864.0"/>
  <unicode hex="0141"/>
  <note>
Lslash
</note>
  <outline>
    <contour>
      <point x="818.4" y="0.0" type="line"/>
      <point x="818.4" y="238.2" type="line"/>
      <point x="442.1" y="238.2" type="line"/>
      <point x="442.1" y="678.0" type="line"/>
      <point x="687.6" y="853.8" type="line"/>
      <point x="567.7" y="1026.4" type="line"/>
      <point x="442.1" y="936.2" type="line"/>
      <point x="442.1" y="1462.0" type="line"/>
      <point x="170.5" y="1462.0" type="line"/>
      <point x="170.5" y="738.5" type="line"/>
      <point x="-17.8" y="604.5" type="line"/>
      <point x="99.9" y="429.6" type="line"/>
      <point x="170.5" y="480.6" type="line"/>
      <point x="170.5" y="0.0" type="line"/>
    </contour>
  </outline>
</glyph>
<glyph name="lslash" format="2">
	<unicode hex="0142"/>
	<advance width="553"/>
	<outline>
		<contour>
			<point x="408" y="1556" type="line"/>
			<point x="142.9" y="1556" type="line"/>
			<point x="142.9" y="743.4" type="line"/>
			<point x="-43.4" y="608.1" type="line"/>
			<point x="78.4" y="435.9" type="line"/>
			<point x="142.9" y="482.6" type="line"/>
			<point x="142.9" y="0" type="line"/>
			<point x="408" y="0" type="line"/>
			<point x="408" y="674.2" type="line"/>
			<point x="595.4" y="811.3" type="line"/>
			<point x="473" y="982.8" type="line"/>
			<point x="408" y="936" type="line"/>
		</contour>
	</outline>
	<note>
		lslash
	</note>
</glyph>
<glyph name="Eng" format="2">
  <advance width="1282.0"/>
  <unicode hex="014A"/>
  <note>
Eng
</note>
  <outline>
    <contour>
      <point x="767.8" y="-422.2" type="curve" smooth="yes"/>
      <point x="1008.7" y="-422.2"/>
      <point x="1153.3" y="-246.4"/>
      <point x="1153.3" y="44.9" type="curve" smooth="yes"/>
      <point x="1153.3" y="1462.0" type="line"/>
      <point x="902.6" y="1462.0" type="line"/>
      <point x="902.6" y="942.1" type="line" smooth="yes"/>
      <point x="902.6" y="835.0"/>
      <point x="908.4" y="701.9"/>
      <point x="921.8" y="541.4" type="curve"/>
      <point x="909.5" y="541.4" type="line"/>
      <point x="450.8" y="1462.0" type="line"/>
      <point x="128.5" y="1462.0" type="line"/>
      <point x="128.5" y="0.0" type="line"/>
      <point x="380.6" y="0.0" type="line"/>
      <point x="380.6" y="649.3" type="line" smooth="yes"/>
      <point x="380.6" y="731.2"/>
      <point x="373.1" y="870.0"/>
      <point x="358.1" y="1066.7" type="curve"/>
      <point x="373.1" y="1066.7" type="line"/>
      <point x="906.6" y="-12.0" type="line"/>
      <point x="900.9" y="21.2" type="line"/>
      <point x="890.8" y="-105.8"/>
      <point x="837.3" y="-180.3"/>
      <point x="729.4" y="-180.3" type="curve" smooth="yes"/>
      <point x="688.2" y="-180.3"/>
      <point x="645.3" y="-173.3"/>
      <point x="598.3" y="-160.3" type="curve"/>
      <point x="598.3" y="-397.2" type="line"/>
      <point x="639.7" y="-414.2"/>
      <point x="696.9" y="-422.2"/>
    </contour>
  </outline>
</glyph>
<glyph name="eng" format="2">
  <advance width="1038.0"/>
  <unicode hex="014B"/>
  <note>
eng
</note>
  <outline>
    <contour>
      <point x="626.5" y="-492.0" type="curve" smooth="yes"/>
      <point x="826.8" y="-492.0"/>
      <point x="936.2" y="-360.0"/>
      <point x="936.2" y="-129.6" type="curve" smooth="yes"/>
      <point x="936.2" y="727.2" type="line" smooth="yes"/>
      <point x="936.2" y="999.5"/>
      <point x="831.3" y="1135.4"/>
      <point x="634.5" y="1135.4" type="curve" smooth="yes"/>
      <point x="517.0" y="1135.4"/>
      <point x="422.6" y="1078.1"/>
      <point x="373.0" y="971.1" type="curve"/>
      <point x="356.2" y="971.1" type="line"/>
      <point x="323.7" y="1114.4" type="line"/>
      <point x="112.8" y="1114.4" type="line"/>
      <point x="112.8" y="0.0" type="line"/>
      <point x="379.3" y="0.0" type="line"/>
      <point x="379.3" y="534.4" type="line" smooth="yes"/>
      <point x="379.3" y="675.1"/>
      <point x="392.7" y="768.4"/>
      <point x="419.3" y="824.5" type="curve" smooth="yes"/>
      <point x="444.1" y="877.6"/>
      <point x="486.2" y="909.1"/>
      <point x="542.8" y="909.1" type="curve" smooth="yes"/>
      <point x="631.9" y="909.1"/>
      <point x="667.9" y="828.1"/>
      <point x="667.9" y="664.7" type="curve" smooth="yes"/>
      <point x="667.9" y="-93.9" type="line" smooth="yes"/>
      <point x="667.9" y="-208.8"/>
      <point x="637.5" y="-264.5"/>
      <point x="573.5" y="-264.5" type="curve" smooth="yes"/>
      <point x="548.2" y="-264.5"/>
      <point x="515.7" y="-256.7"/>
      <point x="487.1" y="-245.7" type="curve"/>
      <point x="487.1" y="-466.6" type="line"/>
      <point x="523.6" y="-483.9"/>
      <point x="577.1" y="-492.0"/>
    </contour>
  </outline>
</glyph>
<glyph name="OE" format="2">
	<unicode hex="0152"/>
	<advance width="1446"/>
	<outline>
		<contour>
			<point x="618.2" y="-20" type="curve" smooth="yes"/>
			<point x="667.2" y="-19.4"/>
			<point x="709.6" y="-13.2"/>
			<point x="760.7" y="0" type="curve"/>
			<point x="1359.7" y="0" type="line"/>
			<point x="1359.7" y="238.2" type="line"/>
			<point x="977.1" y="238.2" type="line"/>
			<point x="977.1" y="642.7" type="line"/>
			<point x="1331.2" y="642.7" type="line"/>
			<point x="1331.2" y="878.8" type="line"/>
			<point x="977.1" y="878.8" type="line"/>
			<point x="977.1" y="1226.6" type="line"/>
			<point x="1359.7" y="1226.6" type="line"/>
			<point x="1359.7" y="1462" type="line"/>
			<point x="770.6" y="1462" type="line"/>
			<point x="718.6" y="1477.3"/>
			<point x="672.6" y="1484.9"/>
			<point x="619.9" y="1485.5" type="curve" smooth="yes"/>
			<point x="267.8" y="1485.5"/>
			<point x="84.4" y="1218.6"/>
			<point x="84.4" y="737.8" type="curve" smooth="yes"/>
			<point x="84.4" y="247.3"/>
			<point x="266.2" y="-20"/>
		</contour>
		<contour>
			<point x="613.7" y="221" type="curve" smooth="yes"/>
			<point x="446.5" y="221.6"/>
			<point x="362" y="397.1"/>
			<point x="362" y="733" type="curve" smooth="yes"/>
			<point x="362" y="1070.2"/>
			<point x="446.7" y="1243.9"/>
			<point x="615.8" y="1244.5" type="curve" smooth="yes"/>
			<point x="641.6" y="1244.5"/>
			<point x="673.4" y="1240.3"/>
			<point x="704.8" y="1231.2" type="curve"/>
			<point x="704.8" y="235.7" type="line"/>
			<point x="678.3" y="226.6"/>
			<point x="645.1" y="221"/>
		</contour>
	</outline>
	<anchor name="bottom" x="723.4" y="0"/>
	<anchor name="top" x="723.4" y="1462"/>
	<note>
		OE
	</note>
</glyph>
<glyph name="Tbar" format="2">
  <advance width="885.0"/>
  <unicode hex="0166"/>
  <note>
Tbar
</note>
  <outline>
    <contour>
      <point x="118.5" y="844.2" type="line"/>
      <point x="118.5" y="610.4" type="line"/>
      <point x="307.1" y="610.4" type="line"/>
      <point x="307.1" y="0.0" type="line"/>
      <point x="578.0" y="0.0" type="line"/>
      <point x="578.0" y="610.4" type="line"/>
      <point x="764.1" y="610.4" type="line"/>
      <point x="764.1" y="844.2" type="line"/>
      <point x="578.0" y="844.2" type="line"/>
      <point x="578.0" y="1223.2" type="line"/>
      <point x="857.8" y="1223.2" type="line"/>
      <point x="857.8" y="1462.0" type="line"/>
      <point x="27.3" y="1462.0" type="line"/>
      <point x="27.3" y="1223.2" type="line"/>
      <point x="307.1" y="1223.2" type="line"/>
      <point x="307.1" y="844.2" type="line"/>
    </contour>
  </outline>
</glyph>
<glyph name="uhorn" format="2">
  <advance width="1311.0"/>
  <unicode hex="01B0"/>
  <note>
uhorn
</note>
  <anchor x="563.0" y="0.0" name="bottom"/>
  <anchor x="513.0" y="1114.0" name="top"/>
  <outline>
    <contour>
      <point x="398.0" y="-20.0" type="curve" smooth="yes"/>
      <point x="531.0" y="-20.0"/>
      <point x="619.0" y="46.0"/>
      <point x="667.0" y="143.0" type="curve"/>
      <point x="682.0" y="143.0" type="line"/>
      <point x="714.0" y="0.0" type="line"/>
      <point x="926.0" y="0.0" type="line"/>
      <point x="926.0" y="823.0" type="line"/>
      <point x="1001.0" y="833.0"/>
      <point x="1083.0" y="853.0"/>
      <point x="1147.0" y="894.0" type="curve" smooth="yes"/>
      <point x="1267.0" y="954.0"/>
      <point x="1335.0" y="1073.0"/>
      <point x="1373.0" y="1260.0" type="curve"/>
      <point x="1359.0" y="1281.0" type="line"/>
      <point x="1076.0" y="1281.0" type="line"/>
      <point x="1075.0" y="1196.0"/>
      <point x="1061.0" y="1128.0"/>
      <point x="1032.0" y="1079.0" type="curve" smooth="yes"/>
      <point x="1008.0" y="1036.0"/>
      <point x="972.0" y="1008.0"/>
      <point x="926.0" y="995.0" type="curve"/>
      <point x="926.0" y="1114.0" type="line"/>
      <point x="659.0" y="1114.0" type="line"/>
      <point x="659.0" y="580.0" type="line" smooth="yes"/>
      <point x="659.0" y="386.0"/>
      <point x="636.0" y="204.0"/>
      <point x="495.0" y="204.0" type="curve" smooth="yes"/>
      <point x="406.0" y="204.0"/>
      <point x="370.0" y="286.0"/>
      <point x="370.0" y="451.0" type="curve" smooth="yes"/>
      <point x="370.0" y="1114.0" type="line"/>
      <point x="102.0" y="1114.0" type="line"/>
      <point x="102.0" y="387.0" type="line" smooth="yes"/>
      <point x="102.0" y="116.0"/>
      <point x="208.0" y="-20.0"/>
    </contour>
  </outline>
</glyph>
<glyph name="apostrophemod" format="2">
  <advance width="420.0"/>
  <unicode hex="02BC"/>
  <note>
afii57929
</note>
  <outline>
    <contour>
      <point x="20.0" y="961.0" type="curve"/>
      <point x="224.0" y="961.0" type="line"/>
      <point x="307.0" y="1147.0"/>
      <point x="366.0" y="1308.0"/>
      <point x="400.0" y="1440.0" type="curve"/>
      <point x="386.0" y="1462.0" type="line"/>
      <point x="121.0" y="1462.0" type="line"/>
      <point x="96.0" y="1301.0"/>
      <point x="63.0" y="1134.0"/>
    </contour>
  </outline>
</glyph>
<glyph name="firsttonechinese" format="2">
	<unicode hex="02C9"/>
	<advance width="1085"/>
	<outline>
		<contour>
			<point x="240" y="1276" type="line"/>
			<point x="846" y="1276" type="line"/>
			<point x="846" y="1475" type="line"/>
			<point x="240" y="1475" type="line"/>
		</contour>
	</outline>
	<note>
		uni02C9
	</note>
</glyph>
<glyph name="lowringmod" format="2">
  <advance width="666.0"/>
  <unicode hex="02F3"/>
  <note>
uni02F3
</note>
  <anchor x="328.1" y="-0.4" name="_bottom"/>
  <outline>
    <contour>
      <point x="328.1" y="-592.1" type="curve" smooth="yes"/>
      <point x="475.7" y="-592.1"/>
      <point x="577.5" y="-499.1"/>
      <point x="577.5" y="-356.3" type="curve" smooth="yes"/>
      <point x="577.5" y="-218.7"/>
      <point x="473.5" y="-124.6"/>
      <point x="328.1" y="-124.6" type="curve" smooth="yes"/>
      <point x="181.3" y="-124.6"/>
      <point x="85.7" y="-215.1"/>
      <point x="85.7" y="-357.5" type="curve" smooth="yes"/>
      <point x="85.7" y="-501.9"/>
      <point x="181.0" y="-592.1"/>
    </contour>
    <contour>
      <point x="328.1" y="-457.0" type="curve" smooth="yes"/>
      <point x="262.1" y="-457.0"/>
      <point x="229.5" y="-424.3"/>
      <point x="229.5" y="-357.5" type="curve" smooth="yes"/>
      <point x="229.5" y="-297.2"/>
      <point x="269.4" y="-258.3"/>
      <point x="328.1" y="-258.3" type="curve" smooth="yes"/>
      <point x="384.7" y="-258.3"/>
      <point x="428.1" y="-297.2"/>
      <point x="428.1" y="-357.5" type="curve" smooth="yes"/>
      <point x="428.1" y="-421.5"/>
      <point x="385.4" y="-457.0"/>
    </contour>
  </outline>
</glyph>
<glyph name="acutecomb" format="2">
  <unicode hex="0301"/>
  <note>
acutecomb
</note>
  <anchor x="-75.0" y="1148.0" name="_top"/>
  <anchor x="0.0" y="1569.0" name="top"/>
  <outline>
    <contour>
      <point x="-245.0" y="1241.0" type="line"/>
      <point x="-58.0" y="1241.0" type="line"/>
      <point x="60.0" y="1337.0"/>
      <point x="213.0" y="1491.0"/>
      <point x="245.0" y="1547.0" type="curve"/>
      <point x="245.0" y="1569.0" type="line"/>
      <point x="-73.0" y="1569.0" type="line"/>
      <point x="-103.0" y="1502.0"/>
      <point x="-188.0" y="1340.0"/>
      <point x="-245.0" y="1268.0" type="curve"/>
    </contour>
  </outline>
</glyph>
<glyph name="circumflexcomb" format="2">
  <unicode hex="0302"/>
  <note>
circumflex
</note>
  <anchor x="569.0" y="1114.0" name="_top"/>
  <anchor x="569.0" y="1569.0" name="top"/>
  <outline>
    <contour>
      <point x="213.0" y="1241.0" type="line"/>
      <point x="380.0" y="1241.0" type="line"/>
      <point x="410.0" y="1264.0"/>
      <point x="450.0" y="1298.0"/>
      <point x="482.0" y="1329.0" type="curve" smooth="yes"/>
      <point x="505.0" y="1352.0"/>
      <point x="529.0" y="1376.0"/>
      <point x="567.0" y="1419.0" type="curve"/>
      <point x="616.0" y="1366.0"/>
      <point x="640.0" y="1340.0"/>
      <point x="651.0" y="1331.0" type="curve" smooth="yes"/>
      <point x="677.0" y="1305.0"/>
      <point x="689.0" y="1294.0"/>
      <point x="755.0" y="1241.0" type="curve"/>
      <point x="923.0" y="1241.0" type="line"/>
      <point x="923.0" y="1268.0" type="line"/>
      <point x="809.0" y="1412.0"/>
      <point x="737.0" y="1513.0"/>
      <point x="707.0" y="1569.0" type="curve"/>
      <point x="429.0" y="1569.0" type="line"/>
      <point x="403.0" y="1518.0"/>
      <point x="331.0" y="1419.0"/>
      <point x="213.0" y="1268.0" type="curve"/>
    </contour>
  </outline>
</glyph>
<glyph name="tildecomb" format="2">
  <unicode hex="0303"/>
  <note>
tildecomb
</note>
  <anchor x="346.5" y="1114.4" name="_top"/>
  <anchor x="346.5" y="1542.2" name="top"/>
  <outline>
    <contour>
      <point x="0.0" y="1238.9" type="curve"/>
      <point x="141.2" y="1238.9" type="line"/>
      <point x="153.9" y="1320.5"/>
      <point x="178.7" y="1347.6"/>
      <point x="217.5" y="1347.6" type="curve" smooth="yes"/>
      <point x="267.4" y="1347.6"/>
      <point x="305.8" y="1317.0"/>
      <point x="347.5" y="1284.6" type="curve" smooth="yes"/>
      <point x="375.2" y="1262.4"/>
      <point x="418.4" y="1240.9"/>
      <point x="474.5" y="1240.9" type="curve" smooth="yes"/>
      <point x="596.4" y="1240.9"/>
      <point x="679.2" y="1340.0"/>
      <point x="694.0" y="1542.2" type="curve"/>
      <point x="552.8" y="1542.2" type="line"/>
      <point x="538.7" y="1469.7"/>
      <point x="522.9" y="1434.2"/>
      <point x="477.3" y="1434.2" type="curve" smooth="yes"/>
      <point x="438.7" y="1434.2"/>
      <point x="403.1" y="1458.5"/>
      <point x="361.0" y="1487.0" type="curve" smooth="yes"/>
      <point x="325.6" y="1511.0"/>
      <point x="280.2" y="1540.2"/>
      <point x="217.1" y="1540.2" type="curve" smooth="yes"/>
      <point x="98.7" y="1540.2"/>
      <point x="14.6" y="1446.3"/>
    </contour>
  </outline>
</glyph>
<glyph name="macroncomb" format="2">
	<unicode hex="0304"/>
	<outline>
		<contour>
			<point x="0" y="1246.1" type="line"/>
			<point x="606" y="1246.1" type="line"/>
			<point x="606" y="1445.7" type="line"/>
			<point x="0" y="1445.7" type="line"/>
		</contour>
	</outline>
	<anchor name="_top" x="303" y="1114.4"/>
	<anchor name="top" x="303" y="1445.7"/>
</glyph>
<glyph name="dotaccentcomb" format="2">
	<unicode hex="0307"/>
	<outline>
		<contour>
			<point x="285" y="1262" type="curve" smooth="yes"/>
			<point x="382" y="1262"/>
			<point x="438" y="1309"/>
			<point x="438" y="1406" type="curve" smooth="yes"/>
			<point x="438" y="1500"/>
			<point x="387" y="1548"/>
			<point x="285" y="1548" type="curve" smooth="yes"/>
			<point x="182" y="1548"/>
			<point x="131" y="1500"/>
			<point x="131" y="1406" type="curve" smooth="yes"/>
			<point x="131" y="1309"/>
			<point x="185" y="1262"/>
		</contour>
	</outline>
	<anchor name="_top" x="285" y="1114"/>
	<anchor name="top" x="285" y="1548"/>
	<note>
		dotaccent
	</note>
</glyph>
<glyph name="dieresiscomb" format="2">
  <unicode hex="0308"/>
  <note>
dieresis
</note>
  <anchor x="565.0" y="1145.0" name="_top"/>
  <anchor x="565.0" y="1532.0" name="top"/>
  <outline>
    <contour>
      <point x="765.0" y="1276.0" type="curve" smooth="yes"/>
      <point x="847.0" y="1276.0"/>
      <point x="897.0" y="1323.0"/>
      <point x="897.0" y="1403.0" type="curve" smooth="yes"/>
      <point x="897.0" y="1485.0"/>
      <point x="845.0" y="1532.0"/>
      <point x="765.0" y="1532.0" type="curve" smooth="yes"/>
      <point x="681.0" y="1532.0"/>
      <point x="632.0" y="1485.0"/>
      <point x="632.0" y="1403.0" type="curve" smooth="yes"/>
      <point x="632.0" y="1324.0"/>
      <point x="682.0" y="1276.0"/>
    </contour>
    <contour>
      <point x="365.0" y="1276.0" type="curve" smooth="yes"/>
      <point x="447.0" y="1276.0"/>
      <point x="499.0" y="1326.0"/>
      <point x="499.0" y="1403.0" type="curve" smooth="yes"/>
      <point x="499.0" y="1481.0"/>
      <point x="447.0" y="1532.0"/>
      <point x="365.0" y="1532.0" type="curve" smooth="yes"/>
      <point x="283.0" y="1532.0"/>
      <point x="234.0" y="1485.0"/>
      <point x="234.0" y="1403.0" type="curve" smooth="yes"/>
      <point x="234.0" y="1322.0"/>
      <point x="283.0" y="1276.0"/>
    </contour>
  </outline>
</glyph>
<glyph name="ringcomb" format="2">
	<unicode hex="030A"/>
	<outline>
		<contour>
			<point x="555" y="1239" type="curve" smooth="yes"/>
			<point x="704" y="1239"/>
			<point x="805" y="1332"/>
			<point x="805" y="1475" type="curve" smooth="yes"/>
			<point x="805" y="1612"/>
			<point x="702" y="1706"/>
			<point x="555" y="1706" type="curve" smooth="yes"/>
			<point x="409" y="1706"/>
			<point x="312" y="1617"/>
			<point x="312" y="1473" type="curve" smooth="yes"/>
			<point x="312" y="1329"/>
			<point x="408" y="1239"/>
		</contour>
		<contour>
			<point x="555" y="1372" type="curve" smooth="yes"/>
			<point x="488" y="1372"/>
			<point x="455" y="1411"/>
			<point x="455" y="1473" type="curve" smooth="yes"/>
			<point x="455" y="1535"/>
			<point x="499" y="1574"/>
			<point x="555" y="1574" type="curve" smooth="yes"/>
			<point x="613" y="1574"/>
			<point x="655" y="1535"/>
			<point x="655" y="1473" type="curve" smooth="yes"/>
			<point x="655" y="1410"/>
			<point x="612" y="1372"/>
		</contour>
	</outline>
	<anchor name="_top" x="559" y="1114"/>
	<anchor name="top" x="559" y="1706"/>
	<note>
		ring
	</note>
</glyph>
<glyph name="hungarumlautcomb" format="2">
  <unicode hex="030B"/>
  <note>
hungarumlaut
</note>
  <anchor x="575.0" y="1114.0" name="_top"/>
  <anchor x="575.0" y="1569.0" name="top"/>
  <outline>
    <contour>
      <point x="542.0" y="1241.0" type="line"/>
      <point x="691.0" y="1241.0" type="line"/>
      <point x="806.0" y="1336.0"/>
      <point x="963.0" y="1491.0"/>
      <point x="997.0" y="1547.0" type="curve"/>
      <point x="997.0" y="1569.0" type="line"/>
      <point x="716.0" y="1569.0" type="line"/>
      <point x="685.0" y="1501.0"/>
      <point x="604.0" y="1354.0"/>
      <point x="542.0" y="1268.0" type="curve"/>
    </contour>
    <contour>
      <point x="152.0" y="1241.0" type="line"/>
      <point x="302.0" y="1241.0" type="line"/>
      <point x="394.0" y="1313.0"/>
      <point x="562.0" y="1479.0"/>
      <point x="606.0" y="1547.0" type="curve"/>
      <point x="606.0" y="1569.0" type="line"/>
      <point x="325.0" y="1569.0" type="line"/>
      <point x="294.0" y="1500.0"/>
      <point x="213.0" y="1354.0"/>
      <point x="152.0" y="1268.0" type="curve"/>
    </contour>
  </outline>
</glyph>
<glyph name="caroncomb" format="2">
  <unicode hex="030C"/>
  <note>
caron
</note>
  <anchor x="569.0" y="1114.0" name="_top"/>
  <anchor x="569.0" y="1569.0" name="top"/>
  <outline>
    <contour>
      <point x="429.0" y="1241.0" type="curve"/>
      <point x="706.0" y="1241.0" type="line"/>
      <point x="719.0" y="1264.0"/>
      <point x="738.0" y="1293.0"/>
      <point x="764.0" y="1329.0" type="curve" smooth="yes"/>
      <point x="803.0" y="1385.0"/>
      <point x="856.0" y="1457.0"/>
      <point x="923.0" y="1542.0" type="curve"/>
      <point x="923.0" y="1569.0" type="line"/>
      <point x="755.0" y="1569.0" type="line"/>
      <point x="690.0" y="1515.0"/>
      <point x="612.0" y="1440.0"/>
      <point x="570.0" y="1391.0" type="curve"/>
      <point x="495.0" y="1480.0"/>
      <point x="445.0" y="1519.0"/>
      <point x="380.0" y="1569.0" type="curve"/>
      <point x="212.0" y="1569.0" type="line"/>
      <point x="212.0" y="1542.0" type="line"/>
      <point x="281.0" y="1455.0"/>
      <point x="335.0" y="1383.0"/>
      <point x="374.0" y="1326.0" type="curve" smooth="yes"/>
      <point x="400.0" y="1290.0"/>
      <point x="418.0" y="1261.0"/>
    </contour>
  </outline>
</glyph>
<glyph name="dblgravecomb" format="2">
  <unicode hex="030F"/>
  <note>
uni030F
</note>
  <anchor x="0.0" y="1114.0" name="_top"/>
  <anchor x="0.0" y="1569.0" name="top"/>
  <outline>
    <contour>
      <point x="273.0" y="1241.0" type="curve"/>
      <point x="423.0" y="1241.0" type="line"/>
      <point x="423.0" y="1268.0" type="line"/>
      <point x="368.0" y="1343.0"/>
      <point x="294.0" y="1473.0"/>
      <point x="249.0" y="1569.0" type="curve"/>
      <point x="-34.0" y="1569.0" type="line"/>
      <point x="-34.0" y="1547.0" type="line"/>
      <point x="4.0" y="1485.0"/>
      <point x="170.0" y="1324.0"/>
    </contour>
    <contour>
      <point x="-118.0" y="1241.0" type="curve"/>
      <point x="32.0" y="1241.0" type="line"/>
      <point x="32.0" y="1268.0" type="line"/>
      <point x="-9.0" y="1322.0"/>
      <point x="-97.0" y="1468.0"/>
      <point x="-142.0" y="1569.0" type="curve"/>
      <point x="-423.0" y="1569.0" type="line"/>
      <point x="-423.0" y="1547.0" type="line"/>
      <point x="-385.0" y="1486.0"/>
      <point x="-217.0" y="1320.0"/>
    </contour>
  </outline>
</glyph>
<glyph name="commaturnedabovecomb" format="2">
  <unicode hex="0312"/>
  <anchor x="301.0" y="1114.0" name="_top"/>
  <anchor x="301.0" y="1569.0" name="top"/>
  <outline>
    <contour>
      <point x="136.0" y="1241.0" type="line"/>
      <point x="399.0" y="1241.0" type="line"/>
      <point x="409.0" y="1319.0"/>
      <point x="439.0" y="1455.0"/>
      <point x="465.0" y="1542.0" type="curve"/>
      <point x="465.0" y="1569.0" type="line"/>
      <point x="301.0" y="1569.0" type="line"/>
      <point x="232.0" y="1468.0"/>
      <point x="179.0" y="1366.0"/>
      <point x="136.0" y="1262.0" type="curve"/>
    </contour>
  </outline>
</glyph>
<glyph name="dotbelowcomb" format="2">
  <unicode hex="0323"/>
  <note>
dotbelowcomb
</note>
  <anchor x="-1.0" y="0.0" name="_bottom"/>
  <anchor x="-1.0" y="-416.0" name="bottom"/>
  <outline>
    <contour>
      <point x="0.0" y="-416.0" type="curve" smooth="yes"/>
      <point x="100.0" y="-416.0"/>
      <point x="155.0" y="-366.0"/>
      <point x="155.0" y="-275.0" type="curve" smooth="yes"/>
      <point x="155.0" y="-185.0"/>
      <point x="103.0" y="-131.0"/>
      <point x="0.0" y="-131.0" type="curve" smooth="yes"/>
      <point x="-102.0" y="-131.0"/>
      <point x="-155.0" y="-179.0"/>
      <point x="-155.0" y="-275.0" type="curve" smooth="yes"/>
      <point x="-155.0" y="-369.0"/>
      <point x="-99.0" y="-416.0"/>
    </contour>
  </outline>
</glyph>
<glyph name="commaaccentcomb" format="2">
  <unicode hex="0326"/>
  <anchor x="264.0" y="0.0" name="_bottom"/>
  <anchor x="264.0" y="-453.0" name="bottom"/>
  <outline>
    <contour>
      <point x="100.0" y="-453.0" type="line"/>
      <point x="262.0" y="-453.0" type="line"/>
      <point x="323.0" y="-365.0"/>
      <point x="380.0" y="-262.0"/>
      <point x="429.0" y="-145.0" type="curve"/>
      <point x="429.0" y="-125.0" type="line"/>
      <point x="166.0" y="-125.0" type="line"/>
      <point x="157.0" y="-204.0"/>
      <point x="126.0" y="-342.0"/>
      <point x="100.0" y="-426.0" type="curve"/>
    </contour>
  </outline>
</glyph>
<glyph name="cedillacomb" format="2">
  <unicode hex="0327"/>
  <note>
cedilla
</note>
  <anchor x="208.0" y="0.0" name="_bottom"/>
  <anchor x="208.0" y="-492.0" name="bottom"/>
  <outline>
    <contour>
      <point x="129.0" y="-492.0" type="curve" smooth="yes"/>
      <point x="327.0" y="-492.0"/>
      <point x="419.0" y="-403.0"/>
      <point x="419.0" y="-260.0" type="curve" smooth="yes"/>
      <point x="419.0" y="-159.0"/>
      <point x="354.0" y="-99.0"/>
      <point x="263.0" y="-77.0" type="curve"/>
      <point x="301.0" y="0.0" type="line"/>
      <point x="128.0" y="0.0" type="line"/>
      <point x="48.0" y="-158.0" type="line"/>
      <point x="152.0" y="-175.0"/>
      <point x="206.0" y="-210.0"/>
      <point x="206.0" y="-268.0" type="curve" smooth="yes"/>
      <point x="206.0" y="-311.0"/>
      <point x="178.0" y="-334.0"/>
      <point x="118.0" y="-334.0" type="curve" smooth="yes"/>
      <point x="78.0" y="-334.0"/>
      <point x="38.0" y="-328.0"/>
      <point x="-3.0" y="-317.0" type="curve"/>
      <point x="-3.0" y="-470.0" type="line"/>
      <point x="35.0" y="-485.0"/>
      <point x="78.0" y="-492.0"/>
    </contour>
  </outline>
</glyph>
<glyph name="ogonekcomb" format="2">
  <unicode hex="0328"/>
  <note>
ogonek
</note>
  <anchor x="412.0" y="10.0" name="_ogonek"/>
  <outline>
    <contour>
      <point x="259.0" y="-483.0" type="curve" smooth="yes"/>
      <point x="294.0" y="-483.0"/>
      <point x="334.0" y="-478.0"/>
      <point x="381.0" y="-467.0" type="curve"/>
      <point x="381.0" y="-298.0" type="line"/>
      <point x="353.0" y="-308.0"/>
      <point x="328.0" y="-313.0"/>
      <point x="301.0" y="-313.0" type="curve" smooth="yes"/>
      <point x="261.0" y="-313.0"/>
      <point x="229.0" y="-288.0"/>
      <point x="229.0" y="-229.0" type="curve" smooth="yes"/>
      <point x="229.0" y="-164.0"/>
      <point x="270.0" y="-87.0"/>
      <point x="356.0" y="0.0" type="curve"/>
      <point x="188.0" y="0.0" type="line"/>
      <point x="82.0" y="-82.0"/>
      <point x="29.0" y="-170.0"/>
      <point x="29.0" y="-264.0" type="curve" smooth="yes"/>
      <point x="29.0" y="-399.0"/>
      <point x="121.0" y="-483.0"/>
    </contour>
  </outline>
</glyph>
<glyph name="tonos" format="2">
  <advance width="1098.0"/>
  <unicode hex="0384"/>
  <note>
tonos
</note>
  <anchor x="534.0" y="1114.0" name="_top"/>
  <anchor x="735.0" y="1556.0" name="_topleft"/>
  <outline>
    <contour>
      <point x="382.0" y="1241.0" type="line"/>
      <point x="546.0" y="1241.0" type="line"/>
      <point x="622.0" y="1360.0"/>
      <point x="678.0" y="1460.0"/>
      <point x="716.0" y="1542.0" type="curve"/>
      <point x="716.0" y="1567.0" type="line"/>
      <point x="454.0" y="1567.0" type="line"/>
      <point x="436.0" y="1456.0"/>
      <point x="411.0" y="1358.0"/>
      <point x="382.0" y="1273.0" type="curve"/>
    </contour>
  </outline>
</glyph>
<glyph name="dieresistonos" format="2">
	<unicode hex="0385"/>
	<advance width="1141"/>
	<outline>
		<contour>
			<point x="472" y="1357" type="line"/>
			<point x="598" y="1357" type="line"/>
			<point x="686" y="1472"/>
			<point x="749" y="1576"/>
			<point x="792" y="1664" type="curve"/>
			<point x="792" y="1684" type="line"/>
			<point x="539" y="1684" type="line"/>
			<point x="525" y="1587"/>
			<point x="502" y="1485"/>
			<point x="472" y="1384" type="curve"/>
		</contour>
		<contour>
			<point x="305" y="1245" type="curve" smooth="yes"/>
			<point x="377" y="1245"/>
			<point x="430" y="1283"/>
			<point x="430" y="1373" type="curve" smooth="yes"/>
			<point x="430" y="1463"/>
			<point x="376" y="1500"/>
			<point x="305" y="1500" type="curve" smooth="yes"/>
			<point x="235" y="1500"/>
			<point x="185" y="1464"/>
			<point x="185" y="1373" type="curve" smooth="yes"/>
			<point x="185" y="1282"/>
			<point x="235" y="1245"/>
		</contour>
		<contour>
			<point x="832" y="1245" type="curve" smooth="yes"/>
			<point x="904" y="1245"/>
			<point x="957" y="1283"/>
			<point x="957" y="1372" type="curve" smooth="yes"/>
			<point x="957" y="1462"/>
			<point x="904" y="1500"/>
			<point x="831" y="1500" type="curve" smooth="yes"/>
			<point x="755" y="1500"/>
			<point x="710" y="1458"/>
			<point x="710" y="1373" type="curve" smooth="yes"/>
			<point x="710" y="1283"/>
			<point x="760" y="1245"/>
		</contour>
	</outline>
	<anchor name="_top" x="571" y="1114"/>
	<note>
		dieresistonos
	</note>
</glyph>
<glyph name="anoteleia" format="2">
  <advance width="553.0"/>
  <unicode hex="0387"/>
  <note>
anoteleia
</note>
  <outline>
    <contour>
      <point x="276.1" y="559.0" type="curve" smooth="yes"/>
      <point x="381.4" y="559.0"/>
      <point x="442.3" y="619.1"/>
      <point x="442.3" y="723.1" type="curve" smooth="yes"/>
      <point x="442.3" y="828.7"/>
      <point x="384.9" y="886.8"/>
      <point x="276.1" y="886.8" type="curve" smooth="yes"/>
      <point x="167.4" y="886.8"/>
      <point x="110.6" y="827.0"/>
      <point x="110.6" y="723.1" type="curve" smooth="yes"/>
      <point x="110.6" y="619.9"/>
      <point x="168.1" y="559.0"/>
    </contour>
  </outline>
</glyph>
<glyph name="Theta" format="2">
  <advance width="1219.0"/>
  <unicode hex="0398"/>
  <note>
Theta
</note>
  <outline>
    <contour>
      <point x="609.7" y="-20.0" type="curve" smooth="yes"/>
      <point x="947.1" y="-20.0"/>
      <point x="1134.6" y="249.0"/>
      <point x="1134.6" y="733.0" type="curve" smooth="yes"/>
      <point x="1134.6" y="1216.8"/>
      <point x="949.1" y="1485.1"/>
      <point x="612.0" y="1485.1" type="curve" smooth="yes"/>
      <point x="271.6" y="1485.1"/>
      <point x="84.4" y="1218.7"/>
      <point x="84.4" y="735.0" type="curve" smooth="yes"/>
      <point x="84.4" y="246.4"/>
      <point x="270.7" y="-20.0"/>
    </contour>
    <contour>
      <point x="609.7" y="221.0" type="curve" smooth="yes"/>
      <point x="447.2" y="221.0"/>
      <point x="361.4" y="399.5"/>
      <point x="361.4" y="733.0" type="curve" smooth="yes"/>
      <point x="361.4" y="1068.6"/>
      <point x="447.4" y="1244.8"/>
      <point x="612.0" y="1244.8" type="curve" smooth="yes"/>
      <point x="775.5" y="1244.8"/>
      <point x="856.9" y="1074.3"/>
      <point x="856.9" y="733.0" type="curve" smooth="yes"/>
      <point x="856.9" y="392.0"/>
      <point x="773.9" y="221.0"/>
    </contour>
    <contour>
      <point x="452.7" y="624.5" type="line"/>
      <point x="766.3" y="624.5" type="line"/>
      <point x="766.3" y="861.6" type="line"/>
      <point x="452.7" y="861.6" type="line"/>
    </contour>
  </outline>
</glyph>
<glyph name="Xi" format="2">
  <advance width="838.0"/>
  <unicode hex="039E"/>
  <note>
Xi
</note>
  <outline>
    <contour>
      <point x="56.7" y="0.0" type="line"/>
      <point x="780.1" y="0.0" type="line"/>
      <point x="780.1" y="238.2" type="line"/>
      <point x="56.7" y="238.2" type="line"/>
    </contour>
    <contour>
      <point x="149.7" y="642.7" type="line"/>
      <point x="688.1" y="642.7" type="line"/>
      <point x="688.1" y="878.8" type="line"/>
      <point x="149.7" y="878.8" type="line"/>
    </contour>
    <contour>
      <point x="87.5" y="1226.6" type="line"/>
      <point x="750.3" y="1226.6" type="line"/>
      <point x="750.3" y="1462.0" type="line"/>
      <point x="87.5" y="1462.0" type="line"/>
    </contour>
  </outline>
</glyph>
<glyph name="Pi" format="2">
	<unicode hex="03A0"/>
	<advance width="1161"/>
	<outline>
		<contour>
			<point x="128.5" y="0" type="line"/>
			<point x="400.8" y="0" type="line"/>
			<point x="400.8" y="1223.1" type="line"/>
			<point x="761.7" y="1223.1" type="line"/>
			<point x="761.7" y="0" type="line"/>
			<point x="1031.9" y="0" type="line"/>
			<point x="1031.9" y="1462" type="line"/>
			<point x="128.5" y="1462" type="line"/>
		</contour>
	</outline>
	<note>
		Pi
	</note>
</glyph>
<glyph name="Upsilon" format="2">
	<unicode hex="03A5"/>
	<advance width="961"/>
	<outline>
		<contour>
			<point x="346.2" y="0" type="line"/>
			<point x="614.3" y="0" type="line"/>
			<point x="614.3" y="585.7" type="line"/>
			<point x="961.1" y="1462" type="line"/>
			<point x="676.5" y="1462" type="line"/>
			<point x="480.5" y="884.8" type="line"/>
			<point x="287.4" y="1462" type="line"/>
			<point x="0" y="1462" type="line"/>
			<point x="346.2" y="575.9" type="line"/>
		</contour>
	</outline>
	<anchor name="top" x="481.6" y="1462"/>
	<anchor name="topleft" x="-21" y="1496.7"/>
	<note>
		Upsilon
	</note>
</glyph>
<glyph name="Psi" format="2">
  <advance width="1452.0"/>
  <unicode hex="03A8"/>
  <note>
Psi
</note>
  <outline>
    <contour>
      <point x="596.0" y="0.0" type="line"/>
      <point x="853.0" y="0.0" type="line"/>
      <point x="853.0" y="438.0" type="line"/>
      <point x="881.0" y="438.0" type="line" smooth="yes"/>
      <point x="1200.0" y="438.0"/>
      <point x="1354.0" y="611.0"/>
      <point x="1354.0" y="983.0" type="curve" smooth="yes"/>
      <point x="1354.0" y="1462.0" type="line"/>
      <point x="1100.0" y="1462.0" type="line"/>
      <point x="1100.0" y="979.0" type="line" smooth="yes"/>
      <point x="1100.0" y="889.0"/>
      <point x="1086.0" y="814.0"/>
      <point x="1059.0" y="768.0" type="curve" smooth="yes"/>
      <point x="1028.0" y="705.0"/>
      <point x="963.0" y="670.0"/>
      <point x="872.0" y="670.0" type="curve" smooth="yes"/>
      <point x="853.0" y="670.0" type="line"/>
      <point x="853.0" y="1462.0" type="line"/>
      <point x="596.0" y="1462.0" type="line"/>
      <point x="596.0" y="670.0" type="line"/>
      <point x="576.0" y="670.0" type="line" smooth="yes"/>
      <point x="507.0" y="670.0"/>
      <point x="450.0" y="693.0"/>
      <point x="417.0" y="725.0" type="curve" smooth="yes"/>
      <point x="369.0" y="767.0"/>
      <point x="348.0" y="856.0"/>
      <point x="348.0" y="979.0" type="curve" smooth="yes"/>
      <point x="348.0" y="1462.0" type="line"/>
      <point x="94.0" y="1462.0" type="line"/>
      <point x="94.0" y="983.0" type="line" smooth="yes"/>
      <point x="94.0" y="611.0"/>
      <point x="249.0" y="438.0"/>
      <point x="567.0" y="438.0" type="curve" smooth="yes"/>
      <point x="596.0" y="438.0" type="line"/>
    </contour>
  </outline>
</glyph>
<glyph name="Omega" format="2">
  <advance width="1229.0"/>
  <unicode hex="03A9"/>
  <note>
uni03A9
</note>
  <anchor x="615.2" y="0.0" name="bottom"/>
  <anchor x="288.0" y="1504.0" name="topleft"/>
  <outline>
    <contour>
      <point x="36.6" y="0.0" type="line"/>
      <point x="545.1" y="0.0" type="line"/>
      <point x="545.1" y="235.8" type="line"/>
      <point x="419.8" y="379.9"/>
      <point x="366.6" y="548.6"/>
      <point x="366.6" y="808.9" type="curve" smooth="yes"/>
      <point x="366.6" y="1092.2"/>
      <point x="439.4" y="1244.8"/>
      <point x="614.5" y="1244.8" type="curve" smooth="yes"/>
      <point x="786.8" y="1244.8"/>
      <point x="860.0" y="1092.4"/>
      <point x="860.0" y="811.0" type="curve" smooth="yes"/>
      <point x="860.0" y="543.7"/>
      <point x="806.6" y="373.1"/>
      <point x="688.1" y="235.8" type="curve"/>
      <point x="688.1" y="0.0" type="line"/>
      <point x="1191.7" y="0.0" type="line"/>
      <point x="1191.7" y="241.7" type="line"/>
      <point x="904.9" y="241.7" type="line"/>
      <point x="973.9" y="309.9"/>
      <point x="1027.9" y="387.2"/>
      <point x="1066.1" y="474.6" type="curve" smooth="yes"/>
      <point x="1114.5" y="583.1"/>
      <point x="1138.7" y="706.3"/>
      <point x="1138.7" y="843.9" type="curve" smooth="yes"/>
      <point x="1138.7" y="1054.3"/>
      <point x="1084.8" y="1220.8"/>
      <point x="987.0" y="1330.6" type="curve" smooth="yes"/>
      <point x="898.0" y="1430.1"/>
      <point x="771.197" y="1485.1"/>
      <point x="614.5" y="1485.1" type="curve" smooth="yes"/>
      <point x="461.2" y="1485.1"/>
      <point x="336.8" y="1432.7"/>
      <point x="246.8" y="1337.5" type="curve" smooth="yes"/>
      <point x="143.6" y="1226.9"/>
      <point x="87.5" y="1058.6"/>
      <point x="87.5" y="846.0" type="curve" smooth="yes"/>
      <point x="87.5" y="711.3"/>
      <point x="110.4" y="590.7"/>
      <point x="155.9" y="484.6" type="curve" smooth="yes"/>
      <point x="195.8" y="393.3"/>
      <point x="252.3" y="313.0"/>
      <point x="326.9" y="241.7" type="curve"/>
      <point x="36.6" y="241.7" type="line"/>
    </contour>
  </outline>
</glyph>
<glyph name="beta" format="2">
	<unicode hex="03B2"/>
	<advance width="1061"/>
	<outline>
		<contour>
			<point x="112.8" y="-492" type="line"/>
			<point x="379.3" y="-492" type="line"/>
			<point x="379.3" y="42.6" type="line"/>
			<point x="440.6" y="2.5"/>
			<point x="507.9" y="-20"/>
			<point x="615.7" y="-20" type="curve" smooth="yes"/>
			<point x="859.2" y="-20"/>
			<point x="1000.1" y="152.6"/>
			<point x="1000.1" y="443.9" type="curve" smooth="yes"/>
			<point x="1000.1" y="664.8"/>
			<point x="894.3" y="777.5"/>
			<point x="682.1" y="812.7" type="curve"/>
			<point x="682.1" y="820.7" type="line"/>
			<point x="862.8" y="881.1"/>
			<point x="943.4" y="990.7"/>
			<point x="943.4" y="1173.7" type="curve" smooth="yes"/>
			<point x="943.4" y="1420.7"/>
			<point x="794.1" y="1567"/>
			<point x="539.2" y="1567" type="curve" smooth="yes"/>
			<point x="260" y="1567"/>
			<point x="112.8" y="1400.9"/>
			<point x="112.8" y="1095.5" type="curve" smooth="yes"/>
		</contour>
		<contour>
			<point x="546.6" y="205.1" type="curve" smooth="yes"/>
			<point x="488.6" y="205.1"/>
			<point x="433.3" y="225.5"/>
			<point x="379.3" y="266" type="curve"/>
			<point x="379.3" y="1076.7" type="line" smooth="yes"/>
			<point x="379.3" y="1254.3"/>
			<point x="425.1" y="1346.1"/>
			<point x="537.2" y="1346.1" type="curve" smooth="yes"/>
			<point x="624.5" y="1346.1"/>
			<point x="677.9" y="1280.3"/>
			<point x="677.9" y="1142.6" type="curve" smooth="yes"/>
			<point x="677.9" y="1003.3"/>
			<point x="619.5" y="919.9"/>
			<point x="520" y="919.9" type="curve" smooth="yes"/>
			<point x="476.7" y="919.9" type="line"/>
			<point x="476.7" y="694.1" type="line"/>
			<point x="519.7" y="694.1" type="line" smooth="yes"/>
			<point x="653" y="694.1"/>
			<point x="727.5" y="609.3"/>
			<point x="727.5" y="453.4" type="curve" smooth="yes"/>
			<point x="727.5" y="288.4"/>
			<point x="667.4" y="205.1"/>
		</contour>
	</outline>
	<note>
		beta
	</note>
</glyph>
<glyph name="delta" format="2">
  <advance width="1012.0"/>
  <unicode hex="03B4"/>
  <note>
delta
</note>
  <outline>
    <contour>
      <point x="500.0" y="-20.0" type="curve" smooth="yes"/>
      <point x="779.6" y="-20.0"/>
      <point x="937.9" y="167.3"/>
      <point x="937.9" y="496.5" type="curve" smooth="yes"/>
      <point x="937.9" y="604.0"/>
      <point x="916.6" y="697.8"/>
      <point x="867.4" y="784.3" type="curve" smooth="yes"/>
      <point x="821.0" y="866.7"/>
      <point x="749.8" y="943.2"/>
      <point x="647.6" y="1020.2" type="curve" smooth="yes"/>
      <point x="578.7" y="1073.0"/>
      <point x="527.9" y="1113.1"/>
      <point x="497.0" y="1144.0" type="curve" smooth="yes"/>
      <point x="459.0" y="1183.7"/>
      <point x="440.0" y="1217.9"/>
      <point x="440.0" y="1255.1" type="curve" smooth="yes"/>
      <point x="440.0" y="1321.9"/>
      <point x="487.9" y="1355.5"/>
      <point x="578.0" y="1355.5" type="curve" smooth="yes"/>
      <point x="659.4" y="1355.5"/>
      <point x="747.4" y="1330.9"/>
      <point x="846.1" y="1282.4" type="curve"/>
      <point x="927.7" y="1486.1" type="line"/>
      <point x="784.9" y="1550.7"/>
      <point x="696.8" y="1567.3"/>
      <point x="572.5" y="1567.3" type="curve" smooth="yes"/>
      <point x="327.8" y="1567.3"/>
      <point x="176.0" y="1439.1"/>
      <point x="176.0" y="1247.3" type="curve" smooth="yes"/>
      <point x="176.0" y="1124.6"/>
      <point x="226.3" y="1033.7"/>
      <point x="380.7" y="920.2" type="curve"/>
      <point x="166.7" y="830.4"/>
      <point x="73.6" y="677.9"/>
      <point x="73.6" y="442.0" type="curve" smooth="yes"/>
      <point x="73.6" y="157.3"/>
      <point x="242.5" y="-20.0"/>
    </contour>
    <contour>
      <point x="501.4" y="207.4" type="curve" smooth="yes"/>
      <point x="404.4" y="207.4"/>
      <point x="346.2" y="304.9"/>
      <point x="346.2" y="454.1" type="curve" smooth="yes"/>
      <point x="346.2" y="544.6"/>
      <point x="363.5" y="621.3"/>
      <point x="398.4" y="680.6" type="curve" smooth="yes"/>
      <point x="429.3" y="734.4"/>
      <point x="473.3" y="774.2"/>
      <point x="532.3" y="801.7" type="curve"/>
      <point x="619.8" y="726.3"/>
      <point x="665.6" y="617.9"/>
      <point x="665.6" y="494.3" type="curve" smooth="yes"/>
      <point x="665.6" y="300.2"/>
      <point x="608.0" y="207.4"/>
    </contour>
  </outline>
</glyph>
<glyph name="epsilon" format="2">
	<unicode hex="03B5"/>
	<advance width="862"/>
	<outline>
		<contour>
			<point x="478" y="-20" type="curve" smooth="yes"/>
			<point x="602" y="-20"/>
			<point x="717" y="9"/>
			<point x="794" y="53" type="curve"/>
			<point x="794" y="276" type="line"/>
			<point x="701" y="225"/>
			<point x="610" y="199"/>
			<point x="521" y="199" type="curve" smooth="yes"/>
			<point x="417" y="199"/>
			<point x="335" y="238"/>
			<point x="335" y="334" type="curve" smooth="yes"/>
			<point x="335" y="390"/>
			<point x="353" y="430"/>
			<point x="391" y="454" type="curve" smooth="yes"/>
			<point x="421" y="472"/>
			<point x="464" y="481"/>
			<point x="525" y="481" type="curve" smooth="yes"/>
			<point x="631" y="481" type="line"/>
			<point x="631" y="680" type="line"/>
			<point x="540" y="680" type="line" smooth="yes"/>
			<point x="477" y="680"/>
			<point x="431" y="688"/>
			<point x="401" y="708" type="curve" smooth="yes"/>
			<point x="372" y="729"/>
			<point x="356" y="761"/>
			<point x="356" y="809" type="curve" smooth="yes"/>
			<point x="356" y="886"/>
			<point x="408" y="924"/>
			<point x="511" y="924" type="curve" smooth="yes"/>
			<point x="583" y="924"/>
			<point x="638" y="904"/>
			<point x="710" y="859" type="curve"/>
			<point x="809" y="1053" type="line"/>
			<point x="714" y="1108"/>
			<point x="610" y="1135"/>
			<point x="496" y="1135" type="curve" smooth="yes"/>
			<point x="267" y="1135"/>
			<point x="109" y="1018"/>
			<point x="109" y="833" type="curve" smooth="yes"/>
			<point x="109" y="707"/>
			<point x="176" y="625"/>
			<point x="308" y="589" type="curve"/>
			<point x="308" y="578" type="line"/>
			<point x="149" y="541"/>
			<point x="70" y="450"/>
			<point x="70" y="301" type="curve" smooth="yes"/>
			<point x="70" y="97"/>
			<point x="223" y="-20"/>
		</contour>
	</outline>
	<anchor name="top" x="492" y="1114"/>
	<note>
		epsilon
	</note>
</glyph>
<glyph name="theta" format="2">
	<unicode hex="03B8"/>
	<advance width="1028"/>
	<outline>
		<contour>
			<point x="511.3" y="-20" type="curve" smooth="yes"/>
			<point x="816.2" y="-20"/>
			<point x="955.9" y="235.1"/>
			<point x="955.9" y="787.6" type="curve" smooth="yes"/>
			<point x="955.9" y="1330.5"/>
			<point x="821" y="1579"/>
			<point x="514.1" y="1579" type="curve" smooth="yes"/>
			<point x="151.2" y="1579"/>
			<point x="73.6" y="1226.3"/>
			<point x="73.6" y="780" type="curve" smooth="yes"/>
			<point x="73.6" y="233.7"/>
			<point x="209.6" y="-20"/>
		</contour>
		<contour>
			<point x="516.1" y="190.4" type="curve" smooth="yes"/>
			<point x="463.3" y="190.4"/>
			<point x="416.1" y="226.6"/>
			<point x="384.5" y="310.5" type="curve" smooth="yes"/>
			<point x="353.4" y="390.9"/>
			<point x="335.5" y="516.1"/>
			<point x="331.5" y="685.8" type="curve"/>
			<point x="695.9" y="685.8" type="line"/>
			<point x="692.6" y="478.7"/>
			<point x="668.1" y="345.5"/>
			<point x="630.1" y="273.5" type="curve" smooth="yes"/>
			<point x="601.6" y="217.5"/>
			<point x="562.1" y="190.4"/>
		</contour>
		<contour>
			<point x="331.5" y="890.8" type="line"/>
			<point x="336.5" y="1057.3"/>
			<point x="353.9" y="1174.6"/>
			<point x="384.4" y="1252.8" type="curve" smooth="yes"/>
			<point x="414.6" y="1330.7"/>
			<point x="457.1" y="1367.9"/>
			<point x="511.9" y="1367.9" type="curve" smooth="yes"/>
			<point x="572.2" y="1367.9"/>
			<point x="616.7" y="1324.4"/>
			<point x="645.8" y="1246.2" type="curve" smooth="yes"/>
			<point x="675.6" y="1165.9"/>
			<point x="691.6" y="1047.9"/>
			<point x="695.9" y="890.8" type="curve"/>
		</contour>
	</outline>
	<note>
		theta
	</note>
</glyph>
<glyph name="iota" format="2">
	<unicode hex="03B9"/>
	<advance width="586"/>
	<outline>
		<contour>
			<point x="394.7" y="-20" type="curve" smooth="yes"/>
			<point x="455" y="-20"/>
			<point x="509.5" y="-10.2"/>
			<point x="556.8" y="10.5" type="curve"/>
			<point x="556.8" y="222.5" type="line"/>
			<point x="520.1" y="211.5"/>
			<point x="488.1" y="205.1"/>
			<point x="461.3" y="205.1" type="curve" smooth="yes"/>
			<point x="412.5" y="205.1"/>
			<point x="379.3" y="248.3"/>
			<point x="379.3" y="335.8" type="curve" smooth="yes"/>
			<point x="379.3" y="1114.4" type="line"/>
			<point x="110.7" y="1114.4" type="line"/>
			<point x="110.7" y="328.1" type="line" smooth="yes"/>
			<point x="110.7" y="85.2"/>
			<point x="198.3" y="-20"/>
		</contour>
	</outline>
	<anchor name="top" x="293" y="1114.4"/>
	<note>
		iota
	</note>
</glyph>
<glyph name="kappa" format="2">
	<unicode hex="03BA"/>
	<advance width="965"/>
	<outline>
		<contour>
			<point x="112.8" y="0" type="line"/>
			<point x="379.3" y="0" type="line"/>
			<point x="379.3" y="377" type="line"/>
			<point x="483.2" y="470.6" type="line"/>
			<point x="684.2" y="0" type="line"/>
			<point x="962.7" y="0" type="line"/>
			<point x="662.7" y="659.4" type="line"/>
			<point x="943.5" y="1114.4" type="line"/>
			<point x="662" y="1114.4" type="line"/>
			<point x="454.4" y="757.7" type="line"/>
			<point x="419.4" y="694.2"/>
			<point x="411" y="678.7"/>
			<point x="370.8" y="590.2" type="curve"/>
			<point x="366.7" y="590.2" type="line"/>
			<point x="374.5" y="668.9"/>
			<point x="379.3" y="748.1"/>
			<point x="379.3" y="827.5" type="curve" smooth="yes"/>
			<point x="379.3" y="1114.4" type="line"/>
			<point x="112.8" y="1114.4" type="line"/>
		</contour>
	</outline>
	<note>
		kappa
	</note>
</glyph>
<glyph name="lambda" format="2">
	<unicode hex="03BB"/>
	<advance width="1030"/>
	<outline>
		<contour>
			<point x="882.8" y="-20" type="curve" smooth="yes"/>
			<point x="933.7" y="-20"/>
			<point x="980.9" y="-9.7"/>
			<point x="1022" y="10.2" type="curve"/>
			<point x="1022" y="224.4" type="line"/>
			<point x="1006.2" y="217.4"/>
			<point x="986.1" y="214.4"/>
			<point x="965.5" y="214.4" type="curve" smooth="yes"/>
			<point x="939.9" y="214.4"/>
			<point x="922.4" y="221.8"/>
			<point x="910.9" y="233.4" type="curve" smooth="yes"/>
			<point x="884.7" y="252.7"/>
			<point x="863" y="301.7"/>
			<point x="834.2" y="398.9" type="curve" smooth="yes"/>
			<point x="613.4" y="1214.2" type="line" smooth="yes"/>
			<point x="570.5" y="1359.4"/>
			<point x="516.4" y="1453"/>
			<point x="445.8" y="1507.8" type="curve" smooth="yes"/>
			<point x="386.1" y="1554.8"/>
			<point x="314.9" y="1573.9"/>
			<point x="228.2" y="1573.9" type="curve" smooth="yes"/>
			<point x="178.1" y="1573.9"/>
			<point x="142.5" y="1567.8"/>
			<point x="92" y="1556" type="curve"/>
			<point x="92" y="1325.3" type="line"/>
			<point x="116.8" y="1333"/>
			<point x="147.3" y="1337.4"/>
			<point x="172.7" y="1337.4" type="curve" smooth="yes"/>
			<point x="223.5" y="1337.4"/>
			<point x="269.9" y="1315.6"/>
			<point x="303.6" y="1284.7" type="curve" smooth="yes"/>
			<point x="336.2" y="1254.2"/>
			<point x="357.2" y="1215.4"/>
			<point x="360.8" y="1179.2" type="curve"/>
			<point x="372.8" y="1101.9" type="line"/>
			<point x="8.1" y="0" type="line"/>
			<point x="273.9" y="0" type="line"/>
			<point x="440.6" y="551.3" type="line"/>
			<point x="454.1" y="596.7"/>
			<point x="469.1" y="667.8"/>
			<point x="488.4" y="805.2" type="curve"/>
			<point x="498.5" y="805.2" type="line"/>
			<point x="507.1" y="705.5"/>
			<point x="525.4" y="593.9"/>
			<point x="537.8" y="544.8" type="curve" smooth="yes"/>
			<point x="611" y="251.9" type="line" smooth="yes"/>
			<point x="659.5" y="71.8"/>
			<point x="736.1" y="-20"/>
		</contour>
	</outline>
	<note>
		lambda
	</note>
</glyph>
<glyph name="omicron" format="2">
  <advance width="1012.0"/>
  <unicode hex="03BF"/>
  <note>
omicron
</note>
  <anchor x="505.5" y="1114.4" name="top"/>
  <outline>
    <contour>
      <point x="506.7" y="-20.0" type="curve" smooth="yes"/>
      <point x="772.8" y="-20.0"/>
      <point x="937.3" y="198.1"/>
      <point x="937.3" y="555.6" type="curve" smooth="yes"/>
      <point x="937.3" y="911.8"/>
      <point x="773.8" y="1135.4"/>
      <point x="504.4" y="1135.4" type="curve" smooth="yes"/>
      <point x="234.5" y="1135.4"/>
      <point x="73.7" y="912.3"/>
      <point x="73.7" y="565.8" type="curve" smooth="yes"/>
      <point x="73.7" y="359.3"/>
      <point x="130.4" y="180.8"/>
      <point x="244.7" y="76.9" type="curve" smooth="yes"/>
      <point x="312.4" y="15.2"/>
      <point x="399.6" y="-20.0"/>
    </contour>
    <contour>
      <point x="505.2" y="206.5" type="curve" smooth="yes"/>
      <point x="365.1" y="206.5"/>
      <point x="346.3" y="380.4"/>
      <point x="346.3" y="550.5" type="curve" smooth="yes"/>
      <point x="346.3" y="739.8"/>
      <point x="369.1" y="906.8"/>
      <point x="505.6" y="906.8" type="curve" smooth="yes"/>
      <point x="641.9" y="906.8"/>
      <point x="666.1" y="748.5"/>
      <point x="666.1" y="557.2" type="curve" smooth="yes"/>
      <point x="666.1" y="382.9"/>
      <point x="635.5" y="206.5"/>
    </contour>
  </outline>
</glyph>
<glyph name="pi" format="2">
  <advance width="1174.0"/>
  <unicode hex="03C0"/>
  <note>
pi
</note>
  <outline>
    <contour>
      <point x="974.0" y="-20.4" type="curve" smooth="yes"/>
      <point x="1035.1" y="-20.4"/>
      <point x="1083.9" y="-11.1"/>
      <point x="1127.7" y="7.9" type="curve"/>
      <point x="1127.7" y="221.4" type="line"/>
      <point x="1087.3" y="209.9"/>
      <point x="1061.2" y="205.8"/>
      <point x="1041.8" y="205.5" type="curve" smooth="yes"/>
      <point x="984.6" y="205.5"/>
      <point x="957.9" y="245.3"/>
      <point x="957.9" y="331.7" type="curve" smooth="yes"/>
      <point x="957.9" y="898.9" type="line"/>
      <point x="1136.4" y="898.9" type="line"/>
      <point x="1136.4" y="1114.4" type="line"/>
      <point x="159.9" y="1114.4" type="line"/>
      <point x="20.3" y="1017.2" type="line"/>
      <point x="20.3" y="898.9" type="line"/>
      <point x="198.9" y="898.9" type="line"/>
      <point x="198.9" y="0.0" type="line"/>
      <point x="466.4" y="0.0" type="line"/>
      <point x="466.4" y="898.9" type="line"/>
      <point x="690.4" y="898.9" type="line"/>
      <point x="690.4" y="324.0" type="line" smooth="yes"/>
      <point x="690.4" y="86.5"/>
      <point x="776.9" y="-20.4"/>
    </contour>
  </outline>
</glyph>
<glyph name="sigmafinal" format="2">
	<unicode hex="03C2"/>
	<advance width="745"/>
	<outline>
		<contour>
			<point x="343.9" y="-383.5" type="curve"/>
			<point x="600" y="-383.5" type="line"/>
			<point x="676.7" y="-284"/>
			<point x="728.8" y="-153.3"/>
			<point x="728.8" y="-44.7" type="curve" smooth="yes"/>
			<point x="728.8" y="15.4"/>
			<point x="717.2" y="68.6"/>
			<point x="687" y="111.1" type="curve" smooth="yes"/>
			<point x="659.5" y="153"/>
			<point x="610.9" y="190.2"/>
			<point x="529.9" y="236.2" type="curve" smooth="yes"/>
			<point x="479.8" y="264.4"/>
			<point x="443.6" y="288.7"/>
			<point x="418.4" y="310.9" type="curve" smooth="yes"/>
			<point x="356.9" y="364.1"/>
			<point x="346.2" y="419.9"/>
			<point x="346.2" y="557.2" type="curve" smooth="yes"/>
			<point x="346.2" y="651.2"/>
			<point x="357" y="759.3"/>
			<point x="383.5" y="817.8" type="curve" smooth="yes"/>
			<point x="405.4" y="874.1"/>
			<point x="448.7" y="906.8"/>
			<point x="507.5" y="906.8" type="curve" smooth="yes"/>
			<point x="544.8" y="906.8"/>
			<point x="594.2" y="890.9"/>
			<point x="650.7" y="858.4" type="curve"/>
			<point x="729.1" y="1064.1" type="line"/>
			<point x="647.7" y="1112.2"/>
			<point x="565.1" y="1135.4"/>
			<point x="470.1" y="1135.4" type="curve" smooth="yes"/>
			<point x="206.2" y="1135.4"/>
			<point x="73.6" y="936.7"/>
			<point x="73.6" y="549.6" type="curve" smooth="yes"/>
			<point x="73.6" y="440.3"/>
			<point x="84.1" y="360.3"/>
			<point x="110" y="291.7" type="curve" smooth="yes"/>
			<point x="135.2" y="214.8"/>
			<point x="179.1" y="149.7"/>
			<point x="279.2" y="85.7" type="curve" smooth="yes"/>
			<point x="311.8" y="64.7"/>
			<point x="344.8" y="44.1"/>
			<point x="379.6" y="23.2" type="curve" smooth="yes"/>
			<point x="440.1" y="-11.7"/>
			<point x="470.2" y="-36.3"/>
			<point x="470.2" y="-90.6" type="curve" smooth="yes"/>
			<point x="470.2" y="-153.4"/>
			<point x="428.9" y="-250.9"/>
		</contour>
	</outline>
	<note>
		sigma1
	</note>
</glyph>
<glyph name="upsilon" format="2">
	<unicode hex="03C5"/>
	<advance width="1034"/>
	<outline>
		<contour>
			<point x="508" y="-18" type="curve" smooth="yes"/>
			<point x="803" y="-18"/>
			<point x="951" y="195"/>
			<point x="951" y="587" type="curve" smooth="yes"/>
			<point x="951" y="790"/>
			<point x="932" y="910"/>
			<point x="887" y="1114" type="curve"/>
			<point x="622" y="1114" type="line"/>
			<point x="666" y="914"/>
			<point x="684" y="763"/>
			<point x="684" y="598" type="curve" smooth="yes"/>
			<point x="684" y="480"/>
			<point x="669" y="367"/>
			<point x="642" y="306" type="curve" smooth="yes"/>
			<point x="620" y="239"/>
			<point x="579" y="207"/>
			<point x="511" y="207" type="curve" smooth="yes"/>
			<point x="389" y="207"/>
			<point x="370" y="332"/>
			<point x="370" y="487" type="curve" smooth="yes"/>
			<point x="370" y="1114" type="line"/>
			<point x="102" y="1114" type="line"/>
			<point x="102" y="489" type="line" smooth="yes"/>
			<point x="102" y="368"/>
			<point x="117" y="270"/>
			<point x="151" y="193" type="curve" smooth="yes"/>
			<point x="211" y="53"/>
			<point x="327" y="-18"/>
		</contour>
	</outline>
	<anchor name="top" x="516" y="1114"/>
	<note>
		upsilon
	</note>
</glyph>
<glyph name="phi" format="2">
	<unicode hex="03C6"/>
	<advance width="1339"/>
	<outline>
		<contour>
			<point x="547.3" y="-492" type="line"/>
			<point x="793.2" y="-492" type="line"/>
			<point x="793.2" y="-20" type="line"/>
			<point x="964.3" y="-9.7"/>
			<point x="1090.5" y="56.5"/>
			<point x="1168.3" y="178.4" type="curve" smooth="yes"/>
			<point x="1233.4" y="277.9"/>
			<point x="1266.2" y="416.2"/>
			<point x="1266.2" y="590.3" type="curve" smooth="yes"/>
			<point x="1266.2" y="944.4"/>
			<point x="1133.4" y="1130.3"/>
			<point x="886.9" y="1130.3" type="curve" smooth="yes"/>
			<point x="666.2" y="1130.3"/>
			<point x="547.3" y="993.3"/>
			<point x="547.3" y="732.3" type="curve" smooth="yes"/>
			<point x="547.3" y="187.8" type="line"/>
			<point x="416" y="207.3"/>
			<point x="334.3" y="315.6"/>
			<point x="334.3" y="560.7" type="curve" smooth="yes"/>
			<point x="334.3" y="704.9"/>
			<point x="368.1" y="827.8"/>
			<point x="472.5" y="1013.8" type="curve"/>
			<point x="258.5" y="1127.8" type="line"/>
			<point x="135" y="954.5"/>
			<point x="73.6" y="762.9"/>
			<point x="73.6" y="556.5" type="curve" smooth="yes"/>
			<point x="73.6" y="193.2"/>
			<point x="243.6" y="-0.5"/>
			<point x="547.3" y="-20" type="curve"/>
		</contour>
		<contour>
			<point x="793.2" y="187.8" type="curve"/>
			<point x="793.2" y="738.5" type="line" smooth="yes"/>
			<point x="793.2" y="867.1"/>
			<point x="827" y="926.1"/>
			<point x="887" y="926.1" type="curve" smooth="yes"/>
			<point x="928.3" y="926.1"/>
			<point x="958.6" y="892"/>
			<point x="974.3" y="835.3" type="curve" smooth="yes"/>
			<point x="996.3" y="782.9"/>
			<point x="1006.5" y="667.7"/>
			<point x="1006.5" y="587.6" type="curve" smooth="yes"/>
			<point x="1006.5" y="486.2"/>
			<point x="998" y="425.1"/>
			<point x="975.8" y="361.3" type="curve" smooth="yes"/>
			<point x="940.1" y="258.2"/>
			<point x="882" y="200.1"/>
		</contour>
	</outline>
	<note>
		phi
	</note>
</glyph>
<glyph name="psi" format="2">
  <advance width="1354.0"/>
  <unicode hex="03C8"/>
  <note>
psi
</note>
  <outline>
    <contour>
      <point x="559.4" y="-492.0" type="line"/>
      <point x="804.6" y="-492.0" type="line"/>
      <point x="804.6" y="-17.9" type="line"/>
      <point x="1113.0" y="-14.6"/>
      <point x="1272.4" y="184.1"/>
      <point x="1272.4" y="607.5" type="curve" smooth="yes"/>
      <point x="1272.4" y="755.7"/>
      <point x="1251.1" y="924.9"/>
      <point x="1207.8" y="1114.4" type="curve"/>
      <point x="952.2" y="1114.4" type="line"/>
      <point x="992.8" y="931.3"/>
      <point x="1013.8" y="763.4"/>
      <point x="1013.8" y="615.7" type="curve" smooth="yes"/>
      <point x="1013.8" y="466.4"/>
      <point x="996.2" y="359.1"/>
      <point x="959.2" y="290.3" type="curve" smooth="yes"/>
      <point x="920.5" y="219.4"/>
      <point x="871.3" y="189.9"/>
      <point x="804.6" y="188.4" type="curve"/>
      <point x="804.6" y="1556.0" type="line"/>
      <point x="559.4" y="1556.0" type="line"/>
      <point x="559.4" y="188.4" type="line"/>
      <point x="430.9" y="192.3"/>
      <point x="360.0" y="291.5"/>
      <point x="360.0" y="487.1" type="curve" smooth="yes"/>
      <point x="360.0" y="1114.4" type="line"/>
      <point x="101.5" y="1114.4" type="line"/>
      <point x="101.5" y="491.7" type="line" smooth="yes"/>
      <point x="101.5" y="149.2"/>
      <point x="259.7" y="-16.4"/>
      <point x="559.4" y="-17.9" type="curve"/>
    </contour>
  </outline>
</glyph>
<glyph name="UpsilonhookSymbol" format="2">
	<unicode hex="03D2"/>
	<advance width="1006"/>
	<outline>
		<contour>
			<point x="346.2" y="0" type="line"/>
			<point x="614.3" y="0" type="line"/>
			<point x="614.3" y="548.6" type="line"/>
			<point x="636.6" y="627.6"/>
			<point x="667.4" y="718.5"/>
			<point x="698.6" y="803.1" type="curve" smooth="yes"/>
			<point x="734.2" y="909.3"/>
			<point x="768.4" y="1000.6"/>
			<point x="793.4" y="1060.2" type="curve" smooth="yes"/>
			<point x="821.5" y="1123"/>
			<point x="843.8" y="1162.2"/>
			<point x="861.6" y="1186.5" type="curve" smooth="yes"/>
			<point x="899.4" y="1236.4"/>
			<point x="933.2" y="1249.1"/>
			<point x="968.6" y="1249.1" type="curve" smooth="yes"/>
			<point x="983.8" y="1249.1"/>
			<point x="994.8" y="1247.1"/>
			<point x="1001.2" y="1244.5" type="curve"/>
			<point x="1001.2" y="1459.1" type="line"/>
			<point x="962.8" y="1470.3"/>
			<point x="933.5" y="1475"/>
			<point x="898.2" y="1475" type="curve" smooth="yes"/>
			<point x="810" y="1475"/>
			<point x="752.5" y="1449"/>
			<point x="699.8" y="1390.9" type="curve" smooth="yes"/>
			<point x="675" y="1362.9"/>
			<point x="649.3" y="1326.4"/>
			<point x="615.7" y="1254.1" type="curve" smooth="yes"/>
			<point x="569.5" y="1158"/>
			<point x="513.8" y="1002.8"/>
			<point x="480.5" y="885.4" type="curve"/>
			<point x="287.4" y="1462" type="line"/>
			<point x="0" y="1462" type="line"/>
			<point x="346.2" y="575.9" type="line"/>
		</contour>
	</outline>
	<anchor name="top" x="502.6" y="1462"/>
	<note>
		Upsilon1
	</note>
</glyph>
<glyph name="piSymbol" format="2">
  <advance width="1579.0"/>
  <unicode hex="03D6"/>
  <note>
omega1
</note>
  <outline>
    <contour>
      <point x="529.0" y="-20.0" type="curve" smooth="yes"/>
      <point x="650.0" y="-20.0"/>
      <point x="738.0" y="37.0"/>
      <point x="782.0" y="182.0" type="curve"/>
      <point x="794.0" y="182.0" type="line"/>
      <point x="831.0" y="61.0"/>
      <point x="905.0" y="-20.0"/>
      <point x="1047.0" y="-20.0" type="curve" smooth="yes"/>
      <point x="1147.0" y="-20.0"/>
      <point x="1229.0" y="25.0"/>
      <point x="1281.0" y="100.0" type="curve" smooth="yes"/>
      <point x="1353.0" y="196.0"/>
      <point x="1388.0" y="361.0"/>
      <point x="1388.0" y="536.0" type="curve" smooth="yes"/>
      <point x="1388.0" y="669.0"/>
      <point x="1367.0" y="781.0"/>
      <point x="1332.0" y="899.0" type="curve"/>
      <point x="1541.0" y="899.0" type="line"/>
      <point x="1541.0" y="1114.0" type="line"/>
      <point x="171.0" y="1114.0" type="line"/>
      <point x="35.0" y="1017.0" type="line"/>
      <point x="35.0" y="899.0" type="line"/>
      <point x="243.0" y="899.0" type="line"/>
      <point x="208.0" y="784.0"/>
      <point x="187.0" y="673.0"/>
      <point x="187.0" y="535.0" type="curve" smooth="yes"/>
      <point x="187.0" y="398.0"/>
      <point x="206.0" y="283.0"/>
      <point x="244.0" y="190.0" type="curve" smooth="yes"/>
      <point x="301.0" y="54.0"/>
      <point x="394.0" y="-20.0"/>
    </contour>
    <contour>
      <point x="562.0" y="201.0" type="curve" smooth="yes"/>
      <point x="523.0" y="201.0"/>
      <point x="500.0" y="232.0"/>
      <point x="484.0" y="282.0" type="curve" smooth="yes"/>
      <point x="466.0" y="339.0"/>
      <point x="456.0" y="425.0"/>
      <point x="456.0" y="536.0" type="curve" smooth="yes"/>
      <point x="456.0" y="666.0"/>
      <point x="468.0" y="761.0"/>
      <point x="503.0" y="899.0" type="curve"/>
      <point x="1074.0" y="899.0" type="line"/>
      <point x="1103.0" y="784.0"/>
      <point x="1119.0" y="677.0"/>
      <point x="1119.0" y="537.0" type="curve" smooth="yes"/>
      <point x="1119.0" y="421.0"/>
      <point x="1108.0" y="330.0"/>
      <point x="1088.0" y="274.0" type="curve" smooth="yes"/>
      <point x="1070.0" y="225.0"/>
      <point x="1047.0" y="201.0"/>
      <point x="1013.0" y="201.0" type="curve" smooth="yes"/>
      <point x="982.0" y="201.0"/>
      <point x="955.0" y="221.0"/>
      <point x="940.0" y="260.0" type="curve" smooth="yes"/>
      <point x="925.0" y="299.0"/>
      <point x="919.0" y="362.0"/>
      <point x="919.0" y="444.0" type="curve" smooth="yes"/>
      <point x="919.0" y="598.0" type="line"/>
      <point x="658.0" y="598.0" type="line"/>
      <point x="658.0" y="444.0" type="line" smooth="yes"/>
      <point x="658.0" y="361.0"/>
      <point x="651.0" y="299.0"/>
      <point x="636.0" y="260.0" type="curve" smooth="yes"/>
      <point x="621.0" y="221.0"/>
      <point x="594.0" y="201.0"/>
    </contour>
  </outline>
</glyph>
<glyph name="E-cy" format="2">
  <advance width="948.0"/>
  <unicode hex="0404"/>
  <note>
afii10053
</note>
  <outline>
    <contour>
      <point x="596.9" y="-20.0" type="curve" smooth="yes"/>
      <point x="697.2" y="-20.0"/>
      <point x="794.1" y="1.8"/>
      <point x="867.9" y="51.0" type="curve"/>
      <point x="867.9" y="292.9" type="line"/>
      <point x="781.1" y="242.9"/>
      <point x="701.0" y="218.9"/>
      <point x="623.1" y="218.9" type="curve" smooth="yes"/>
      <point x="477.3" y="218.9"/>
      <point x="382.6" y="341.1"/>
      <point x="367.0" y="624.5" type="curve"/>
      <point x="748.3" y="624.5" type="line"/>
      <point x="748.3" y="859.9" type="line"/>
      <point x="369.0" y="859.9" type="line"/>
      <point x="391.3" y="1110.3"/>
      <point x="480.1" y="1245.4"/>
      <point x="614.3" y="1245.4" type="curve" smooth="yes"/>
      <point x="694.3" y="1245.4"/>
      <point x="773.8" y="1195.7"/>
      <point x="819.3" y="1163.2" type="curve"/>
      <point x="911.1" y="1384.4" type="line"/>
      <point x="803.7" y="1454.4"/>
      <point x="707.1" y="1482.9"/>
      <point x="599.5" y="1482.9" type="curve" smooth="yes"/>
      <point x="276.1" y="1482.9"/>
      <point x="84.4" y="1206.3"/>
      <point x="84.4" y="723.8" type="curve" smooth="yes"/>
      <point x="84.4" y="533.0"/>
      <point x="115.0" y="364.7"/>
      <point x="176.5" y="244.8" type="curve" smooth="yes"/>
      <point x="254.1" y="80.9"/>
      <point x="395.5" y="-20.0"/>
    </contour>
  </outline>
</glyph>
<glyph name="Lje-cy" format="2">
  <advance width="1552.0"/>
  <unicode hex="0409"/>
  <note>
afii10058
</note>
  <outline>
    <contour>
      <point x="136.2" y="-20.3" type="curve" smooth="yes"/>
      <point x="303.8" y="-20.3"/>
      <point x="407.4" y="101.1"/>
      <point x="450.7" y="387.5" type="curve" smooth="yes"/>
      <point x="474.6" y="544.7"/>
      <point x="485.7" y="646.5"/>
      <point x="512.6" y="924.9" type="curve" smooth="yes"/>
      <point x="522.8" y="1032.8"/>
      <point x="535.8" y="1163.5"/>
      <point x="541.1" y="1223.1" type="curve"/>
      <point x="699.6" y="1223.1" type="line"/>
      <point x="699.6" y="0.0" type="line"/>
      <point x="1046.9" y="0.0" type="line" smooth="yes"/>
      <point x="1336.6" y="0.0"/>
      <point x="1496.5" y="172.5"/>
      <point x="1496.5" y="456.9" type="curve" smooth="yes"/>
      <point x="1496.5" y="741.4"/>
      <point x="1346.6" y="880.9"/>
      <point x="1040.7" y="880.9" type="curve" smooth="yes"/>
      <point x="972.9" y="880.9" type="line"/>
      <point x="972.9" y="1462.0" type="line"/>
      <point x="305.3" y="1462.0" type="line"/>
      <point x="278.2" y="1157.5"/>
      <point x="251.7" y="897.4"/>
      <point x="227.3" y="698.2" type="curve" smooth="yes"/>
      <point x="203.0" y="496.5"/>
      <point x="180.5" y="364.1"/>
      <point x="160.0" y="302.9" type="curve" smooth="yes"/>
      <point x="139.9" y="245.2"/>
      <point x="112.6" y="215.1"/>
      <point x="79.8" y="215.1" type="curve" smooth="yes"/>
      <point x="42.5" y="215.1"/>
      <point x="20.2" y="218.7"/>
      <point x="0.3" y="226.9" type="curve"/>
      <point x="0.3" y="1.9" type="line"/>
      <point x="34.7" y="-13.6"/>
      <point x="77.9" y="-20.3"/>
    </contour>
    <contour>
      <point x="972.9" y="235.6" type="line"/>
      <point x="972.9" y="643.2" type="line"/>
      <point x="1023.7" y="643.2" type="line" smooth="yes"/>
      <point x="1169.2" y="643.2"/>
      <point x="1223.6" y="587.2"/>
      <point x="1223.6" y="449.2" type="curve" smooth="yes"/>
      <point x="1223.6" y="309.4"/>
      <point x="1160.9" y="235.6"/>
      <point x="1037.6" y="235.6" type="curve" smooth="yes"/>
    </contour>
  </outline>
</glyph>
<glyph name="Dzhe-cy" format="2">
  <advance width="1161.0"/>
  <unicode hex="040F"/>
  <note>
afii10145
</note>
  <outline>
    <contour>
      <point x="1031.9" y="1462.0" type="line"/>
      <point x="759.6" y="1462.0" type="line"/>
      <point x="759.6" y="239.6" type="line"/>
      <point x="400.8" y="239.6" type="line"/>
      <point x="400.8" y="1462.0" type="line"/>
      <point x="128.5" y="1462.0" type="line"/>
      <point x="128.5" y="0.0" type="line"/>
      <point x="446.0" y="0.0" type="line"/>
      <point x="446.0" y="-418.7" type="line"/>
      <point x="718.5" y="-418.7" type="line"/>
      <point x="718.5" y="0.0" type="line"/>
      <point x="1031.9" y="0.0" type="line"/>
    </contour>
  </outline>
</glyph>
<glyph name="Ge-cy" format="2">
  <advance width="819.0"/>
  <unicode hex="0413"/>
  <note>
afii10020
</note>
  <anchor x="799.0" y="0.0" name="bottomright"/>
  <anchor x="457.4" y="1462.0" name="top"/>
  <outline>
    <contour>
      <point x="128.5" y="0.0" type="line"/>
      <point x="399.4" y="0.0" type="line"/>
      <point x="399.4" y="1226.6" type="line"/>
      <point x="782.0" y="1226.6" type="line"/>
      <point x="782.0" y="1462.0" type="line"/>
      <point x="128.5" y="1462.0" type="line"/>
    </contour>
  </outline>
</glyph>
<glyph name="De-cy" format="2">
  <advance width="1225.0"/>
  <unicode hex="0414"/>
  <note>
afii10021
</note>
  <outline>
    <contour>
      <point x="10.0" y="-418.7" type="line"/>
      <point x="273.4" y="-418.7" type="line"/>
      <point x="273.4" y="0.0" type="line"/>
      <point x="930.4" y="0.0" type="line"/>
      <point x="930.4" y="-418.7" type="line"/>
      <point x="1193.8" y="-418.7" type="line"/>
      <point x="1193.8" y="239.6" type="line"/>
      <point x="1028.2" y="239.6" type="line"/>
      <point x="1028.2" y="1462.0" type="line"/>
      <point x="359.8" y="1462.0" type="line"/>
      <point x="321.3" y="1011.8"/>
      <point x="232.6" y="605.2"/>
      <point x="95.9" y="239.6" type="curve"/>
      <point x="10.0" y="239.6" type="line"/>
    </contour>
    <contour>
      <point x="378.9" y="239.6" type="line"/>
      <point x="479.2" y="529.0"/>
      <point x="556.5" y="899.4"/>
      <point x="589.7" y="1223.1" type="curve"/>
      <point x="755.9" y="1223.1" type="line"/>
      <point x="755.9" y="239.6" type="line"/>
    </contour>
  </outline>
</glyph>
<glyph name="Ze-cy" format="2">
  <advance width="991.0"/>
  <unicode hex="0417"/>
  <note>
afii10025
</note>
  <anchor x="475.7" y="0.0" name="bottom"/>
  <anchor x="495.9" y="1462.0" name="top"/>
  <outline>
    <contour>
      <point x="437.6" y="-20.0" type="curve" smooth="yes"/>
      <point x="735.2" y="-20.0"/>
      <point x="919.8" y="145.0"/>
      <point x="919.8" y="414.1" type="curve" smooth="yes"/>
      <point x="919.8" y="613.2"/>
      <point x="793.9" y="735.9"/>
      <point x="574.9" y="762.4" type="curve"/>
      <point x="574.9" y="770.4" type="line"/>
      <point x="776.2" y="811.1"/>
      <point x="887.2" y="934.9"/>
      <point x="887.2" y="1116.1" type="curve" smooth="yes"/>
      <point x="887.2" y="1337.1"/>
      <point x="729.6" y="1483.0"/>
      <point x="489.3" y="1483.0" type="curve" smooth="yes"/>
      <point x="322.3" y="1483.0"/>
      <point x="192.7" y="1440.2"/>
      <point x="60.9" y="1326.9" type="curve"/>
      <point x="190.6" y="1144.8" type="line"/>
      <point x="269.2" y="1217.3"/>
      <point x="352.6" y="1253.2"/>
      <point x="442.1" y="1253.2" type="curve" smooth="yes"/>
      <point x="557.9" y="1253.2"/>
      <point x="621.0" y="1189.9"/>
      <point x="621.0" y="1076.9" type="curve" smooth="yes"/>
      <point x="621.0" y="936.3"/>
      <point x="531.5" y="870.1"/>
      <point x="337.9" y="870.1" type="curve" smooth="yes"/>
      <point x="250.1" y="870.1" type="line"/>
      <point x="250.1" y="646.6" type="line"/>
      <point x="347.3" y="646.6" type="line" smooth="yes"/>
      <point x="545.3" y="646.6"/>
      <point x="647.0" y="572.9"/>
      <point x="647.0" y="433.8" type="curve" smooth="yes"/>
      <point x="647.0" y="280.5"/>
      <point x="559.8" y="204.9"/>
      <point x="384.4" y="204.9" type="curve" smooth="yes"/>
      <point x="274.2" y="204.9"/>
      <point x="169.1" y="232.3"/>
      <point x="70.3" y="287.2" type="curve"/>
      <point x="70.3" y="49.0" type="line"/>
      <point x="157.8" y="3.6"/>
      <point x="281.6" y="-20.0"/>
    </contour>
  </outline>
</glyph>
<glyph name="Ka-cy" format="2">
  <advance width="1083.0"/>
  <unicode hex="041A"/>
  <note>
afii10028
</note>
  <anchor x="1063.3" y="0.0" name="bottomright"/>
  <anchor x="649.1" y="1462.0" name="top"/>
  <outline>
    <contour>
      <point x="673.6" y="758.1" type="line"/>
      <point x="1074.8" y="1462.0" type="line"/>
      <point x="784.0" y="1462.0" type="line"/>
      <point x="402.9" y="753.9" type="line"/>
      <point x="402.9" y="1462.0" type="line"/>
      <point x="133.4" y="1462.0" type="line"/>
      <point x="133.4" y="0.0" type="line"/>
      <point x="402.9" y="0.0" type="line"/>
      <point x="402.9" y="740.3" type="line"/>
      <point x="777.8" y="0.0" type="line"/>
      <point x="1083.3" y="0.0" type="line"/>
    </contour>
  </outline>
</glyph>
<glyph name="El-cy" format="2">
  <advance width="1161.0"/>
  <unicode hex="041B"/>
  <note>
afii10029
</note>
  <anchor x="963.0" y="0.0" name="cyrillicbighook"/>
  <outline>
    <contour>
      <point x="127.8" y="-20.3" type="curve" smooth="yes"/>
      <point x="317.8" y="-20.3"/>
      <point x="407.4" y="106.7"/>
      <point x="450.0" y="387.5" type="curve" smooth="yes"/>
      <point x="467.6" y="502.0"/>
      <point x="487.8" y="669.6"/>
      <point x="504.9" y="847.2" type="curve" smooth="yes"/>
      <point x="524.9" y="1032.8"/>
      <point x="533.0" y="1124.3"/>
      <point x="541.1" y="1223.1" type="curve"/>
      <point x="760.2" y="1223.1" type="line"/>
      <point x="760.2" y="0.0" type="line"/>
      <point x="1032.5" y="0.0" type="line"/>
      <point x="1032.5" y="1462.0" type="line"/>
      <point x="305.3" y="1462.0" type="line"/>
      <point x="278.2" y="1155.4"/>
      <point x="245.4" y="844.2"/>
      <point x="227.3" y="698.2" type="curve" smooth="yes"/>
      <point x="202.3" y="496.5"/>
      <point x="179.1" y="360.6"/>
      <point x="160.0" y="302.9" type="curve" smooth="yes"/>
      <point x="142.0" y="249.4"/>
      <point x="113.3" y="215.1"/>
      <point x="79.8" y="215.1" type="curve" smooth="yes"/>
      <point x="42.5" y="215.1"/>
      <point x="20.2" y="218.7"/>
      <point x="0.3" y="226.9" type="curve"/>
      <point x="0.3" y="1.9" type="line"/>
      <point x="36.8" y="-15.0"/>
      <point x="91.2" y="-20.3"/>
    </contour>
  </outline>
</glyph>
<glyph name="Tse-cy" format="2">
	<unicode hex="0426"/>
	<advance width="1229"/>
	<outline>
		<contour>
			<point x="1031.9" y="1462" type="line"/>
			<point x="759.6" y="1462" type="line"/>
			<point x="759.6" y="239.6" type="line"/>
			<point x="400.8" y="239.6" type="line"/>
			<point x="400.8" y="1462" type="line"/>
			<point x="128.5" y="1462" type="line"/>
			<point x="128.5" y="0" type="line"/>
			<point x="934.1" y="0" type="line"/>
			<point x="934.1" y="-418.7" type="line"/>
			<point x="1198.2" y="-418.7" type="line"/>
			<point x="1198.2" y="229.1" type="line"/>
			<point x="1031.9" y="229.1" type="line"/>
		</contour>
	</outline>
	<note>
		afii10040
	</note>
</glyph>
<glyph name="Che-cy" format="2">
  <advance width="1155.0"/>
  <unicode hex="0427"/>
  <note>
afii10041
</note>
  <anchor x="1135.0" y="0.0" name="bottomright"/>
  <anchor x="578.0" y="1462.0" name="top"/>
  <outline>
    <contour>
      <point x="754.2" y="0.0" type="line"/>
      <point x="1026.1" y="0.0" type="line"/>
      <point x="1026.1" y="1462.0" type="line"/>
      <point x="754.2" y="1462.0" type="line"/>
      <point x="754.2" y="796.3" type="line"/>
      <point x="678.9" y="750.5"/>
      <point x="612.0" y="721.5"/>
      <point x="532.1" y="721.5" type="curve" smooth="yes"/>
      <point x="436.0" y="721.5"/>
      <point x="396.8" y="782.2"/>
      <point x="396.8" y="921.6" type="curve" smooth="yes"/>
      <point x="396.8" y="1462.0" type="line"/>
      <point x="124.5" y="1462.0" type="line"/>
      <point x="124.5" y="861.9" type="line" smooth="yes"/>
      <point x="124.5" y="621.8"/>
      <point x="251.3" y="480.9"/>
      <point x="470.9" y="480.9" type="curve" smooth="yes"/>
      <point x="566.3" y="480.9"/>
      <point x="661.1" y="510.1"/>
      <point x="754.2" y="567.5" type="curve"/>
    </contour>
  </outline>
</glyph>
<glyph name="Sha-cy" format="2">
	<unicode hex="0428"/>
	<advance width="1704"/>
	<outline>
		<contour>
			<point x="987.2" y="1462" type="line"/>
			<point x="717.4" y="1462" type="line"/>
			<point x="717.4" y="239.6" type="line"/>
			<point x="400.8" y="239.6" type="line"/>
			<point x="400.8" y="1462" type="line"/>
			<point x="128.5" y="1462" type="line"/>
			<point x="128.5" y="0" type="line"/>
			<point x="1575.3" y="0" type="line"/>
			<point x="1575.3" y="1462" type="line"/>
			<point x="1303" y="1462" type="line"/>
			<point x="1303" y="239.6" type="line"/>
			<point x="987.2" y="239.6" type="line"/>
		</contour>
	</outline>
	<note>
		afii10042
	</note>
</glyph>
<glyph name="Shcha-cy" format="2">
	<unicode hex="0429"/>
	<advance width="1772"/>
	<outline>
		<contour>
			<point x="987.2" y="1462" type="line"/>
			<point x="717.4" y="1462" type="line"/>
			<point x="717.4" y="239.6" type="line"/>
			<point x="400.8" y="239.6" type="line"/>
			<point x="400.8" y="1462" type="line"/>
			<point x="128.5" y="1462" type="line"/>
			<point x="128.5" y="0" type="line"/>
			<point x="1475.4" y="0" type="line"/>
			<point x="1475.4" y="-418.7" type="line"/>
			<point x="1739.5" y="-418.7" type="line"/>
			<point x="1739.5" y="229.1" type="line"/>
			<point x="1572.5" y="229.1" type="line"/>
			<point x="1572.5" y="1462" type="line"/>
			<point x="1303" y="1462" type="line"/>
			<point x="1303" y="239.6" type="line"/>
			<point x="987.2" y="239.6" type="line"/>
		</contour>
	</outline>
	<note>
		afii10043
	</note>
</glyph>
<glyph name="Hardsign-cy" format="2">
  <advance width="1155.0"/>
  <unicode hex="042A"/>
  <note>
afii10044
</note>
  <anchor x="577.0" y="1462.0" name="top"/>
  <outline>
    <contour>
      <point x="302.0" y="0.0" type="line"/>
      <point x="648.0" y="0.0" type="line" smooth="yes"/>
      <point x="935.0" y="0.0"/>
      <point x="1097.0" y="170.0"/>
      <point x="1097.0" y="465.0" type="curve" smooth="yes"/>
      <point x="1097.0" y="749.0"/>
      <point x="945.0" y="891.0"/>
      <point x="642.0" y="891.0" type="curve" smooth="yes"/>
      <point x="573.0" y="891.0" type="line"/>
      <point x="573.0" y="1462.0" type="line"/>
      <point x="29.0" y="1462.0" type="line"/>
      <point x="29.0" y="1223.0" type="line"/>
      <point x="302.0" y="1223.0" type="line"/>
    </contour>
    <contour>
      <point x="573.0" y="236.0" type="line"/>
      <point x="573.0" y="653.0" type="line"/>
      <point x="626.0" y="653.0" type="line" smooth="yes"/>
      <point x="769.0" y="653.0"/>
      <point x="822.0" y="596.0"/>
      <point x="822.0" y="455.0" type="curve" smooth="yes"/>
      <point x="822.0" y="309.0"/>
      <point x="762.0" y="236.0"/>
      <point x="640.0" y="236.0" type="curve" smooth="yes"/>
    </contour>
  </outline>
</glyph>
<glyph name="Softsign-cy" format="2">
  <advance width="983.0"/>
  <unicode hex="042C"/>
  <note>
afii10046
</note>
  <outline>
    <contour>
      <point x="128.5" y="0.0" type="line"/>
      <point x="477.6" y="0.0" type="line" smooth="yes"/>
      <point x="764.3" y="0.0"/>
      <point x="926.5" y="172.2"/>
      <point x="926.5" y="461.1" type="curve" smooth="yes"/>
      <point x="926.5" y="749.3"/>
      <point x="776.5" y="890.7"/>
      <point x="470.7" y="890.7" type="curve" smooth="yes"/>
      <point x="400.8" y="890.7" type="line"/>
      <point x="400.8" y="1462.0" type="line"/>
      <point x="128.5" y="1462.0" type="line"/>
    </contour>
    <contour>
      <point x="400.8" y="235.6" type="line"/>
      <point x="400.8" y="653.0" type="line"/>
      <point x="455.1" y="653.0" type="line" smooth="yes"/>
      <point x="598.8" y="653.0"/>
      <point x="651.2" y="595.6"/>
      <point x="651.2" y="452.7" type="curve" smooth="yes"/>
      <point x="651.2" y="310.1"/>
      <point x="589.9" y="235.6"/>
      <point x="469.7" y="235.6" type="curve" smooth="yes"/>
    </contour>
  </outline>
</glyph>
<glyph name="Ereversed-cy" format="2">
  <advance width="948.0"/>
  <unicode hex="042D"/>
  <note>
afii10047
</note>
  <anchor x="474.1" y="1462.0" name="top"/>
  <outline>
    <contour>
      <point x="340.3" y="-20.0" type="curve" smooth="yes"/>
      <point x="678.0" y="-20.0"/>
      <point x="864.1" y="262.4"/>
      <point x="864.1" y="739.5" type="curve" smooth="yes"/>
      <point x="864.1" y="954.4"/>
      <point x="825.5" y="1146.5"/>
      <point x="741.6" y="1269.2" type="curve" smooth="yes"/>
      <point x="664.2" y="1404.1"/>
      <point x="531.2" y="1485.0"/>
      <point x="354.4" y="1485.0" type="curve" smooth="yes"/>
      <point x="225.7" y="1485.0"/>
      <point x="133.3" y="1446.5"/>
      <point x="37.0" y="1383.9" type="curve"/>
      <point x="128.9" y="1162.7" type="line"/>
      <point x="205.9" y="1218.3"/>
      <point x="278.4" y="1245.4"/>
      <point x="344.6" y="1245.4" type="curve" smooth="yes"/>
      <point x="487.2" y="1245.4"/>
      <point x="563.0" y="1111.6"/>
      <point x="579.9" y="859.9" type="curve"/>
      <point x="199.3" y="859.9" type="line"/>
      <point x="199.3" y="624.5" type="line"/>
      <point x="581.9" y="624.5" type="line"/>
      <point x="566.4" y="356.0"/>
      <point x="484.3" y="218.9"/>
      <point x="322.7" y="218.9" type="curve" smooth="yes"/>
      <point x="245.2" y="218.9"/>
      <point x="154.8" y="243.4"/>
      <point x="71.5" y="292.8" type="curve"/>
      <point x="71.5" y="51.5" type="line"/>
      <point x="141.9" y="3.0"/>
      <point x="240.0" y="-20.0"/>
    </contour>
  </outline>
</glyph>
